<?xml version="1.0" encoding="utf-8" standalone="no"?>
<!DOCTYPE svg PUBLIC "-//W3C//DTD SVG 1.1//EN"
  "http://www.w3.org/Graphics/SVG/1.1/DTD/svg11.dtd">
<!-- Created with matplotlib (http://matplotlib.org/) -->
<svg height="432pt" version="1.1" viewBox="0 0 576 432" width="576pt" xmlns="http://www.w3.org/2000/svg" xmlns:xlink="http://www.w3.org/1999/xlink">
 <defs>
  <style type="text/css">
*{stroke-linecap:butt;stroke-linejoin:round;}
  </style>
 </defs>
 <g id="figure_1">
  <g id="patch_1">
   <path d="
M0 432
L576 432
L576 0
L0 0
z
" style="fill:#ffffff;"/>
  </g>
  <g id="axes_1">
   <g id="patch_2">
    <path d="
M72 388.8
L518.4 388.8
L518.4 43.2
L72 43.2
z
" style="fill:#ffffff;"/>
   </g>
   <g id="patch_3">
    <path clip-path="url(#p7ff5b81e1d)" d="
M72 388.8
L72.895 388.8
L72.895 43.2
L72 43.2
z
" style="fill:#126c73;"/>
   </g>
   <g id="patch_4">
    <path clip-path="url(#p7ff5b81e1d)" d="
M73.1188 388.8
L74.0138 388.8
L74.0138 48.4446
L73.1188 48.4446
z
" style="fill:#126c73;"/>
   </g>
   <g id="patch_5">
    <path clip-path="url(#p7ff5b81e1d)" d="
M74.2376 388.8
L75.1326 388.8
L75.1326 78.3889
L74.2376 78.3889
z
" style="fill:#126c73;"/>
   </g>
   <g id="patch_6">
    <path clip-path="url(#p7ff5b81e1d)" d="
M75.3564 388.8
L76.2514 388.8
L76.2514 95.1174
L75.3564 95.1174
z
" style="fill:#126c73;"/>
   </g>
   <g id="patch_7">
    <path clip-path="url(#p7ff5b81e1d)" d="
M76.4752 388.8
L77.3702 388.8
L77.3702 100.165
L76.4752 100.165
z
" style="fill:#126c73;"/>
   </g>
   <g id="patch_8">
    <path clip-path="url(#p7ff5b81e1d)" d="
M77.594 388.8
L78.489 388.8
L78.489 109.23
L77.594 109.23
z
" style="fill:#126c73;"/>
   </g>
   <g id="patch_9">
    <path clip-path="url(#p7ff5b81e1d)" d="
M78.7128 388.8
L79.6078 388.8
L79.6078 117.127
L78.7128 117.127
z
" style="fill:#126c73;"/>
   </g>
   <g id="patch_10">
    <path clip-path="url(#p7ff5b81e1d)" d="
M79.8316 388.8
L80.7266 388.8
L80.7266 120.186
L79.8316 120.186
z
" style="fill:#126c73;"/>
   </g>
   <g id="patch_11">
    <path clip-path="url(#p7ff5b81e1d)" d="
M80.9504 388.8
L81.8454 388.8
L81.8454 124.902
L80.9504 124.902
z
" style="fill:#126c73;"/>
   </g>
   <g id="patch_12">
    <path clip-path="url(#p7ff5b81e1d)" d="
M82.0692 388.8
L82.9642 388.8
L82.9642 130.736
L82.0692 130.736
z
" style="fill:#126c73;"/>
   </g>
   <g id="patch_13">
    <path clip-path="url(#p7ff5b81e1d)" d="
M83.188 388.8
L84.083 388.8
L84.083 136.693
L83.188 136.693
z
" style="fill:#126c73;"/>
   </g>
   <g id="patch_14">
    <path clip-path="url(#p7ff5b81e1d)" d="
M84.3068 388.8
L85.2018 388.8
L85.2018 143.608
L84.3068 143.608
z
" style="fill:#126c73;"/>
   </g>
   <g id="patch_15">
    <path clip-path="url(#p7ff5b81e1d)" d="
M85.4256 388.8
L86.3206 388.8
L86.3206 145.07
L85.4256 145.07
z
" style="fill:#126c73;"/>
   </g>
   <g id="patch_16">
    <path clip-path="url(#p7ff5b81e1d)" d="
M86.5444 388.8
L87.4394 388.8
L87.4394 145.106
L86.5444 145.106
z
" style="fill:#126c73;"/>
   </g>
   <g id="patch_17">
    <path clip-path="url(#p7ff5b81e1d)" d="
M87.6632 388.8
L88.5582 388.8
L88.5582 147.17
L87.6632 147.17
z
" style="fill:#126c73;"/>
   </g>
   <g id="patch_18">
    <path clip-path="url(#p7ff5b81e1d)" d="
M88.782 388.8
L89.677 388.8
L89.677 153.299
L88.782 153.299
z
" style="fill:#126c73;"/>
   </g>
   <g id="patch_19">
    <path clip-path="url(#p7ff5b81e1d)" d="
M89.9008 388.8
L90.7958 388.8
L90.7958 155.117
L89.9008 155.117
z
" style="fill:#126c73;"/>
   </g>
   <g id="patch_20">
    <path clip-path="url(#p7ff5b81e1d)" d="
M91.0195 388.8
L91.9146 388.8
L91.9146 163.653
L91.0195 163.653
z
" style="fill:#126c73;"/>
   </g>
   <g id="patch_21">
    <path clip-path="url(#p7ff5b81e1d)" d="
M92.1383 388.8
L93.0334 388.8
L93.0334 164.672
L92.1383 164.672
z
" style="fill:#126c73;"/>
   </g>
   <g id="patch_22">
    <path clip-path="url(#p7ff5b81e1d)" d="
M93.2571 388.8
L94.1522 388.8
L94.1522 164.82
L93.2571 164.82
z
" style="fill:#126c73;"/>
   </g>
   <g id="patch_23">
    <path clip-path="url(#p7ff5b81e1d)" d="
M94.3759 388.8
L95.271 388.8
L95.271 173.773
L94.3759 173.773
z
" style="fill:#126c73;"/>
   </g>
   <g id="patch_24">
    <path clip-path="url(#p7ff5b81e1d)" d="
M95.4947 388.8
L96.3898 388.8
L96.3898 176.598
L95.4947 176.598
z
" style="fill:#126c73;"/>
   </g>
   <g id="patch_25">
    <path clip-path="url(#p7ff5b81e1d)" d="
M96.6135 388.8
L97.5086 388.8
L97.5086 180.725
L96.6135 180.725
z
" style="fill:#126c73;"/>
   </g>
   <g id="patch_26">
    <path clip-path="url(#p7ff5b81e1d)" d="
M97.7323 388.8
L98.6274 388.8
L98.6274 190.391
L97.7323 190.391
z
" style="fill:#126c73;"/>
   </g>
   <g id="patch_27">
    <path clip-path="url(#p7ff5b81e1d)" d="
M98.8511 388.8
L99.7462 388.8
L99.7462 192.799
L98.8511 192.799
z
" style="fill:#126c73;"/>
   </g>
   <g id="patch_28">
    <path clip-path="url(#p7ff5b81e1d)" d="
M99.9699 388.8
L100.865 388.8
L100.865 193.978
L99.9699 193.978
z
" style="fill:#126c73;"/>
   </g>
   <g id="patch_29">
    <path clip-path="url(#p7ff5b81e1d)" d="
M101.089 388.8
L101.984 388.8
L101.984 198.866
L101.089 198.866
z
" style="fill:#126c73;"/>
   </g>
   <g id="patch_30">
    <path clip-path="url(#p7ff5b81e1d)" d="
M102.208 388.8
L103.103 388.8
L103.103 200.205
L102.208 200.205
z
" style="fill:#126c73;"/>
   </g>
   <g id="patch_31">
    <path clip-path="url(#p7ff5b81e1d)" d="
M103.326 388.8
L104.221 388.8
L104.221 200.721
L103.326 200.721
z
" style="fill:#126c73;"/>
   </g>
   <g id="patch_32">
    <path clip-path="url(#p7ff5b81e1d)" d="
M104.445 388.8
L105.34 388.8
L105.34 201.63
L104.445 201.63
z
" style="fill:#126c73;"/>
   </g>
   <g id="patch_33">
    <path clip-path="url(#p7ff5b81e1d)" d="
M105.564 388.8
L106.459 388.8
L106.459 206.96
L105.564 206.96
z
" style="fill:#126c73;"/>
   </g>
   <g id="patch_34">
    <path clip-path="url(#p7ff5b81e1d)" d="
M106.683 388.8
L107.578 388.8
L107.578 209.773
L106.683 209.773
z
" style="fill:#126c73;"/>
   </g>
   <g id="patch_35">
    <path clip-path="url(#p7ff5b81e1d)" d="
M107.802 388.8
L108.697 388.8
L108.697 210.166
L107.802 210.166
z
" style="fill:#126c73;"/>
   </g>
   <g id="patch_36">
    <path clip-path="url(#p7ff5b81e1d)" d="
M108.92 388.8
L109.815 388.8
L109.815 210.399
L108.92 210.399
z
" style="fill:#126c73;"/>
   </g>
   <g id="patch_37">
    <path clip-path="url(#p7ff5b81e1d)" d="
M110.039 388.8
L110.934 388.8
L110.934 210.448
L110.039 210.448
z
" style="fill:#126c73;"/>
   </g>
   <g id="patch_38">
    <path clip-path="url(#p7ff5b81e1d)" d="
M111.158 388.8
L112.053 388.8
L112.053 211.259
L111.158 211.259
z
" style="fill:#126c73;"/>
   </g>
   <g id="patch_39">
    <path clip-path="url(#p7ff5b81e1d)" d="
M112.277 388.8
L113.172 388.8
L113.172 214.268
L112.277 214.268
z
" style="fill:#126c73;"/>
   </g>
   <g id="patch_40">
    <path clip-path="url(#p7ff5b81e1d)" d="
M113.395 388.8
L114.291 388.8
L114.291 215.803
L113.395 215.803
z
" style="fill:#126c73;"/>
   </g>
   <g id="patch_41">
    <path clip-path="url(#p7ff5b81e1d)" d="
M114.514 388.8
L115.409 388.8
L115.409 216.454
L114.514 216.454
z
" style="fill:#126c73;"/>
   </g>
   <g id="patch_42">
    <path clip-path="url(#p7ff5b81e1d)" d="
M115.633 388.8
L116.528 388.8
L116.528 217.72
L115.633 217.72
z
" style="fill:#126c73;"/>
   </g>
   <g id="patch_43">
    <path clip-path="url(#p7ff5b81e1d)" d="
M116.752 388.8
L117.647 388.8
L117.647 225.543
L116.752 225.543
z
" style="fill:#126c73;"/>
   </g>
   <g id="patch_44">
    <path clip-path="url(#p7ff5b81e1d)" d="
M117.871 388.8
L118.766 388.8
L118.766 226.256
L117.871 226.256
z
" style="fill:#126c73;"/>
   </g>
   <g id="patch_45">
    <path clip-path="url(#p7ff5b81e1d)" d="
M118.989 388.8
L119.885 388.8
L119.885 226.452
L118.989 226.452
z
" style="fill:#126c73;"/>
   </g>
   <g id="patch_46">
    <path clip-path="url(#p7ff5b81e1d)" d="
M120.108 388.8
L121.003 388.8
L121.003 228.417
L120.108 228.417
z
" style="fill:#126c73;"/>
   </g>
   <g id="patch_47">
    <path clip-path="url(#p7ff5b81e1d)" d="
M121.227 388.8
L122.122 388.8
L122.122 228.896
L121.227 228.896
z
" style="fill:#126c73;"/>
   </g>
   <g id="patch_48">
    <path clip-path="url(#p7ff5b81e1d)" d="
M122.346 388.8
L123.241 388.8
L123.241 229.658
L122.346 229.658
z
" style="fill:#126c73;"/>
   </g>
   <g id="patch_49">
    <path clip-path="url(#p7ff5b81e1d)" d="
M123.465 388.8
L124.36 388.8
L124.36 234.583
L123.465 234.583
z
" style="fill:#126c73;"/>
   </g>
   <g id="patch_50">
    <path clip-path="url(#p7ff5b81e1d)" d="
M124.583 388.8
L125.478 388.8
L125.478 234.817
L124.583 234.817
z
" style="fill:#126c73;"/>
   </g>
   <g id="patch_51">
    <path clip-path="url(#p7ff5b81e1d)" d="
M125.702 388.8
L126.597 388.8
L126.597 240.552
L125.702 240.552
z
" style="fill:#126c73;"/>
   </g>
   <g id="patch_52">
    <path clip-path="url(#p7ff5b81e1d)" d="
M126.821 388.8
L127.716 388.8
L127.716 240.945
L126.821 240.945
z
" style="fill:#126c73;"/>
   </g>
   <g id="patch_53">
    <path clip-path="url(#p7ff5b81e1d)" d="
M127.94 388.8
L128.835 388.8
L128.835 244.36
L127.94 244.36
z
" style="fill:#126c73;"/>
   </g>
   <g id="patch_54">
    <path clip-path="url(#p7ff5b81e1d)" d="
M129.059 388.8
L129.954 388.8
L129.954 244.397
L129.059 244.397
z
" style="fill:#126c73;"/>
   </g>
   <g id="patch_55">
    <path clip-path="url(#p7ff5b81e1d)" d="
M130.177 388.8
L131.072 388.8
L131.072 244.9
L130.177 244.9
z
" style="fill:#126c73;"/>
   </g>
   <g id="patch_56">
    <path clip-path="url(#p7ff5b81e1d)" d="
M131.296 388.8
L132.191 388.8
L132.191 246.018
L131.296 246.018
z
" style="fill:#126c73;"/>
   </g>
   <g id="patch_57">
    <path clip-path="url(#p7ff5b81e1d)" d="
M132.415 388.8
L133.31 388.8
L133.31 252.675
L132.415 252.675
z
" style="fill:#126c73;"/>
   </g>
   <g id="patch_58">
    <path clip-path="url(#p7ff5b81e1d)" d="
M133.534 388.8
L134.429 388.8
L134.429 252.847
L133.534 252.847
z
" style="fill:#126c73;"/>
   </g>
   <g id="patch_59">
    <path clip-path="url(#p7ff5b81e1d)" d="
M134.653 388.8
L135.548 388.8
L135.548 253.191
L134.653 253.191
z
" style="fill:#126c73;"/>
   </g>
   <g id="patch_60">
    <path clip-path="url(#p7ff5b81e1d)" d="
M135.771 388.8
L136.666 388.8
L136.666 255.058
L135.771 255.058
z
" style="fill:#126c73;"/>
   </g>
   <g id="patch_61">
    <path clip-path="url(#p7ff5b81e1d)" d="
M136.89 388.8
L137.785 388.8
L137.785 259.529
L136.89 259.529
z
" style="fill:#126c73;"/>
   </g>
   <g id="patch_62">
    <path clip-path="url(#p7ff5b81e1d)" d="
M138.009 388.8
L138.904 388.8
L138.904 260.83
L138.009 260.83
z
" style="fill:#126c73;"/>
   </g>
   <g id="patch_63">
    <path clip-path="url(#p7ff5b81e1d)" d="
M139.128 388.8
L140.023 388.8
L140.023 263.483
L139.128 263.483
z
" style="fill:#126c73;"/>
   </g>
   <g id="patch_64">
    <path clip-path="url(#p7ff5b81e1d)" d="
M140.247 388.8
L141.142 388.8
L141.142 264.257
L140.247 264.257
z
" style="fill:#126c73;"/>
   </g>
   <g id="patch_65">
    <path clip-path="url(#p7ff5b81e1d)" d="
M141.365 388.8
L142.26 388.8
L142.26 264.478
L141.365 264.478
z
" style="fill:#126c73;"/>
   </g>
   <g id="patch_66">
    <path clip-path="url(#p7ff5b81e1d)" d="
M142.484 388.8
L143.379 388.8
L143.379 265.338
L142.484 265.338
z
" style="fill:#126c73;"/>
   </g>
   <g id="patch_67">
    <path clip-path="url(#p7ff5b81e1d)" d="
M143.603 388.8
L144.498 388.8
L144.498 265.866
L143.603 265.866
z
" style="fill:#126c73;"/>
   </g>
   <g id="patch_68">
    <path clip-path="url(#p7ff5b81e1d)" d="
M144.722 388.8
L145.617 388.8
L145.617 265.879
L144.722 265.879
z
" style="fill:#126c73;"/>
   </g>
   <g id="patch_69">
    <path clip-path="url(#p7ff5b81e1d)" d="
M145.841 388.8
L146.736 388.8
L146.736 267.967
L145.841 267.967
z
" style="fill:#126c73;"/>
   </g>
   <g id="patch_70">
    <path clip-path="url(#p7ff5b81e1d)" d="
M146.959 388.8
L147.854 388.8
L147.854 269.023
L146.959 269.023
z
" style="fill:#126c73;"/>
   </g>
   <g id="patch_71">
    <path clip-path="url(#p7ff5b81e1d)" d="
M148.078 388.8
L148.973 388.8
L148.973 269.76
L148.078 269.76
z
" style="fill:#126c73;"/>
   </g>
   <g id="patch_72">
    <path clip-path="url(#p7ff5b81e1d)" d="
M149.197 388.8
L150.092 388.8
L150.092 270.03
L149.197 270.03
z
" style="fill:#126c73;"/>
   </g>
   <g id="patch_73">
    <path clip-path="url(#p7ff5b81e1d)" d="
M150.316 388.8
L151.211 388.8
L151.211 270.079
L150.316 270.079
z
" style="fill:#126c73;"/>
   </g>
   <g id="patch_74">
    <path clip-path="url(#p7ff5b81e1d)" d="
M151.435 388.8
L152.33 388.8
L152.33 278.394
L151.435 278.394
z
" style="fill:#126c73;"/>
   </g>
   <g id="patch_75">
    <path clip-path="url(#p7ff5b81e1d)" d="
M152.553 388.8
L153.448 388.8
L153.448 281.379
L152.553 281.379
z
" style="fill:#126c73;"/>
   </g>
   <g id="patch_76">
    <path clip-path="url(#p7ff5b81e1d)" d="
M153.672 388.8
L154.567 388.8
L154.567 287.446
L153.672 287.446
z
" style="fill:#126c73;"/>
   </g>
   <g id="patch_77">
    <path clip-path="url(#p7ff5b81e1d)" d="
M154.791 388.8
L155.686 388.8
L155.686 292.863
L154.791 292.863
z
" style="fill:#126c73;"/>
   </g>
   <g id="patch_78">
    <path clip-path="url(#p7ff5b81e1d)" d="
M155.91 388.8
L156.805 388.8
L156.805 295.368
L155.91 295.368
z
" style="fill:#126c73;"/>
   </g>
   <g id="patch_79">
    <path clip-path="url(#p7ff5b81e1d)" d="
M157.029 388.8
L157.924 388.8
L157.924 295.381
L157.029 295.381
z
" style="fill:#126c73;"/>
   </g>
   <g id="patch_80">
    <path clip-path="url(#p7ff5b81e1d)" d="
M158.147 388.8
L159.042 388.8
L159.042 295.43
L158.147 295.43
z
" style="fill:#126c73;"/>
   </g>
   <g id="patch_81">
    <path clip-path="url(#p7ff5b81e1d)" d="
M159.266 388.8
L160.161 388.8
L160.161 298.685
L159.266 298.685
z
" style="fill:#126c73;"/>
   </g>
   <g id="patch_82">
    <path clip-path="url(#p7ff5b81e1d)" d="
M160.385 388.8
L161.28 388.8
L161.28 299.839
L160.385 299.839
z
" style="fill:#126c73;"/>
   </g>
   <g id="patch_83">
    <path clip-path="url(#p7ff5b81e1d)" d="
M161.504 388.8
L162.399 388.8
L162.399 301.313
L161.504 301.313
z
" style="fill:#126c73;"/>
   </g>
   <g id="patch_84">
    <path clip-path="url(#p7ff5b81e1d)" d="
M162.623 388.8
L163.518 388.8
L163.518 301.571
L162.623 301.571
z
" style="fill:#126c73;"/>
   </g>
   <g id="patch_85">
    <path clip-path="url(#p7ff5b81e1d)" d="
M163.741 388.8
L164.636 388.8
L164.636 303.892
L163.741 303.892
z
" style="fill:#126c73;"/>
   </g>
   <g id="patch_86">
    <path clip-path="url(#p7ff5b81e1d)" d="
M164.86 388.8
L165.755 388.8
L165.755 304.003
L164.86 304.003
z
" style="fill:#126c73;"/>
   </g>
   <g id="patch_87">
    <path clip-path="url(#p7ff5b81e1d)" d="
M165.979 388.8
L166.874 388.8
L166.874 305.268
L165.979 305.268
z
" style="fill:#126c73;"/>
   </g>
   <g id="patch_88">
    <path clip-path="url(#p7ff5b81e1d)" d="
M167.098 388.8
L167.993 388.8
L167.993 305.28
L167.098 305.28
z
" style="fill:#126c73;"/>
   </g>
   <g id="patch_89">
    <path clip-path="url(#p7ff5b81e1d)" d="
M168.217 388.8
L169.112 388.8
L169.112 305.464
L168.217 305.464
z
" style="fill:#126c73;"/>
   </g>
   <g id="patch_90">
    <path clip-path="url(#p7ff5b81e1d)" d="
M169.335 388.8
L170.23 388.8
L170.23 305.808
L169.335 305.808
z
" style="fill:#126c73;"/>
   </g>
   <g id="patch_91">
    <path clip-path="url(#p7ff5b81e1d)" d="
M170.454 388.8
L171.349 388.8
L171.349 306.484
L170.454 306.484
z
" style="fill:#126c73;"/>
   </g>
   <g id="patch_92">
    <path clip-path="url(#p7ff5b81e1d)" d="
M171.573 388.8
L172.468 388.8
L172.468 307.258
L171.573 307.258
z
" style="fill:#126c73;"/>
   </g>
   <g id="patch_93">
    <path clip-path="url(#p7ff5b81e1d)" d="
M172.692 388.8
L173.587 388.8
L173.587 310.365
L172.692 310.365
z
" style="fill:#126c73;"/>
   </g>
   <g id="patch_94">
    <path clip-path="url(#p7ff5b81e1d)" d="
M173.811 388.8
L174.706 388.8
L174.706 310.512
L173.811 310.512
z
" style="fill:#126c73;"/>
   </g>
   <g id="patch_95">
    <path clip-path="url(#p7ff5b81e1d)" d="
M174.929 388.8
L175.824 388.8
L175.824 312.834
L174.929 312.834
z
" style="fill:#126c73;"/>
   </g>
   <g id="patch_96">
    <path clip-path="url(#p7ff5b81e1d)" d="
M176.048 388.8
L176.943 388.8
L176.943 312.871
L176.048 312.871
z
" style="fill:#126c73;"/>
   </g>
   <g id="patch_97">
    <path clip-path="url(#p7ff5b81e1d)" d="
M177.167 388.8
L178.062 388.8
L178.062 314.566
L177.167 314.566
z
" style="fill:#126c73;"/>
   </g>
   <g id="patch_98">
    <path clip-path="url(#p7ff5b81e1d)" d="
M178.286 388.8
L179.181 388.8
L179.181 314.774
L178.286 314.774
z
" style="fill:#126c73;"/>
   </g>
   <g id="patch_99">
    <path clip-path="url(#p7ff5b81e1d)" d="
M179.405 388.8
L180.3 388.8
L180.3 315.155
L179.405 315.155
z
" style="fill:#126c73;"/>
   </g>
   <g id="patch_100">
    <path clip-path="url(#p7ff5b81e1d)" d="
M180.523 388.8
L181.418 388.8
L181.418 315.364
L180.523 315.364
z
" style="fill:#126c73;"/>
   </g>
   <g id="patch_101">
    <path clip-path="url(#p7ff5b81e1d)" d="
M181.642 388.8
L182.537 388.8
L182.537 316.666
L181.642 316.666
z
" style="fill:#126c73;"/>
   </g>
   <g id="patch_102">
    <path clip-path="url(#p7ff5b81e1d)" d="
M182.761 388.8
L183.656 388.8
L183.656 317.403
L182.761 317.403
z
" style="fill:#126c73;"/>
   </g>
   <g id="patch_103">
    <path clip-path="url(#p7ff5b81e1d)" d="
M183.88 388.8
L184.775 388.8
L184.775 317.833
L183.88 317.833
z
" style="fill:#126c73;"/>
   </g>
   <g id="patch_104">
    <path clip-path="url(#p7ff5b81e1d)" d="
M184.998 388.8
L185.894 388.8
L185.894 318.128
L184.998 318.128
z
" style="fill:#126c73;"/>
   </g>
   <g id="patch_105">
    <path clip-path="url(#p7ff5b81e1d)" d="
M186.117 388.8
L187.012 388.8
L187.012 319.405
L186.117 319.405
z
" style="fill:#126c73;"/>
   </g>
   <g id="patch_106">
    <path clip-path="url(#p7ff5b81e1d)" d="
M187.236 388.8
L188.131 388.8
L188.131 320.461
L187.236 320.461
z
" style="fill:#126c73;"/>
   </g>
   <g id="patch_107">
    <path clip-path="url(#p7ff5b81e1d)" d="
M188.355 388.8
L189.25 388.8
L189.25 320.596
L188.355 320.596
z
" style="fill:#126c73;"/>
   </g>
   <g id="patch_108">
    <path clip-path="url(#p7ff5b81e1d)" d="
M189.474 388.8
L190.369 388.8
L190.369 320.731
L189.474 320.731
z
" style="fill:#126c73;"/>
   </g>
   <g id="patch_109">
    <path clip-path="url(#p7ff5b81e1d)" d="
M190.592 388.8
L191.488 388.8
L191.488 322.389
L190.592 322.389
z
" style="fill:#126c73;"/>
   </g>
   <g id="patch_110">
    <path clip-path="url(#p7ff5b81e1d)" d="
M191.711 388.8
L192.606 388.8
L192.606 324.674
L191.711 324.674
z
" style="fill:#126c73;"/>
   </g>
   <g id="patch_111">
    <path clip-path="url(#p7ff5b81e1d)" d="
M192.83 388.8
L193.725 388.8
L193.725 325.018
L192.83 325.018
z
" style="fill:#126c73;"/>
   </g>
   <g id="patch_112">
    <path clip-path="url(#p7ff5b81e1d)" d="
M193.949 388.8
L194.844 388.8
L194.844 325.46
L193.949 325.46
z
" style="fill:#126c73;"/>
   </g>
   <g id="patch_113">
    <path clip-path="url(#p7ff5b81e1d)" d="
M195.068 388.8
L195.963 388.8
L195.963 326.602
L195.068 326.602
z
" style="fill:#126c73;"/>
   </g>
   <g id="patch_114">
    <path clip-path="url(#p7ff5b81e1d)" d="
M196.186 388.8
L197.082 388.8
L197.082 330.275
L196.186 330.275
z
" style="fill:#126c73;"/>
   </g>
   <g id="patch_115">
    <path clip-path="url(#p7ff5b81e1d)" d="
M197.305 388.8
L198.2 388.8
L198.2 330.508
L197.305 330.508
z
" style="fill:#126c73;"/>
   </g>
   <g id="patch_116">
    <path clip-path="url(#p7ff5b81e1d)" d="
M198.424 388.8
L199.319 388.8
L199.319 330.57
L198.424 330.57
z
" style="fill:#126c73;"/>
   </g>
   <g id="patch_117">
    <path clip-path="url(#p7ff5b81e1d)" d="
M199.543 388.8
L200.438 388.8
L200.438 332.35
L199.543 332.35
z
" style="fill:#126c73;"/>
   </g>
   <g id="patch_118">
    <path clip-path="url(#p7ff5b81e1d)" d="
M200.662 388.8
L201.557 388.8
L201.557 332.584
L200.662 332.584
z
" style="fill:#126c73;"/>
   </g>
   <g id="patch_119">
    <path clip-path="url(#p7ff5b81e1d)" d="
M201.78 388.8
L202.675 388.8
L202.675 332.805
L201.78 332.805
z
" style="fill:#126c73;"/>
   </g>
   <g id="patch_120">
    <path clip-path="url(#p7ff5b81e1d)" d="
M202.899 388.8
L203.794 388.8
L203.794 332.866
L202.899 332.866
z
" style="fill:#126c73;"/>
   </g>
   <g id="patch_121">
    <path clip-path="url(#p7ff5b81e1d)" d="
M204.018 388.8
L204.913 388.8
L204.913 332.928
L204.018 332.928
z
" style="fill:#126c73;"/>
   </g>
   <g id="patch_122">
    <path clip-path="url(#p7ff5b81e1d)" d="
M205.137 388.8
L206.032 388.8
L206.032 333.222
L205.137 333.222
z
" style="fill:#126c73;"/>
   </g>
   <g id="patch_123">
    <path clip-path="url(#p7ff5b81e1d)" d="
M206.256 388.8
L207.151 388.8
L207.151 334.193
L206.256 334.193
z
" style="fill:#126c73;"/>
   </g>
   <g id="patch_124">
    <path clip-path="url(#p7ff5b81e1d)" d="
M207.374 388.8
L208.269 388.8
L208.269 335.126
L207.374 335.126
z
" style="fill:#126c73;"/>
   </g>
   <g id="patch_125">
    <path clip-path="url(#p7ff5b81e1d)" d="
M208.493 388.8
L209.388 388.8
L209.388 336.49
L208.493 336.49
z
" style="fill:#126c73;"/>
   </g>
   <g id="patch_126">
    <path clip-path="url(#p7ff5b81e1d)" d="
M209.612 388.8
L210.507 388.8
L210.507 336.563
L209.612 336.563
z
" style="fill:#126c73;"/>
   </g>
   <g id="patch_127">
    <path clip-path="url(#p7ff5b81e1d)" d="
M210.731 388.8
L211.626 388.8
L211.626 336.563
L210.731 336.563
z
" style="fill:#126c73;"/>
   </g>
   <g id="patch_128">
    <path clip-path="url(#p7ff5b81e1d)" d="
M211.85 388.8
L212.745 388.8
L212.745 336.981
L211.85 336.981
z
" style="fill:#126c73;"/>
   </g>
   <g id="patch_129">
    <path clip-path="url(#p7ff5b81e1d)" d="
M212.968 388.8
L213.863 388.8
L213.863 339.388
L212.968 339.388
z
" style="fill:#126c73;"/>
   </g>
   <g id="patch_130">
    <path clip-path="url(#p7ff5b81e1d)" d="
M214.087 388.8
L214.982 388.8
L214.982 339.794
L214.087 339.794
z
" style="fill:#126c73;"/>
   </g>
   <g id="patch_131">
    <path clip-path="url(#p7ff5b81e1d)" d="
M215.206 388.8
L216.101 388.8
L216.101 340.088
L215.206 340.088
z
" style="fill:#126c73;"/>
   </g>
   <g id="patch_132">
    <path clip-path="url(#p7ff5b81e1d)" d="
M216.325 388.8
L217.22 388.8
L217.22 340.973
L216.325 340.973
z
" style="fill:#126c73;"/>
   </g>
   <g id="patch_133">
    <path clip-path="url(#p7ff5b81e1d)" d="
M217.444 388.8
L218.339 388.8
L218.339 341.071
L217.444 341.071
z
" style="fill:#126c73;"/>
   </g>
   <g id="patch_134">
    <path clip-path="url(#p7ff5b81e1d)" d="
M218.562 388.8
L219.457 388.8
L219.457 341.206
L218.562 341.206
z
" style="fill:#126c73;"/>
   </g>
   <g id="patch_135">
    <path clip-path="url(#p7ff5b81e1d)" d="
M219.681 388.8
L220.576 388.8
L220.576 341.304
L219.681 341.304
z
" style="fill:#126c73;"/>
   </g>
   <g id="patch_136">
    <path clip-path="url(#p7ff5b81e1d)" d="
M220.8 388.8
L221.695 388.8
L221.695 342.41
L220.8 342.41
z
" style="fill:#126c73;"/>
   </g>
   <g id="patch_137">
    <path clip-path="url(#p7ff5b81e1d)" d="
M221.919 388.8
L222.814 388.8
L222.814 342.569
L221.919 342.569
z
" style="fill:#126c73;"/>
   </g>
   <g id="patch_138">
    <path clip-path="url(#p7ff5b81e1d)" d="
M223.038 388.8
L223.933 388.8
L223.933 342.84
L223.038 342.84
z
" style="fill:#126c73;"/>
   </g>
   <g id="patch_139">
    <path clip-path="url(#p7ff5b81e1d)" d="
M224.156 388.8
L225.051 388.8
L225.051 342.938
L224.156 342.938
z
" style="fill:#126c73;"/>
   </g>
   <g id="patch_140">
    <path clip-path="url(#p7ff5b81e1d)" d="
M225.275 388.8
L226.17 388.8
L226.17 343.036
L225.275 343.036
z
" style="fill:#126c73;"/>
   </g>
   <g id="patch_141">
    <path clip-path="url(#p7ff5b81e1d)" d="
M226.394 388.8
L227.289 388.8
L227.289 343.822
L226.394 343.822
z
" style="fill:#126c73;"/>
   </g>
   <g id="patch_142">
    <path clip-path="url(#p7ff5b81e1d)" d="
M227.513 388.8
L228.408 388.8
L228.408 343.945
L227.513 343.945
z
" style="fill:#126c73;"/>
   </g>
   <g id="patch_143">
    <path clip-path="url(#p7ff5b81e1d)" d="
M228.632 388.8
L229.527 388.8
L229.527 344.719
L228.632 344.719
z
" style="fill:#126c73;"/>
   </g>
   <g id="patch_144">
    <path clip-path="url(#p7ff5b81e1d)" d="
M229.75 388.8
L230.645 388.8
L230.645 345.738
L229.75 345.738
z
" style="fill:#126c73;"/>
   </g>
   <g id="patch_145">
    <path clip-path="url(#p7ff5b81e1d)" d="
M230.869 388.8
L231.764 388.8
L231.764 345.787
L230.869 345.787
z
" style="fill:#126c73;"/>
   </g>
   <g id="patch_146">
    <path clip-path="url(#p7ff5b81e1d)" d="
M231.988 388.8
L232.883 388.8
L232.883 345.947
L231.988 345.947
z
" style="fill:#126c73;"/>
   </g>
   <g id="patch_147">
    <path clip-path="url(#p7ff5b81e1d)" d="
M233.107 388.8
L234.002 388.8
L234.002 346.021
L233.107 346.021
z
" style="fill:#126c73;"/>
   </g>
   <g id="patch_148">
    <path clip-path="url(#p7ff5b81e1d)" d="
M234.226 388.8
L235.121 388.8
L235.121 347.052
L234.226 347.052
z
" style="fill:#126c73;"/>
   </g>
   <g id="patch_149">
    <path clip-path="url(#p7ff5b81e1d)" d="
M235.344 388.8
L236.239 388.8
L236.239 347.089
L235.344 347.089
z
" style="fill:#126c73;"/>
   </g>
   <g id="patch_150">
    <path clip-path="url(#p7ff5b81e1d)" d="
M236.463 388.8
L237.358 388.8
L237.358 347.249
L236.463 347.249
z
" style="fill:#126c73;"/>
   </g>
   <g id="patch_151">
    <path clip-path="url(#p7ff5b81e1d)" d="
M237.582 388.8
L238.477 388.8
L238.477 347.581
L237.582 347.581
z
" style="fill:#126c73;"/>
   </g>
   <g id="patch_152">
    <path clip-path="url(#p7ff5b81e1d)" d="
M238.701 388.8
L239.596 388.8
L239.596 347.581
L238.701 347.581
z
" style="fill:#126c73;"/>
   </g>
   <g id="patch_153">
    <path clip-path="url(#p7ff5b81e1d)" d="
M239.82 388.8
L240.715 388.8
L240.715 347.765
L239.82 347.765
z
" style="fill:#126c73;"/>
   </g>
   <g id="patch_154">
    <path clip-path="url(#p7ff5b81e1d)" d="
M240.938 388.8
L241.833 388.8
L241.833 347.814
L240.938 347.814
z
" style="fill:#126c73;"/>
   </g>
   <g id="patch_155">
    <path clip-path="url(#p7ff5b81e1d)" d="
M242.057 388.8
L242.952 388.8
L242.952 347.838
L242.057 347.838
z
" style="fill:#126c73;"/>
   </g>
   <g id="patch_156">
    <path clip-path="url(#p7ff5b81e1d)" d="
M243.176 388.8
L244.071 388.8
L244.071 348.133
L243.176 348.133
z
" style="fill:#126c73;"/>
   </g>
   <g id="patch_157">
    <path clip-path="url(#p7ff5b81e1d)" d="
M244.295 388.8
L245.19 388.8
L245.19 348.453
L244.295 348.453
z
" style="fill:#126c73;"/>
   </g>
   <g id="patch_158">
    <path clip-path="url(#p7ff5b81e1d)" d="
M245.414 388.8
L246.309 388.8
L246.309 348.87
L245.414 348.87
z
" style="fill:#126c73;"/>
   </g>
   <g id="patch_159">
    <path clip-path="url(#p7ff5b81e1d)" d="
M246.532 388.8
L247.427 388.8
L247.427 348.956
L246.532 348.956
z
" style="fill:#126c73;"/>
   </g>
   <g id="patch_160">
    <path clip-path="url(#p7ff5b81e1d)" d="
M247.651 388.8
L248.546 388.8
L248.546 349.19
L247.651 349.19
z
" style="fill:#126c73;"/>
   </g>
   <g id="patch_161">
    <path clip-path="url(#p7ff5b81e1d)" d="
M248.77 388.8
L249.665 388.8
L249.665 349.669
L248.77 349.669
z
" style="fill:#126c73;"/>
   </g>
   <g id="patch_162">
    <path clip-path="url(#p7ff5b81e1d)" d="
M249.889 388.8
L250.784 388.8
L250.784 349.669
L249.889 349.669
z
" style="fill:#126c73;"/>
   </g>
   <g id="patch_163">
    <path clip-path="url(#p7ff5b81e1d)" d="
M251.008 388.8
L251.903 388.8
L251.903 350.172
L251.008 350.172
z
" style="fill:#126c73;"/>
   </g>
   <g id="patch_164">
    <path clip-path="url(#p7ff5b81e1d)" d="
M252.126 388.8
L253.021 388.8
L253.021 350.577
L252.126 350.577
z
" style="fill:#126c73;"/>
   </g>
   <g id="patch_165">
    <path clip-path="url(#p7ff5b81e1d)" d="
M253.245 388.8
L254.14 388.8
L254.14 351.314
L253.245 351.314
z
" style="fill:#126c73;"/>
   </g>
   <g id="patch_166">
    <path clip-path="url(#p7ff5b81e1d)" d="
M254.364 388.8
L255.259 388.8
L255.259 351.449
L254.364 351.449
z
" style="fill:#126c73;"/>
   </g>
   <g id="patch_167">
    <path clip-path="url(#p7ff5b81e1d)" d="
M255.483 388.8
L256.378 388.8
L256.378 351.978
L255.483 351.978
z
" style="fill:#126c73;"/>
   </g>
   <g id="patch_168">
    <path clip-path="url(#p7ff5b81e1d)" d="
M256.602 388.8
L257.497 388.8
L257.497 352.322
L256.602 352.322
z
" style="fill:#126c73;"/>
   </g>
   <g id="patch_169">
    <path clip-path="url(#p7ff5b81e1d)" d="
M257.72 388.8
L258.615 388.8
L258.615 352.457
L257.72 352.457
z
" style="fill:#126c73;"/>
   </g>
   <g id="patch_170">
    <path clip-path="url(#p7ff5b81e1d)" d="
M258.839 388.8
L259.734 388.8
L259.734 353.034
L258.839 353.034
z
" style="fill:#126c73;"/>
   </g>
   <g id="patch_171">
    <path clip-path="url(#p7ff5b81e1d)" d="
M259.958 388.8
L260.853 388.8
L260.853 353.071
L259.958 353.071
z
" style="fill:#126c73;"/>
   </g>
   <g id="patch_172">
    <path clip-path="url(#p7ff5b81e1d)" d="
M261.077 388.8
L261.972 388.8
L261.972 353.292
L261.077 353.292
z
" style="fill:#126c73;"/>
   </g>
   <g id="patch_173">
    <path clip-path="url(#p7ff5b81e1d)" d="
M262.195 388.8
L263.091 388.8
L263.091 355.957
L262.195 355.957
z
" style="fill:#126c73;"/>
   </g>
   <g id="patch_174">
    <path clip-path="url(#p7ff5b81e1d)" d="
M263.314 388.8
L264.209 388.8
L264.209 355.982
L263.314 355.982
z
" style="fill:#126c73;"/>
   </g>
   <g id="patch_175">
    <path clip-path="url(#p7ff5b81e1d)" d="
M264.433 388.8
L265.328 388.8
L265.328 356.412
L264.433 356.412
z
" style="fill:#126c73;"/>
   </g>
   <g id="patch_176">
    <path clip-path="url(#p7ff5b81e1d)" d="
M265.552 388.8
L266.447 388.8
L266.447 356.51
L265.552 356.51
z
" style="fill:#126c73;"/>
   </g>
   <g id="patch_177">
    <path clip-path="url(#p7ff5b81e1d)" d="
M266.671 388.8
L267.566 388.8
L267.566 356.682
L266.671 356.682
z
" style="fill:#126c73;"/>
   </g>
   <g id="patch_178">
    <path clip-path="url(#p7ff5b81e1d)" d="
M267.789 388.8
L268.685 388.8
L268.685 356.755
L267.789 356.755
z
" style="fill:#126c73;"/>
   </g>
   <g id="patch_179">
    <path clip-path="url(#p7ff5b81e1d)" d="
M268.908 388.8
L269.803 388.8
L269.803 356.829
L268.908 356.829
z
" style="fill:#126c73;"/>
   </g>
   <g id="patch_180">
    <path clip-path="url(#p7ff5b81e1d)" d="
M270.027 388.8
L270.922 388.8
L270.922 358.143
L270.027 358.143
z
" style="fill:#126c73;"/>
   </g>
   <g id="patch_181">
    <path clip-path="url(#p7ff5b81e1d)" d="
M271.146 388.8
L272.041 388.8
L272.041 358.18
L271.146 358.18
z
" style="fill:#126c73;"/>
   </g>
   <g id="patch_182">
    <path clip-path="url(#p7ff5b81e1d)" d="
M272.265 388.8
L273.16 388.8
L273.16 358.745
L272.265 358.745
z
" style="fill:#126c73;"/>
   </g>
   <g id="patch_183">
    <path clip-path="url(#p7ff5b81e1d)" d="
M273.383 388.8
L274.278 388.8
L274.278 359.421
L273.383 359.421
z
" style="fill:#126c73;"/>
   </g>
   <g id="patch_184">
    <path clip-path="url(#p7ff5b81e1d)" d="
M274.502 388.8
L275.397 388.8
L275.397 360.231
L274.502 360.231
z
" style="fill:#126c73;"/>
   </g>
   <g id="patch_185">
    <path clip-path="url(#p7ff5b81e1d)" d="
M275.621 388.8
L276.516 388.8
L276.516 360.502
L275.621 360.502
z
" style="fill:#126c73;"/>
   </g>
   <g id="patch_186">
    <path clip-path="url(#p7ff5b81e1d)" d="
M276.74 388.8
L277.635 388.8
L277.635 360.686
L276.74 360.686
z
" style="fill:#126c73;"/>
   </g>
   <g id="patch_187">
    <path clip-path="url(#p7ff5b81e1d)" d="
M277.859 388.8
L278.754 388.8
L278.754 361.116
L277.859 361.116
z
" style="fill:#126c73;"/>
   </g>
   <g id="patch_188">
    <path clip-path="url(#p7ff5b81e1d)" d="
M278.977 388.8
L279.872 388.8
L279.872 361.202
L278.977 361.202
z
" style="fill:#126c73;"/>
   </g>
   <g id="patch_189">
    <path clip-path="url(#p7ff5b81e1d)" d="
M280.096 388.8
L280.991 388.8
L280.991 361.816
L280.096 361.816
z
" style="fill:#126c73;"/>
   </g>
   <g id="patch_190">
    <path clip-path="url(#p7ff5b81e1d)" d="
M281.215 388.8
L282.11 388.8
L282.11 361.853
L281.215 361.853
z
" style="fill:#126c73;"/>
   </g>
   <g id="patch_191">
    <path clip-path="url(#p7ff5b81e1d)" d="
M282.334 388.8
L283.229 388.8
L283.229 362.123
L282.334 362.123
z
" style="fill:#126c73;"/>
   </g>
   <g id="patch_192">
    <path clip-path="url(#p7ff5b81e1d)" d="
M283.453 388.8
L284.348 388.8
L284.348 362.798
L283.453 362.798
z
" style="fill:#126c73;"/>
   </g>
   <g id="patch_193">
    <path clip-path="url(#p7ff5b81e1d)" d="
M284.571 388.8
L285.466 388.8
L285.466 363.24
L284.571 363.24
z
" style="fill:#126c73;"/>
   </g>
   <g id="patch_194">
    <path clip-path="url(#p7ff5b81e1d)" d="
M285.69 388.8
L286.585 388.8
L286.585 363.449
L285.69 363.449
z
" style="fill:#126c73;"/>
   </g>
   <g id="patch_195">
    <path clip-path="url(#p7ff5b81e1d)" d="
M286.809 388.8
L287.704 388.8
L287.704 364.739
L286.809 364.739
z
" style="fill:#126c73;"/>
   </g>
   <g id="patch_196">
    <path clip-path="url(#p7ff5b81e1d)" d="
M287.928 388.8
L288.823 388.8
L288.823 366.041
L287.928 366.041
z
" style="fill:#126c73;"/>
   </g>
   <g id="patch_197">
    <path clip-path="url(#p7ff5b81e1d)" d="
M289.047 388.8
L289.942 388.8
L289.942 366.36
L289.047 366.36
z
" style="fill:#126c73;"/>
   </g>
   <g id="patch_198">
    <path clip-path="url(#p7ff5b81e1d)" d="
M290.165 388.8
L291.06 388.8
L291.06 367.159
L290.165 367.159
z
" style="fill:#126c73;"/>
   </g>
   <g id="patch_199">
    <path clip-path="url(#p7ff5b81e1d)" d="
M291.284 388.8
L292.179 388.8
L292.179 367.822
L291.284 367.822
z
" style="fill:#126c73;"/>
   </g>
   <g id="patch_200">
    <path clip-path="url(#p7ff5b81e1d)" d="
M292.403 388.8
L293.298 388.8
L293.298 368.313
L292.403 368.313
z
" style="fill:#126c73;"/>
   </g>
   <g id="patch_201">
    <path clip-path="url(#p7ff5b81e1d)" d="
M293.522 388.8
L294.417 388.8
L294.417 369.885
L293.522 369.885
z
" style="fill:#126c73;"/>
   </g>
   <g id="patch_202">
    <path clip-path="url(#p7ff5b81e1d)" d="
M294.641 388.8
L295.536 388.8
L295.536 369.959
L294.641 369.959
z
" style="fill:#126c73;"/>
   </g>
   <g id="patch_203">
    <path clip-path="url(#p7ff5b81e1d)" d="
M295.759 388.8
L296.654 388.8
L296.654 369.971
L295.759 369.971
z
" style="fill:#126c73;"/>
   </g>
   <g id="patch_204">
    <path clip-path="url(#p7ff5b81e1d)" d="
M296.878 388.8
L297.773 388.8
L297.773 371.027
L296.878 371.027
z
" style="fill:#126c73;"/>
   </g>
   <g id="patch_205">
    <path clip-path="url(#p7ff5b81e1d)" d="
M297.997 388.8
L298.892 388.8
L298.892 371.912
L297.997 371.912
z
" style="fill:#126c73;"/>
   </g>
   <g id="patch_206">
    <path clip-path="url(#p7ff5b81e1d)" d="
M299.116 388.8
L300.011 388.8
L300.011 372.157
L299.116 372.157
z
" style="fill:#126c73;"/>
   </g>
   <g id="patch_207">
    <path clip-path="url(#p7ff5b81e1d)" d="
M300.235 388.8
L301.13 388.8
L301.13 372.514
L300.235 372.514
z
" style="fill:#126c73;"/>
   </g>
   <g id="patch_208">
    <path clip-path="url(#p7ff5b81e1d)" d="
M301.353 388.8
L302.248 388.8
L302.248 372.772
L301.353 372.772
z
" style="fill:#126c73;"/>
   </g>
   <g id="patch_209">
    <path clip-path="url(#p7ff5b81e1d)" d="
M302.472 388.8
L303.367 388.8
L303.367 372.993
L302.472 372.993
z
" style="fill:#126c73;"/>
   </g>
   <g id="patch_210">
    <path clip-path="url(#p7ff5b81e1d)" d="
M303.591 388.8
L304.486 388.8
L304.486 373.177
L303.591 373.177
z
" style="fill:#126c73;"/>
   </g>
   <g id="patch_211">
    <path clip-path="url(#p7ff5b81e1d)" d="
M304.71 388.8
L305.605 388.8
L305.605 373.312
L304.71 373.312
z
" style="fill:#126c73;"/>
   </g>
   <g id="patch_212">
    <path clip-path="url(#p7ff5b81e1d)" d="
M305.829 388.8
L306.724 388.8
L306.724 373.312
L305.829 373.312
z
" style="fill:#126c73;"/>
   </g>
   <g id="patch_213">
    <path clip-path="url(#p7ff5b81e1d)" d="
M306.947 388.8
L307.842 388.8
L307.842 373.361
L306.947 373.361
z
" style="fill:#126c73;"/>
   </g>
   <g id="patch_214">
    <path clip-path="url(#p7ff5b81e1d)" d="
M308.066 388.8
L308.961 388.8
L308.961 373.644
L308.066 373.644
z
" style="fill:#126c73;"/>
   </g>
   <g id="patch_215">
    <path clip-path="url(#p7ff5b81e1d)" d="
M309.185 388.8
L310.08 388.8
L310.08 373.693
L309.185 373.693
z
" style="fill:#126c73;"/>
   </g>
   <g id="patch_216">
    <path clip-path="url(#p7ff5b81e1d)" d="
M310.304 388.8
L311.199 388.8
L311.199 374.307
L310.304 374.307
z
" style="fill:#126c73;"/>
   </g>
   <g id="patch_217">
    <path clip-path="url(#p7ff5b81e1d)" d="
M311.423 388.8
L312.318 388.8
L312.318 374.43
L311.423 374.43
z
" style="fill:#126c73;"/>
   </g>
   <g id="patch_218">
    <path clip-path="url(#p7ff5b81e1d)" d="
M312.541 388.8
L313.436 388.8
L313.436 374.442
L312.541 374.442
z
" style="fill:#126c73;"/>
   </g>
   <g id="patch_219">
    <path clip-path="url(#p7ff5b81e1d)" d="
M313.66 388.8
L314.555 388.8
L314.555 375.56
L313.66 375.56
z
" style="fill:#126c73;"/>
   </g>
   <g id="patch_220">
    <path clip-path="url(#p7ff5b81e1d)" d="
M314.779 388.8
L315.674 388.8
L315.674 375.719
L314.779 375.719
z
" style="fill:#126c73;"/>
   </g>
   <g id="patch_221">
    <path clip-path="url(#p7ff5b81e1d)" d="
M315.898 388.8
L316.793 388.8
L316.793 375.842
L315.898 375.842
z
" style="fill:#126c73;"/>
   </g>
   <g id="patch_222">
    <path clip-path="url(#p7ff5b81e1d)" d="
M317.017 388.8
L317.912 388.8
L317.912 376.026
L317.017 376.026
z
" style="fill:#126c73;"/>
   </g>
   <g id="patch_223">
    <path clip-path="url(#p7ff5b81e1d)" d="
M318.135 388.8
L319.03 388.8
L319.03 376.407
L318.135 376.407
z
" style="fill:#126c73;"/>
   </g>
   <g id="patch_224">
    <path clip-path="url(#p7ff5b81e1d)" d="
M319.254 388.8
L320.149 388.8
L320.149 376.653
L319.254 376.653
z
" style="fill:#126c73;"/>
   </g>
   <g id="patch_225">
    <path clip-path="url(#p7ff5b81e1d)" d="
M320.373 388.8
L321.268 388.8
L321.268 376.935
L320.373 376.935
z
" style="fill:#126c73;"/>
   </g>
   <g id="patch_226">
    <path clip-path="url(#p7ff5b81e1d)" d="
M321.492 388.8
L322.387 388.8
L322.387 376.997
L321.492 376.997
z
" style="fill:#126c73;"/>
   </g>
   <g id="patch_227">
    <path clip-path="url(#p7ff5b81e1d)" d="
M322.611 388.8
L323.506 388.8
L323.506 377.12
L322.611 377.12
z
" style="fill:#126c73;"/>
   </g>
   <g id="patch_228">
    <path clip-path="url(#p7ff5b81e1d)" d="
M323.729 388.8
L324.624 388.8
L324.624 377.181
L323.729 377.181
z
" style="fill:#126c73;"/>
   </g>
   <g id="patch_229">
    <path clip-path="url(#p7ff5b81e1d)" d="
M324.848 388.8
L325.743 388.8
L325.743 377.193
L324.848 377.193
z
" style="fill:#126c73;"/>
   </g>
   <g id="patch_230">
    <path clip-path="url(#p7ff5b81e1d)" d="
M325.967 388.8
L326.862 388.8
L326.862 377.648
L325.967 377.648
z
" style="fill:#126c73;"/>
   </g>
   <g id="patch_231">
    <path clip-path="url(#p7ff5b81e1d)" d="
M327.086 388.8
L327.981 388.8
L327.981 377.746
L327.086 377.746
z
" style="fill:#126c73;"/>
   </g>
   <g id="patch_232">
    <path clip-path="url(#p7ff5b81e1d)" d="
M328.205 388.8
L329.1 388.8
L329.1 378.028
L328.205 378.028
z
" style="fill:#126c73;"/>
   </g>
   <g id="patch_233">
    <path clip-path="url(#p7ff5b81e1d)" d="
M329.323 388.8
L330.218 388.8
L330.218 378.053
L329.323 378.053
z
" style="fill:#126c73;"/>
   </g>
   <g id="patch_234">
    <path clip-path="url(#p7ff5b81e1d)" d="
M330.442 388.8
L331.337 388.8
L331.337 378.065
L330.442 378.065
z
" style="fill:#126c73;"/>
   </g>
   <g id="patch_235">
    <path clip-path="url(#p7ff5b81e1d)" d="
M331.561 388.8
L332.456 388.8
L332.456 378.078
L331.561 378.078
z
" style="fill:#126c73;"/>
   </g>
   <g id="patch_236">
    <path clip-path="url(#p7ff5b81e1d)" d="
M332.68 388.8
L333.575 388.8
L333.575 378.176
L332.68 378.176
z
" style="fill:#126c73;"/>
   </g>
   <g id="patch_237">
    <path clip-path="url(#p7ff5b81e1d)" d="
M333.798 388.8
L334.694 388.8
L334.694 378.323
L333.798 378.323
z
" style="fill:#126c73;"/>
   </g>
   <g id="patch_238">
    <path clip-path="url(#p7ff5b81e1d)" d="
M334.917 388.8
L335.812 388.8
L335.812 378.483
L334.917 378.483
z
" style="fill:#126c73;"/>
   </g>
   <g id="patch_239">
    <path clip-path="url(#p7ff5b81e1d)" d="
M336.036 388.8
L336.931 388.8
L336.931 378.593
L336.036 378.593
z
" style="fill:#126c73;"/>
   </g>
   <g id="patch_240">
    <path clip-path="url(#p7ff5b81e1d)" d="
M337.155 388.8
L338.05 388.8
L338.05 378.593
L337.155 378.593
z
" style="fill:#126c73;"/>
   </g>
   <g id="patch_241">
    <path clip-path="url(#p7ff5b81e1d)" d="
M338.274 388.8
L339.169 388.8
L339.169 378.925
L338.274 378.925
z
" style="fill:#126c73;"/>
   </g>
   <g id="patch_242">
    <path clip-path="url(#p7ff5b81e1d)" d="
M339.392 388.8
L340.288 388.8
L340.288 378.95
L339.392 378.95
z
" style="fill:#126c73;"/>
   </g>
   <g id="patch_243">
    <path clip-path="url(#p7ff5b81e1d)" d="
M340.511 388.8
L341.406 388.8
L341.406 378.974
L340.511 378.974
z
" style="fill:#126c73;"/>
   </g>
   <g id="patch_244">
    <path clip-path="url(#p7ff5b81e1d)" d="
M341.63 388.8
L342.525 388.8
L342.525 379.158
L341.63 379.158
z
" style="fill:#126c73;"/>
   </g>
   <g id="patch_245">
    <path clip-path="url(#p7ff5b81e1d)" d="
M342.749 388.8
L343.644 388.8
L343.644 379.195
L342.749 379.195
z
" style="fill:#126c73;"/>
   </g>
   <g id="patch_246">
    <path clip-path="url(#p7ff5b81e1d)" d="
M343.868 388.8
L344.763 388.8
L344.763 379.281
L343.868 379.281
z
" style="fill:#126c73;"/>
   </g>
   <g id="patch_247">
    <path clip-path="url(#p7ff5b81e1d)" d="
M344.986 388.8
L345.882 388.8
L345.882 379.367
L344.986 379.367
z
" style="fill:#126c73;"/>
   </g>
   <g id="patch_248">
    <path clip-path="url(#p7ff5b81e1d)" d="
M346.105 388.8
L347 388.8
L347 379.576
L346.105 379.576
z
" style="fill:#126c73;"/>
   </g>
   <g id="patch_249">
    <path clip-path="url(#p7ff5b81e1d)" d="
M347.224 388.8
L348.119 388.8
L348.119 379.576
L347.224 379.576
z
" style="fill:#126c73;"/>
   </g>
   <g id="patch_250">
    <path clip-path="url(#p7ff5b81e1d)" d="
M348.343 388.8
L349.238 388.8
L349.238 379.785
L348.343 379.785
z
" style="fill:#126c73;"/>
   </g>
   <g id="patch_251">
    <path clip-path="url(#p7ff5b81e1d)" d="
M349.462 388.8
L350.357 388.8
L350.357 379.809
L349.462 379.809
z
" style="fill:#126c73;"/>
   </g>
   <g id="patch_252">
    <path clip-path="url(#p7ff5b81e1d)" d="
M350.58 388.8
L351.475 388.8
L351.475 379.969
L350.58 379.969
z
" style="fill:#126c73;"/>
   </g>
   <g id="patch_253">
    <path clip-path="url(#p7ff5b81e1d)" d="
M351.699 388.8
L352.594 388.8
L352.594 380.055
L351.699 380.055
z
" style="fill:#126c73;"/>
   </g>
   <g id="patch_254">
    <path clip-path="url(#p7ff5b81e1d)" d="
M352.818 388.8
L353.713 388.8
L353.713 380.252
L352.818 380.252
z
" style="fill:#126c73;"/>
   </g>
   <g id="patch_255">
    <path clip-path="url(#p7ff5b81e1d)" d="
M353.937 388.8
L354.832 388.8
L354.832 380.252
L353.937 380.252
z
" style="fill:#126c73;"/>
   </g>
   <g id="patch_256">
    <path clip-path="url(#p7ff5b81e1d)" d="
M355.056 388.8
L355.951 388.8
L355.951 380.35
L355.056 380.35
z
" style="fill:#126c73;"/>
   </g>
   <g id="patch_257">
    <path clip-path="url(#p7ff5b81e1d)" d="
M356.174 388.8
L357.069 388.8
L357.069 380.362
L356.174 380.362
z
" style="fill:#126c73;"/>
   </g>
   <g id="patch_258">
    <path clip-path="url(#p7ff5b81e1d)" d="
M357.293 388.8
L358.188 388.8
L358.188 380.423
L357.293 380.423
z
" style="fill:#126c73;"/>
   </g>
   <g id="patch_259">
    <path clip-path="url(#p7ff5b81e1d)" d="
M358.412 388.8
L359.307 388.8
L359.307 380.706
L358.412 380.706
z
" style="fill:#126c73;"/>
   </g>
   <g id="patch_260">
    <path clip-path="url(#p7ff5b81e1d)" d="
M359.531 388.8
L360.426 388.8
L360.426 380.743
L359.531 380.743
z
" style="fill:#126c73;"/>
   </g>
   <g id="patch_261">
    <path clip-path="url(#p7ff5b81e1d)" d="
M360.65 388.8
L361.545 388.8
L361.545 380.792
L360.65 380.792
z
" style="fill:#126c73;"/>
   </g>
   <g id="patch_262">
    <path clip-path="url(#p7ff5b81e1d)" d="
M361.768 388.8
L362.663 388.8
L362.663 381.357
L361.768 381.357
z
" style="fill:#126c73;"/>
   </g>
   <g id="patch_263">
    <path clip-path="url(#p7ff5b81e1d)" d="
M362.887 388.8
L363.782 388.8
L363.782 381.75
L362.887 381.75
z
" style="fill:#126c73;"/>
   </g>
   <g id="patch_264">
    <path clip-path="url(#p7ff5b81e1d)" d="
M364.006 388.8
L364.901 388.8
L364.901 381.824
L364.006 381.824
z
" style="fill:#126c73;"/>
   </g>
   <g id="patch_265">
    <path clip-path="url(#p7ff5b81e1d)" d="
M365.125 388.8
L366.02 388.8
L366.02 381.836
L365.125 381.836
z
" style="fill:#126c73;"/>
   </g>
   <g id="patch_266">
    <path clip-path="url(#p7ff5b81e1d)" d="
M366.244 388.8
L367.139 388.8
L367.139 381.946
L366.244 381.946
z
" style="fill:#126c73;"/>
   </g>
   <g id="patch_267">
    <path clip-path="url(#p7ff5b81e1d)" d="
M367.362 388.8
L368.257 388.8
L368.257 382.008
L367.362 382.008
z
" style="fill:#126c73;"/>
   </g>
   <g id="patch_268">
    <path clip-path="url(#p7ff5b81e1d)" d="
M368.481 388.8
L369.376 388.8
L369.376 382.057
L368.481 382.057
z
" style="fill:#126c73;"/>
   </g>
   <g id="patch_269">
    <path clip-path="url(#p7ff5b81e1d)" d="
M369.6 388.8
L370.495 388.8
L370.495 382.241
L369.6 382.241
z
" style="fill:#126c73;"/>
   </g>
   <g id="patch_270">
    <path clip-path="url(#p7ff5b81e1d)" d="
M370.719 388.8
L371.614 388.8
L371.614 382.241
L370.719 382.241
z
" style="fill:#126c73;"/>
   </g>
   <g id="patch_271">
    <path clip-path="url(#p7ff5b81e1d)" d="
M371.838 388.8
L372.733 388.8
L372.733 383.003
L371.838 383.003
z
" style="fill:#126c73;"/>
   </g>
   <g id="patch_272">
    <path clip-path="url(#p7ff5b81e1d)" d="
M372.956 388.8
L373.851 388.8
L373.851 383.015
L372.956 383.015
z
" style="fill:#126c73;"/>
   </g>
   <g id="patch_273">
    <path clip-path="url(#p7ff5b81e1d)" d="
M374.075 388.8
L374.97 388.8
L374.97 383.126
L374.075 383.126
z
" style="fill:#126c73;"/>
   </g>
   <g id="patch_274">
    <path clip-path="url(#p7ff5b81e1d)" d="
M375.194 388.8
L376.089 388.8
L376.089 383.126
L375.194 383.126
z
" style="fill:#126c73;"/>
   </g>
   <g id="patch_275">
    <path clip-path="url(#p7ff5b81e1d)" d="
M376.313 388.8
L377.208 388.8
L377.208 383.285
L376.313 383.285
z
" style="fill:#126c73;"/>
   </g>
   <g id="patch_276">
    <path clip-path="url(#p7ff5b81e1d)" d="
M377.432 388.8
L378.327 388.8
L378.327 383.629
L377.432 383.629
z
" style="fill:#126c73;"/>
   </g>
   <g id="patch_277">
    <path clip-path="url(#p7ff5b81e1d)" d="
M378.55 388.8
L379.445 388.8
L379.445 384.133
L378.55 384.133
z
" style="fill:#126c73;"/>
   </g>
   <g id="patch_278">
    <path clip-path="url(#p7ff5b81e1d)" d="
M379.669 388.8
L380.564 388.8
L380.564 384.17
L379.669 384.17
z
" style="fill:#126c73;"/>
   </g>
   <g id="patch_279">
    <path clip-path="url(#p7ff5b81e1d)" d="
M380.788 388.8
L381.683 388.8
L381.683 384.231
L380.788 384.231
z
" style="fill:#126c73;"/>
   </g>
   <g id="patch_280">
    <path clip-path="url(#p7ff5b81e1d)" d="
M381.907 388.8
L382.802 388.8
L382.802 384.329
L381.907 384.329
z
" style="fill:#126c73;"/>
   </g>
   <g id="patch_281">
    <path clip-path="url(#p7ff5b81e1d)" d="
M383.026 388.8
L383.921 388.8
L383.921 384.685
L383.026 384.685
z
" style="fill:#126c73;"/>
   </g>
   <g id="patch_282">
    <path clip-path="url(#p7ff5b81e1d)" d="
M384.144 388.8
L385.039 388.8
L385.039 384.71
L384.144 384.71
z
" style="fill:#126c73;"/>
   </g>
   <g id="patch_283">
    <path clip-path="url(#p7ff5b81e1d)" d="
M385.263 388.8
L386.158 388.8
L386.158 384.98
L385.263 384.98
z
" style="fill:#126c73;"/>
   </g>
   <g id="patch_284">
    <path clip-path="url(#p7ff5b81e1d)" d="
M386.382 388.8
L387.277 388.8
L387.277 385.128
L386.382 385.128
z
" style="fill:#126c73;"/>
   </g>
   <g id="patch_285">
    <path clip-path="url(#p7ff5b81e1d)" d="
M387.501 388.8
L388.396 388.8
L388.396 385.189
L387.501 385.189
z
" style="fill:#126c73;"/>
   </g>
   <g id="patch_286">
    <path clip-path="url(#p7ff5b81e1d)" d="
M388.62 388.8
L389.515 388.8
L389.515 385.275
L388.62 385.275
z
" style="fill:#126c73;"/>
   </g>
   <g id="patch_287">
    <path clip-path="url(#p7ff5b81e1d)" d="
M389.738 388.8
L390.633 388.8
L390.633 385.324
L389.738 385.324
z
" style="fill:#126c73;"/>
   </g>
   <g id="patch_288">
    <path clip-path="url(#p7ff5b81e1d)" d="
M390.857 388.8
L391.752 388.8
L391.752 385.361
L390.857 385.361
z
" style="fill:#126c73;"/>
   </g>
   <g id="patch_289">
    <path clip-path="url(#p7ff5b81e1d)" d="
M391.976 388.8
L392.871 388.8
L392.871 385.422
L391.976 385.422
z
" style="fill:#126c73;"/>
   </g>
   <g id="patch_290">
    <path clip-path="url(#p7ff5b81e1d)" d="
M393.095 388.8
L393.99 388.8
L393.99 385.57
L393.095 385.57
z
" style="fill:#126c73;"/>
   </g>
   <g id="patch_291">
    <path clip-path="url(#p7ff5b81e1d)" d="
M394.214 388.8
L395.109 388.8
L395.109 385.619
L394.214 385.619
z
" style="fill:#126c73;"/>
   </g>
   <g id="patch_292">
    <path clip-path="url(#p7ff5b81e1d)" d="
M395.332 388.8
L396.227 388.8
L396.227 385.631
L395.332 385.631
z
" style="fill:#126c73;"/>
   </g>
   <g id="patch_293">
    <path clip-path="url(#p7ff5b81e1d)" d="
M396.451 388.8
L397.346 388.8
L397.346 385.938
L396.451 385.938
z
" style="fill:#126c73;"/>
   </g>
   <g id="patch_294">
    <path clip-path="url(#p7ff5b81e1d)" d="
M397.57 388.8
L398.465 388.8
L398.465 386.012
L397.57 386.012
z
" style="fill:#126c73;"/>
   </g>
   <g id="patch_295">
    <path clip-path="url(#p7ff5b81e1d)" d="
M398.689 388.8
L399.584 388.8
L399.584 386.024
L398.689 386.024
z
" style="fill:#126c73;"/>
   </g>
   <g id="patch_296">
    <path clip-path="url(#p7ff5b81e1d)" d="
M399.808 388.8
L400.703 388.8
L400.703 386.159
L399.808 386.159
z
" style="fill:#126c73;"/>
   </g>
   <g id="patch_297">
    <path clip-path="url(#p7ff5b81e1d)" d="
M400.926 388.8
L401.821 388.8
L401.821 386.565
L400.926 386.565
z
" style="fill:#126c73;"/>
   </g>
   <g id="patch_298">
    <path clip-path="url(#p7ff5b81e1d)" d="
M402.045 388.8
L402.94 388.8
L402.94 386.577
L402.045 386.577
z
" style="fill:#126c73;"/>
   </g>
   <g id="patch_299">
    <path clip-path="url(#p7ff5b81e1d)" d="
M403.164 388.8
L404.059 388.8
L404.059 386.589
L403.164 386.589
z
" style="fill:#126c73;"/>
   </g>
   <g id="patch_300">
    <path clip-path="url(#p7ff5b81e1d)" d="
M404.283 388.8
L405.178 388.8
L405.178 386.638
L404.283 386.638
z
" style="fill:#126c73;"/>
   </g>
   <g id="patch_301">
    <path clip-path="url(#p7ff5b81e1d)" d="
M405.402 388.8
L406.297 388.8
L406.297 386.749
L405.402 386.749
z
" style="fill:#126c73;"/>
   </g>
   <g id="patch_302">
    <path clip-path="url(#p7ff5b81e1d)" d="
M406.52 388.8
L407.415 388.8
L407.415 386.761
L406.52 386.761
z
" style="fill:#126c73;"/>
   </g>
   <g id="patch_303">
    <path clip-path="url(#p7ff5b81e1d)" d="
M407.639 388.8
L408.534 388.8
L408.534 386.761
L407.639 386.761
z
" style="fill:#126c73;"/>
   </g>
   <g id="patch_304">
    <path clip-path="url(#p7ff5b81e1d)" d="
M408.758 388.8
L409.653 388.8
L409.653 386.933
L408.758 386.933
z
" style="fill:#126c73;"/>
   </g>
   <g id="patch_305">
    <path clip-path="url(#p7ff5b81e1d)" d="
M409.877 388.8
L410.772 388.8
L410.772 387.166
L409.877 387.166
z
" style="fill:#126c73;"/>
   </g>
   <g id="patch_306">
    <path clip-path="url(#p7ff5b81e1d)" d="
M410.995 388.8
L411.891 388.8
L411.891 387.265
L410.995 387.265
z
" style="fill:#126c73;"/>
   </g>
   <g id="patch_307">
    <path clip-path="url(#p7ff5b81e1d)" d="
M412.114 388.8
L413.009 388.8
L413.009 387.314
L412.114 387.314
z
" style="fill:#126c73;"/>
   </g>
   <g id="patch_308">
    <path clip-path="url(#p7ff5b81e1d)" d="
M413.233 388.8
L414.128 388.8
L414.128 387.412
L413.233 387.412
z
" style="fill:#126c73;"/>
   </g>
   <g id="patch_309">
    <path clip-path="url(#p7ff5b81e1d)" d="
M414.352 388.8
L415.247 388.8
L415.247 387.437
L414.352 387.437
z
" style="fill:#126c73;"/>
   </g>
   <g id="patch_310">
    <path clip-path="url(#p7ff5b81e1d)" d="
M415.471 388.8
L416.366 388.8
L416.366 387.461
L415.471 387.461
z
" style="fill:#126c73;"/>
   </g>
   <g id="patch_311">
    <path clip-path="url(#p7ff5b81e1d)" d="
M416.589 388.8
L417.485 388.8
L417.485 387.535
L416.589 387.535
z
" style="fill:#126c73;"/>
   </g>
   <g id="patch_312">
    <path clip-path="url(#p7ff5b81e1d)" d="
M417.708 388.8
L418.603 388.8
L418.603 387.559
L417.708 387.559
z
" style="fill:#126c73;"/>
   </g>
   <g id="patch_313">
    <path clip-path="url(#p7ff5b81e1d)" d="
M418.827 388.8
L419.722 388.8
L419.722 387.633
L418.827 387.633
z
" style="fill:#126c73;"/>
   </g>
   <g id="patch_314">
    <path clip-path="url(#p7ff5b81e1d)" d="
M419.946 388.8
L420.841 388.8
L420.841 387.682
L419.946 387.682
z
" style="fill:#126c73;"/>
   </g>
   <g id="patch_315">
    <path clip-path="url(#p7ff5b81e1d)" d="
M421.065 388.8
L421.96 388.8
L421.96 387.719
L421.065 387.719
z
" style="fill:#126c73;"/>
   </g>
   <g id="patch_316">
    <path clip-path="url(#p7ff5b81e1d)" d="
M422.183 388.8
L423.078 388.8
L423.078 387.817
L422.183 387.817
z
" style="fill:#126c73;"/>
   </g>
   <g id="patch_317">
    <path clip-path="url(#p7ff5b81e1d)" d="
M423.302 388.8
L424.197 388.8
L424.197 387.817
L423.302 387.817
z
" style="fill:#126c73;"/>
   </g>
   <g id="patch_318">
    <path clip-path="url(#p7ff5b81e1d)" d="
M424.421 388.8
L425.316 388.8
L425.316 387.903
L424.421 387.903
z
" style="fill:#126c73;"/>
   </g>
   <g id="patch_319">
    <path clip-path="url(#p7ff5b81e1d)" d="
M425.54 388.8
L426.435 388.8
L426.435 387.953
L425.54 387.953
z
" style="fill:#126c73;"/>
   </g>
   <g id="patch_320">
    <path clip-path="url(#p7ff5b81e1d)" d="
M426.659 388.8
L427.554 388.8
L427.554 388.026
L426.659 388.026
z
" style="fill:#126c73;"/>
   </g>
   <g id="patch_321">
    <path clip-path="url(#p7ff5b81e1d)" d="
M427.777 388.8
L428.672 388.8
L428.672 388.038
L427.777 388.038
z
" style="fill:#126c73;"/>
   </g>
   <g id="patch_322">
    <path clip-path="url(#p7ff5b81e1d)" d="
M428.896 388.8
L429.791 388.8
L429.791 388.149
L428.896 388.149
z
" style="fill:#126c73;"/>
   </g>
   <g id="patch_323">
    <path clip-path="url(#p7ff5b81e1d)" d="
M430.015 388.8
L430.91 388.8
L430.91 388.186
L430.015 388.186
z
" style="fill:#126c73;"/>
   </g>
   <g id="patch_324">
    <path clip-path="url(#p7ff5b81e1d)" d="
M431.134 388.8
L432.029 388.8
L432.029 388.21
L431.134 388.21
z
" style="fill:#126c73;"/>
   </g>
   <g id="patch_325">
    <path clip-path="url(#p7ff5b81e1d)" d="
M432.253 388.8
L433.148 388.8
L433.148 388.235
L432.253 388.235
z
" style="fill:#126c73;"/>
   </g>
   <g id="patch_326">
    <path clip-path="url(#p7ff5b81e1d)" d="
M433.371 388.8
L434.266 388.8
L434.266 388.272
L433.371 388.272
z
" style="fill:#126c73;"/>
   </g>
   <g id="patch_327">
    <path clip-path="url(#p7ff5b81e1d)" d="
M434.49 388.8
L435.385 388.8
L435.385 388.272
L434.49 388.272
z
" style="fill:#126c73;"/>
   </g>
   <g id="patch_328">
    <path clip-path="url(#p7ff5b81e1d)" d="
M435.609 388.8
L436.504 388.8
L436.504 388.284
L435.609 388.284
z
" style="fill:#126c73;"/>
   </g>
   <g id="patch_329">
    <path clip-path="url(#p7ff5b81e1d)" d="
M436.728 388.8
L437.623 388.8
L437.623 388.309
L436.728 388.309
z
" style="fill:#126c73;"/>
   </g>
   <g id="patch_330">
    <path clip-path="url(#p7ff5b81e1d)" d="
M437.847 388.8
L438.742 388.8
L438.742 388.309
L437.847 388.309
z
" style="fill:#126c73;"/>
   </g>
   <g id="patch_331">
    <path clip-path="url(#p7ff5b81e1d)" d="
M438.965 388.8
L439.86 388.8
L439.86 388.321
L438.965 388.321
z
" style="fill:#126c73;"/>
   </g>
   <g id="patch_332">
    <path clip-path="url(#p7ff5b81e1d)" d="
M440.084 388.8
L440.979 388.8
L440.979 388.333
L440.084 388.333
z
" style="fill:#126c73;"/>
   </g>
   <g id="patch_333">
    <path clip-path="url(#p7ff5b81e1d)" d="
M441.203 388.8
L442.098 388.8
L442.098 388.346
L441.203 388.346
z
" style="fill:#126c73;"/>
   </g>
   <g id="patch_334">
    <path clip-path="url(#p7ff5b81e1d)" d="
M442.322 388.8
L443.217 388.8
L443.217 388.37
L442.322 388.37
z
" style="fill:#126c73;"/>
   </g>
   <g id="patch_335">
    <path clip-path="url(#p7ff5b81e1d)" d="
M443.441 388.8
L444.336 388.8
L444.336 388.37
L443.441 388.37
z
" style="fill:#126c73;"/>
   </g>
   <g id="patch_336">
    <path clip-path="url(#p7ff5b81e1d)" d="
M444.559 388.8
L445.454 388.8
L445.454 388.395
L444.559 388.395
z
" style="fill:#126c73;"/>
   </g>
   <g id="patch_337">
    <path clip-path="url(#p7ff5b81e1d)" d="
M445.678 388.8
L446.573 388.8
L446.573 388.395
L445.678 388.395
z
" style="fill:#126c73;"/>
   </g>
   <g id="patch_338">
    <path clip-path="url(#p7ff5b81e1d)" d="
M446.797 388.8
L447.692 388.8
L447.692 388.444
L446.797 388.444
z
" style="fill:#126c73;"/>
   </g>
   <g id="patch_339">
    <path clip-path="url(#p7ff5b81e1d)" d="
M447.916 388.8
L448.811 388.8
L448.811 388.456
L447.916 388.456
z
" style="fill:#126c73;"/>
   </g>
   <g id="patch_340">
    <path clip-path="url(#p7ff5b81e1d)" d="
M449.035 388.8
L449.93 388.8
L449.93 388.456
L449.035 388.456
z
" style="fill:#126c73;"/>
   </g>
   <g id="patch_341">
    <path clip-path="url(#p7ff5b81e1d)" d="
M450.153 388.8
L451.048 388.8
L451.048 388.468
L450.153 388.468
z
" style="fill:#126c73;"/>
   </g>
   <g id="patch_342">
    <path clip-path="url(#p7ff5b81e1d)" d="
M451.272 388.8
L452.167 388.8
L452.167 388.493
L451.272 388.493
z
" style="fill:#126c73;"/>
   </g>
   <g id="patch_343">
    <path clip-path="url(#p7ff5b81e1d)" d="
M452.391 388.8
L453.286 388.8
L453.286 388.505
L452.391 388.505
z
" style="fill:#126c73;"/>
   </g>
   <g id="patch_344">
    <path clip-path="url(#p7ff5b81e1d)" d="
M453.51 388.8
L454.405 388.8
L454.405 388.505
L453.51 388.505
z
" style="fill:#126c73;"/>
   </g>
   <g id="patch_345">
    <path clip-path="url(#p7ff5b81e1d)" d="
M454.629 388.8
L455.524 388.8
L455.524 388.53
L454.629 388.53
z
" style="fill:#126c73;"/>
   </g>
   <g id="patch_346">
    <path clip-path="url(#p7ff5b81e1d)" d="
M455.747 388.8
L456.642 388.8
L456.642 388.53
L455.747 388.53
z
" style="fill:#126c73;"/>
   </g>
   <g id="patch_347">
    <path clip-path="url(#p7ff5b81e1d)" d="
M456.866 388.8
L457.761 388.8
L457.761 388.542
L456.866 388.542
z
" style="fill:#126c73;"/>
   </g>
   <g id="patch_348">
    <path clip-path="url(#p7ff5b81e1d)" d="
M457.985 388.8
L458.88 388.8
L458.88 388.542
L457.985 388.542
z
" style="fill:#126c73;"/>
   </g>
   <g id="patch_349">
    <path clip-path="url(#p7ff5b81e1d)" d="
M459.104 388.8
L459.999 388.8
L459.999 388.542
L459.104 388.542
z
" style="fill:#126c73;"/>
   </g>
   <g id="patch_350">
    <path clip-path="url(#p7ff5b81e1d)" d="
M460.223 388.8
L461.118 388.8
L461.118 388.554
L460.223 388.554
z
" style="fill:#126c73;"/>
   </g>
   <g id="patch_351">
    <path clip-path="url(#p7ff5b81e1d)" d="
M461.341 388.8
L462.236 388.8
L462.236 388.567
L461.341 388.567
z
" style="fill:#126c73;"/>
   </g>
   <g id="patch_352">
    <path clip-path="url(#p7ff5b81e1d)" d="
M462.46 388.8
L463.355 388.8
L463.355 388.579
L462.46 388.579
z
" style="fill:#126c73;"/>
   </g>
   <g id="patch_353">
    <path clip-path="url(#p7ff5b81e1d)" d="
M463.579 388.8
L464.474 388.8
L464.474 388.616
L463.579 388.616
z
" style="fill:#126c73;"/>
   </g>
   <g id="patch_354">
    <path clip-path="url(#p7ff5b81e1d)" d="
M464.698 388.8
L465.593 388.8
L465.593 388.616
L464.698 388.616
z
" style="fill:#126c73;"/>
   </g>
   <g id="patch_355">
    <path clip-path="url(#p7ff5b81e1d)" d="
M465.817 388.8
L466.712 388.8
L466.712 388.628
L465.817 388.628
z
" style="fill:#126c73;"/>
   </g>
   <g id="patch_356">
    <path clip-path="url(#p7ff5b81e1d)" d="
M466.935 388.8
L467.83 388.8
L467.83 388.653
L466.935 388.653
z
" style="fill:#126c73;"/>
   </g>
   <g id="patch_357">
    <path clip-path="url(#p7ff5b81e1d)" d="
M468.054 388.8
L468.949 388.8
L468.949 388.665
L468.054 388.665
z
" style="fill:#126c73;"/>
   </g>
   <g id="patch_358">
    <path clip-path="url(#p7ff5b81e1d)" d="
M469.173 388.8
L470.068 388.8
L470.068 388.665
L469.173 388.665
z
" style="fill:#126c73;"/>
   </g>
   <g id="patch_359">
    <path clip-path="url(#p7ff5b81e1d)" d="
M470.292 388.8
L471.187 388.8
L471.187 388.677
L470.292 388.677
z
" style="fill:#126c73;"/>
   </g>
   <g id="patch_360">
    <path clip-path="url(#p7ff5b81e1d)" d="
M471.411 388.8
L472.306 388.8
L472.306 388.677
L471.411 388.677
z
" style="fill:#126c73;"/>
   </g>
   <g id="patch_361">
    <path clip-path="url(#p7ff5b81e1d)" d="
M472.529 388.8
L473.424 388.8
L473.424 388.689
L472.529 388.689
z
" style="fill:#126c73;"/>
   </g>
   <g id="patch_362">
    <path clip-path="url(#p7ff5b81e1d)" d="
M473.648 388.8
L474.543 388.8
L474.543 388.689
L473.648 388.689
z
" style="fill:#126c73;"/>
   </g>
   <g id="patch_363">
    <path clip-path="url(#p7ff5b81e1d)" d="
M474.767 388.8
L475.662 388.8
L475.662 388.702
L474.767 388.702
z
" style="fill:#126c73;"/>
   </g>
   <g id="patch_364">
    <path clip-path="url(#p7ff5b81e1d)" d="
M475.886 388.8
L476.781 388.8
L476.781 388.702
L475.886 388.702
z
" style="fill:#126c73;"/>
   </g>
   <g id="patch_365">
    <path clip-path="url(#p7ff5b81e1d)" d="
M477.005 388.8
L477.9 388.8
L477.9 388.702
L477.005 388.702
z
" style="fill:#126c73;"/>
   </g>
   <g id="patch_366">
    <path clip-path="url(#p7ff5b81e1d)" d="
M478.123 388.8
L479.018 388.8
L479.018 388.714
L478.123 388.714
z
" style="fill:#126c73;"/>
   </g>
   <g id="patch_367">
    <path clip-path="url(#p7ff5b81e1d)" d="
M479.242 388.8
L480.137 388.8
L480.137 388.714
L479.242 388.714
z
" style="fill:#126c73;"/>
   </g>
   <g id="patch_368">
    <path clip-path="url(#p7ff5b81e1d)" d="
M480.361 388.8
L481.256 388.8
L481.256 388.739
L480.361 388.739
z
" style="fill:#126c73;"/>
   </g>
   <g id="patch_369">
    <path clip-path="url(#p7ff5b81e1d)" d="
M481.48 388.8
L482.375 388.8
L482.375 388.739
L481.48 388.739
z
" style="fill:#126c73;"/>
   </g>
   <g id="patch_370">
    <path clip-path="url(#p7ff5b81e1d)" d="
M482.598 388.8
L483.494 388.8
L483.494 388.739
L482.598 388.739
z
" style="fill:#126c73;"/>
   </g>
   <g id="patch_371">
    <path clip-path="url(#p7ff5b81e1d)" d="
M483.717 388.8
L484.612 388.8
L484.612 388.739
L483.717 388.739
z
" style="fill:#126c73;"/>
   </g>
   <g id="patch_372">
    <path clip-path="url(#p7ff5b81e1d)" d="
M484.836 388.8
L485.731 388.8
L485.731 388.739
L484.836 388.739
z
" style="fill:#126c73;"/>
   </g>
   <g id="patch_373">
    <path clip-path="url(#p7ff5b81e1d)" d="
M485.955 388.8
L486.85 388.8
L486.85 388.739
L485.955 388.739
z
" style="fill:#126c73;"/>
   </g>
   <g id="patch_374">
    <path clip-path="url(#p7ff5b81e1d)" d="
M487.074 388.8
L487.969 388.8
L487.969 388.751
L487.074 388.751
z
" style="fill:#126c73;"/>
   </g>
   <g id="patch_375">
    <path clip-path="url(#p7ff5b81e1d)" d="
M488.192 388.8
L489.088 388.8
L489.088 388.751
L488.192 388.751
z
" style="fill:#126c73;"/>
   </g>
   <g id="patch_376">
    <path clip-path="url(#p7ff5b81e1d)" d="
M489.311 388.8
L490.206 388.8
L490.206 388.751
L489.311 388.751
z
" style="fill:#126c73;"/>
   </g>
   <g id="patch_377">
    <path clip-path="url(#p7ff5b81e1d)" d="
M490.43 388.8
L491.325 388.8
L491.325 388.763
L490.43 388.763
z
" style="fill:#126c73;"/>
   </g>
   <g id="patch_378">
    <path clip-path="url(#p7ff5b81e1d)" d="
M491.549 388.8
L492.444 388.8
L492.444 388.763
L491.549 388.763
z
" style="fill:#126c73;"/>
   </g>
   <g id="patch_379">
    <path clip-path="url(#p7ff5b81e1d)" d="
M492.668 388.8
L493.563 388.8
L493.563 388.763
L492.668 388.763
z
" style="fill:#126c73;"/>
   </g>
   <g id="patch_380">
    <path clip-path="url(#p7ff5b81e1d)" d="
M493.786 388.8
L494.682 388.8
L494.682 388.763
L493.786 388.763
z
" style="fill:#126c73;"/>
   </g>
   <g id="patch_381">
    <path clip-path="url(#p7ff5b81e1d)" d="
M494.905 388.8
L495.8 388.8
L495.8 388.763
L494.905 388.763
z
" style="fill:#126c73;"/>
   </g>
   <g id="patch_382">
    <path clip-path="url(#p7ff5b81e1d)" d="
M496.024 388.8
L496.919 388.8
L496.919 388.763
L496.024 388.763
z
" style="fill:#126c73;"/>
   </g>
   <g id="patch_383">
    <path clip-path="url(#p7ff5b81e1d)" d="
M497.143 388.8
L498.038 388.8
L498.038 388.775
L497.143 388.775
z
" style="fill:#126c73;"/>
   </g>
   <g id="patch_384">
    <path clip-path="url(#p7ff5b81e1d)" d="
M498.262 388.8
L499.157 388.8
L499.157 388.775
L498.262 388.775
z
" style="fill:#126c73;"/>
   </g>
   <g id="patch_385">
    <path clip-path="url(#p7ff5b81e1d)" d="
M499.38 388.8
L500.275 388.8
L500.275 388.775
L499.38 388.775
z
" style="fill:#126c73;"/>
   </g>
   <g id="patch_386">
    <path clip-path="url(#p7ff5b81e1d)" d="
M500.499 388.8
L501.394 388.8
L501.394 388.775
L500.499 388.775
z
" style="fill:#126c73;"/>
   </g>
   <g id="patch_387">
    <path clip-path="url(#p7ff5b81e1d)" d="
M501.618 388.8
L502.513 388.8
L502.513 388.775
L501.618 388.775
z
" style="fill:#126c73;"/>
   </g>
   <g id="patch_388">
    <path clip-path="url(#p7ff5b81e1d)" d="
M502.737 388.8
L503.632 388.8
L503.632 388.775
L502.737 388.775
z
" style="fill:#126c73;"/>
   </g>
   <g id="patch_389">
    <path clip-path="url(#p7ff5b81e1d)" d="
M503.856 388.8
L504.751 388.8
L504.751 388.775
L503.856 388.775
z
" style="fill:#126c73;"/>
   </g>
   <g id="patch_390">
    <path clip-path="url(#p7ff5b81e1d)" d="
M504.974 388.8
L505.869 388.8
L505.869 388.788
L504.974 388.788
z
" style="fill:#126c73;"/>
   </g>
   <g id="patch_391">
    <path clip-path="url(#p7ff5b81e1d)" d="
M506.093 388.8
L506.988 388.8
L506.988 388.788
L506.093 388.788
z
" style="fill:#126c73;"/>
   </g>
   <g id="patch_392">
    <path clip-path="url(#p7ff5b81e1d)" d="
M507.212 388.8
L508.107 388.8
L508.107 388.788
L507.212 388.788
z
" style="fill:#126c73;"/>
   </g>
   <g id="patch_393">
    <path clip-path="url(#p7ff5b81e1d)" d="
M508.331 388.8
L509.226 388.8
L509.226 388.788
L508.331 388.788
z
" style="fill:#126c73;"/>
   </g>
   <g id="patch_394">
    <path clip-path="url(#p7ff5b81e1d)" d="
M509.45 388.8
L510.345 388.8
L510.345 388.788
L509.45 388.788
z
" style="fill:#126c73;"/>
   </g>
   <g id="patch_395">
    <path clip-path="url(#p7ff5b81e1d)" d="
M510.568 388.8
L511.463 388.8
L511.463 388.788
L510.568 388.788
z
" style="fill:#126c73;"/>
   </g>
   <g id="patch_396">
    <path clip-path="url(#p7ff5b81e1d)" d="
M511.687 388.8
L512.582 388.8
L512.582 388.788
L511.687 388.788
z
" style="fill:#126c73;"/>
   </g>
   <g id="patch_397">
    <path clip-path="url(#p7ff5b81e1d)" d="
M512.806 388.8
L513.701 388.8
L513.701 388.788
L512.806 388.788
z
" style="fill:#126c73;"/>
   </g>
   <g id="patch_398">
    <path clip-path="url(#p7ff5b81e1d)" d="
M513.925 388.8
L514.82 388.8
L514.82 388.788
L513.925 388.788
z
" style="fill:#126c73;"/>
   </g>
   <g id="patch_399">
    <path clip-path="url(#p7ff5b81e1d)" d="
M515.044 388.8
L515.939 388.8
L515.939 388.788
L515.044 388.788
z
" style="fill:#126c73;"/>
   </g>
   <g id="patch_400">
    <path clip-path="url(#p7ff5b81e1d)" d="
M516.162 388.8
L517.057 388.8
L517.057 388.788
L516.162 388.788
z
" style="fill:#126c73;"/>
   </g>
   <g id="patch_401">
    <path clip-path="url(#p7ff5b81e1d)" d="
M517.281 388.8
L518.176 388.8
L518.176 388.788
L517.281 388.788
z
" style="fill:#126c73;"/>
   </g>
   <g id="LineCollection_1">
    <defs>
     <path d="
M72 -252.461
L518.4 -252.461" id="C0_0_0ffe8106ef"/>
    </defs>
    <g clip-path="url(#p7ff5b81e1d)">
     <use style="fill:none;stroke:#000000;stroke-dasharray:6.000000,6.000000;stroke-dashoffset:0.0;" x="0.0" xlink:href="#C0_0_0ffe8106ef" y="432.0"/>
    </g>
   </g>
   <g id="matplotlib.axis_1">
    <g id="xtick_1">
     <g id="line2d_1">
      <defs>
       <path d="
M0 0
L0 -4" id="m93b0483c22" style="stroke:#000000;stroke-width:0.5;"/>
      </defs>
      <g>
       <use style="stroke:#000000;stroke-width:0.5;" x="72.0" xlink:href="#m93b0483c22" y="388.8"/>
      </g>
     </g>
    </g>
    <g id="xtick_2">
     <g id="line2d_2">
      <g>
       <use style="stroke:#000000;stroke-width:0.5;" x="127.939849624" xlink:href="#m93b0483c22" y="388.8"/>
      </g>
     </g>
    </g>
    <g id="xtick_3">
     <g id="line2d_3">
      <g>
       <use style="stroke:#000000;stroke-width:0.5;" x="183.879699248" xlink:href="#m93b0483c22" y="388.8"/>
      </g>
     </g>
    </g>
    <g id="xtick_4">
     <g id="line2d_4">
      <g>
       <use style="stroke:#000000;stroke-width:0.5;" x="239.819548872" xlink:href="#m93b0483c22" y="388.8"/>
      </g>
     </g>
    </g>
    <g id="xtick_5">
     <g id="line2d_5">
      <g>
       <use style="stroke:#000000;stroke-width:0.5;" x="295.759398496" xlink:href="#m93b0483c22" y="388.8"/>
      </g>
     </g>
    </g>
    <g id="xtick_6">
     <g id="line2d_6">
      <g>
       <use style="stroke:#000000;stroke-width:0.5;" x="351.69924812" xlink:href="#m93b0483c22" y="388.8"/>
      </g>
     </g>
    </g>
    <g id="xtick_7">
     <g id="line2d_7">
      <g>
       <use style="stroke:#000000;stroke-width:0.5;" x="407.639097744" xlink:href="#m93b0483c22" y="388.8"/>
      </g>
     </g>
    </g>
    <g id="xtick_8">
     <g id="line2d_8">
      <g>
       <use style="stroke:#000000;stroke-width:0.5;" x="463.578947368" xlink:href="#m93b0483c22" y="388.8"/>
      </g>
     </g>
    </g>
    <g id="text_1">
     <!-- A residues -->
     <defs>
      <path id="DejaVuSans-20"/>
      <path d="
M34.1875 63.1875
L20.7969 26.9062
L47.6094 26.9062
z

M28.6094 72.9062
L39.7969 72.9062
L67.5781 0
L57.3281 0
L50.6875 18.7031
L17.8281 18.7031
L11.1875 0
L0.78125 0
z
" id="DejaVuSans-41"/>
      <path d="
M9.42188 54.6875
L18.4062 54.6875
L18.4062 0
L9.42188 0
z

M9.42188 75.9844
L18.4062 75.9844
L18.4062 64.5938
L9.42188 64.5938
z
" id="DejaVuSans-69"/>
      <path d="
M8.5 21.5781
L8.5 54.6875
L17.4844 54.6875
L17.4844 21.9219
Q17.4844 14.1562 20.5 10.2656
Q23.5312 6.39062 29.5938 6.39062
Q36.8594 6.39062 41.0781 11.0312
Q45.3125 15.6719 45.3125 23.6875
L45.3125 54.6875
L54.2969 54.6875
L54.2969 0
L45.3125 0
L45.3125 8.40625
Q42.0469 3.42188 37.7188 1
Q33.4062 -1.42188 27.6875 -1.42188
Q18.2656 -1.42188 13.375 4.4375
Q8.5 10.2969 8.5 21.5781
M31.1094 56
z
" id="DejaVuSans-75"/>
      <path d="
M45.4062 46.3906
L45.4062 75.9844
L54.3906 75.9844
L54.3906 0
L45.4062 0
L45.4062 8.20312
Q42.5781 3.32812 38.25 0.953125
Q33.9375 -1.42188 27.875 -1.42188
Q17.9688 -1.42188 11.7344 6.48438
Q5.51562 14.4062 5.51562 27.2969
Q5.51562 40.1875 11.7344 48.0938
Q17.9688 56 27.875 56
Q33.9375 56 38.25 53.625
Q42.5781 51.2656 45.4062 46.3906
M14.7969 27.2969
Q14.7969 17.3906 18.875 11.75
Q22.9531 6.10938 30.0781 6.10938
Q37.2031 6.10938 41.2969 11.75
Q45.4062 17.3906 45.4062 27.2969
Q45.4062 37.2031 41.2969 42.8438
Q37.2031 48.4844 30.0781 48.4844
Q22.9531 48.4844 18.875 42.8438
Q14.7969 37.2031 14.7969 27.2969" id="DejaVuSans-64"/>
      <path d="
M56.2031 29.5938
L56.2031 25.2031
L14.8906 25.2031
Q15.4844 15.9219 20.4844 11.0625
Q25.4844 6.20312 34.4219 6.20312
Q39.5938 6.20312 44.4531 7.46875
Q49.3125 8.73438 54.1094 11.2812
L54.1094 2.78125
Q49.2656 0.734375 44.1875 -0.34375
Q39.1094 -1.42188 33.8906 -1.42188
Q20.7969 -1.42188 13.1562 6.1875
Q5.51562 13.8125 5.51562 26.8125
Q5.51562 40.2344 12.7656 48.1094
Q20.0156 56 32.3281 56
Q43.3594 56 49.7812 48.8906
Q56.2031 41.7969 56.2031 29.5938
M47.2188 32.2344
Q47.125 39.5938 43.0938 43.9844
Q39.0625 48.3906 32.4219 48.3906
Q24.9062 48.3906 20.3906 44.1406
Q15.875 39.8906 15.1875 32.1719
z
" id="DejaVuSans-65"/>
      <path d="
M44.2812 53.0781
L44.2812 44.5781
Q40.4844 46.5312 36.375 47.5
Q32.2812 48.4844 27.875 48.4844
Q21.1875 48.4844 17.8438 46.4375
Q14.5 44.3906 14.5 40.2812
Q14.5 37.1562 16.8906 35.375
Q19.2812 33.5938 26.5156 31.9844
L29.5938 31.2969
Q39.1562 29.25 43.1875 25.5156
Q47.2188 21.7812 47.2188 15.0938
Q47.2188 7.46875 41.1875 3.01562
Q35.1562 -1.42188 24.6094 -1.42188
Q20.2188 -1.42188 15.4531 -0.5625
Q10.6875 0.296875 5.42188 2
L5.42188 11.2812
Q10.4062 8.6875 15.2344 7.39062
Q20.0625 6.10938 24.8125 6.10938
Q31.1562 6.10938 34.5625 8.28125
Q37.9844 10.4531 37.9844 14.4062
Q37.9844 18.0625 35.5156 20.0156
Q33.0625 21.9688 24.7031 23.7812
L21.5781 24.5156
Q13.2344 26.2656 9.51562 29.9062
Q5.8125 33.5469 5.8125 39.8906
Q5.8125 47.6094 11.2812 51.7969
Q16.75 56 26.8125 56
Q31.7812 56 36.1719 55.2656
Q40.5781 54.5469 44.2812 53.0781" id="DejaVuSans-73"/>
      <path d="
M41.1094 46.2969
Q39.5938 47.1719 37.8125 47.5781
Q36.0312 48 33.8906 48
Q26.2656 48 22.1875 43.0469
Q18.1094 38.0938 18.1094 28.8125
L18.1094 0
L9.07812 0
L9.07812 54.6875
L18.1094 54.6875
L18.1094 46.1875
Q20.9531 51.1719 25.4844 53.5781
Q30.0312 56 36.5312 56
Q37.4531 56 38.5781 55.875
Q39.7031 55.7656 41.0625 55.5156
z
" id="DejaVuSans-72"/>
     </defs>
     <g transform="translate(269.40719625 405.395398125)scale(0.09996 -0.09996)">
      <use xlink:href="#DejaVuSans-41"/>
      <use x="68.408203125" xlink:href="#DejaVuSans-20"/>
      <use x="100.1953125" xlink:href="#DejaVuSans-72"/>
      <use x="139.05859375" xlink:href="#DejaVuSans-65"/>
      <use x="200.58203125" xlink:href="#DejaVuSans-73"/>
      <use x="252.681640625" xlink:href="#DejaVuSans-69"/>
      <use x="280.46484375" xlink:href="#DejaVuSans-64"/>
      <use x="343.94140625" xlink:href="#DejaVuSans-75"/>
      <use x="407.3203125" xlink:href="#DejaVuSans-65"/>
      <use x="468.84375" xlink:href="#DejaVuSans-73"/>
     </g>
    </g>
   </g>
   <g id="matplotlib.axis_2">
    <g id="ytick_1">
     <g id="line2d_9">
      <defs>
       <path d="
M0 0
L4 0" id="m728421d6d4" style="stroke:#000000;stroke-width:0.5;"/>
      </defs>
      <g>
       <use style="stroke:#000000;stroke-width:0.5;" x="72.0" xlink:href="#m728421d6d4" y="388.8"/>
      </g>
     </g>
     <g id="text_2">
      <!-- 0.0 -->
      <defs>
       <path d="
M31.7812 66.4062
Q24.1719 66.4062 20.3281 58.9062
Q16.5 51.4219 16.5 36.375
Q16.5 21.3906 20.3281 13.8906
Q24.1719 6.39062 31.7812 6.39062
Q39.4531 6.39062 43.2812 13.8906
Q47.125 21.3906 47.125 36.375
Q47.125 51.4219 43.2812 58.9062
Q39.4531 66.4062 31.7812 66.4062
M31.7812 74.2188
Q44.0469 74.2188 50.5156 64.5156
Q56.9844 54.8281 56.9844 36.375
Q56.9844 17.9688 50.5156 8.26562
Q44.0469 -1.42188 31.7812 -1.42188
Q19.5312 -1.42188 13.0625 8.26562
Q6.59375 17.9688 6.59375 36.375
Q6.59375 54.8281 13.0625 64.5156
Q19.5312 74.2188 31.7812 74.2188" id="DejaVuSans-30"/>
       <path d="
M10.6875 12.4062
L21 12.4062
L21 0
L10.6875 0
z
" id="DejaVuSans-2e"/>
      </defs>
      <g transform="translate(57.870033125 390.71721375)scale(0.06948 -0.06948)">
       <use xlink:href="#DejaVuSans-30"/>
       <use x="63.623046875" xlink:href="#DejaVuSans-2e"/>
       <use x="95.41015625" xlink:href="#DejaVuSans-30"/>
      </g>
     </g>
    </g>
    <g id="ytick_2">
     <g id="line2d_10">
      <g>
       <use style="stroke:#000000;stroke-width:0.5;" x="72.0" xlink:href="#m728421d6d4" y="346.947739285"/>
      </g>
     </g>
     <g id="text_3">
      <!-- 0.2 -->
      <defs>
       <path d="
M19.1875 8.29688
L53.6094 8.29688
L53.6094 0
L7.32812 0
L7.32812 8.29688
Q12.9375 14.1094 22.625 23.8906
Q32.3281 33.6875 34.8125 36.5312
Q39.5469 41.8438 41.4219 45.5312
Q43.3125 49.2188 43.3125 52.7812
Q43.3125 58.5938 39.2344 62.25
Q35.1562 65.9219 28.6094 65.9219
Q23.9688 65.9219 18.8125 64.3125
Q13.6719 62.7031 7.8125 59.4219
L7.8125 69.3906
Q13.7656 71.7812 18.9375 73
Q24.125 74.2188 28.4219 74.2188
Q39.75 74.2188 46.4844 68.5469
Q53.2188 62.8906 53.2188 53.4219
Q53.2188 48.9219 51.5312 44.8906
Q49.8594 40.875 45.4062 35.4062
Q44.1875 33.9844 37.6406 27.2188
Q31.1094 20.4531 19.1875 8.29688" id="DejaVuSans-32"/>
      </defs>
      <g transform="translate(58.104528125 348.864953035)scale(0.06948 -0.06948)">
       <use xlink:href="#DejaVuSans-30"/>
       <use x="63.623046875" xlink:href="#DejaVuSans-2e"/>
       <use x="95.41015625" xlink:href="#DejaVuSans-32"/>
      </g>
     </g>
    </g>
    <g id="ytick_3">
     <g id="line2d_11">
      <g>
       <use style="stroke:#000000;stroke-width:0.5;" x="72.0" xlink:href="#m728421d6d4" y="305.09547857"/>
      </g>
     </g>
     <g id="text_4">
      <!-- 0.4 -->
      <defs>
       <path d="
M37.7969 64.3125
L12.8906 25.3906
L37.7969 25.3906
z

M35.2031 72.9062
L47.6094 72.9062
L47.6094 25.3906
L58.0156 25.3906
L58.0156 17.1875
L47.6094 17.1875
L47.6094 0
L37.7969 0
L37.7969 17.1875
L4.89062 17.1875
L4.89062 26.7031
z
" id="DejaVuSans-34"/>
      </defs>
      <g transform="translate(57.798381875 307.01269232)scale(0.06948 -0.06948)">
       <use xlink:href="#DejaVuSans-30"/>
       <use x="63.623046875" xlink:href="#DejaVuSans-2e"/>
       <use x="95.41015625" xlink:href="#DejaVuSans-34"/>
      </g>
     </g>
    </g>
    <g id="ytick_4">
     <g id="line2d_12">
      <g>
       <use style="stroke:#000000;stroke-width:0.5;" x="72.0" xlink:href="#m728421d6d4" y="263.243217855"/>
      </g>
     </g>
     <g id="text_5">
      <!-- 0.6 -->
      <defs>
       <path d="
M33.0156 40.375
Q26.375 40.375 22.4844 35.8281
Q18.6094 31.2969 18.6094 23.3906
Q18.6094 15.5312 22.4844 10.9531
Q26.375 6.39062 33.0156 6.39062
Q39.6562 6.39062 43.5312 10.9531
Q47.4062 15.5312 47.4062 23.3906
Q47.4062 31.2969 43.5312 35.8281
Q39.6562 40.375 33.0156 40.375
M52.5938 71.2969
L52.5938 62.3125
Q48.875 64.0625 45.0938 64.9844
Q41.3125 65.9219 37.5938 65.9219
Q27.8281 65.9219 22.6719 59.3281
Q17.5312 52.7344 16.7969 39.4062
Q19.6719 43.6562 24.0156 45.9219
Q28.375 48.1875 33.5938 48.1875
Q44.5781 48.1875 50.9531 41.5156
Q57.3281 34.8594 57.3281 23.3906
Q57.3281 12.1562 50.6875 5.35938
Q44.0469 -1.42188 33.0156 -1.42188
Q20.3594 -1.42188 13.6719 8.26562
Q6.98438 17.9688 6.98438 36.375
Q6.98438 53.6562 15.1875 63.9375
Q23.3906 74.2188 37.2031 74.2188
Q40.9219 74.2188 44.7031 73.4844
Q48.4844 72.75 52.5938 71.2969" id="DejaVuSans-36"/>
      </defs>
      <g transform="translate(57.846149375 265.160431605)scale(0.06948 -0.06948)">
       <use xlink:href="#DejaVuSans-30"/>
       <use x="63.623046875" xlink:href="#DejaVuSans-2e"/>
       <use x="95.41015625" xlink:href="#DejaVuSans-36"/>
      </g>
     </g>
    </g>
    <g id="ytick_5">
     <g id="line2d_13">
      <g>
       <use style="stroke:#000000;stroke-width:0.5;" x="72.0" xlink:href="#m728421d6d4" y="221.39095714"/>
      </g>
     </g>
     <g id="text_6">
      <!-- 0.8 -->
      <defs>
       <path d="
M31.7812 34.625
Q24.75 34.625 20.7188 30.8594
Q16.7031 27.0938 16.7031 20.5156
Q16.7031 13.9219 20.7188 10.1562
Q24.75 6.39062 31.7812 6.39062
Q38.8125 6.39062 42.8594 10.1719
Q46.9219 13.9688 46.9219 20.5156
Q46.9219 27.0938 42.8906 30.8594
Q38.875 34.625 31.7812 34.625
M21.9219 38.8125
Q15.5781 40.375 12.0312 44.7188
Q8.5 49.0781 8.5 55.3281
Q8.5 64.0625 14.7188 69.1406
Q20.9531 74.2188 31.7812 74.2188
Q42.6719 74.2188 48.875 69.1406
Q55.0781 64.0625 55.0781 55.3281
Q55.0781 49.0781 51.5312 44.7188
Q48 40.375 41.7031 38.8125
Q48.8281 37.1562 52.7969 32.3125
Q56.7812 27.4844 56.7812 20.5156
Q56.7812 9.90625 50.3125 4.23438
Q43.8438 -1.42188 31.7812 -1.42188
Q19.7344 -1.42188 13.25 4.23438
Q6.78125 9.90625 6.78125 20.5156
Q6.78125 27.4844 10.7812 32.3125
Q14.7969 37.1562 21.9219 38.8125
M18.3125 54.3906
Q18.3125 48.7344 21.8438 45.5625
Q25.3906 42.3906 31.7812 42.3906
Q38.1406 42.3906 41.7188 45.5625
Q45.3125 48.7344 45.3125 54.3906
Q45.3125 60.0625 41.7188 63.2344
Q38.1406 66.4062 31.7812 66.4062
Q25.3906 66.4062 21.8438 63.2344
Q18.3125 60.0625 18.3125 54.3906" id="DejaVuSans-38"/>
      </defs>
      <g transform="translate(57.88414625 223.30817089)scale(0.06948 -0.06948)">
       <use xlink:href="#DejaVuSans-30"/>
       <use x="63.623046875" xlink:href="#DejaVuSans-2e"/>
       <use x="95.41015625" xlink:href="#DejaVuSans-38"/>
      </g>
     </g>
    </g>
    <g id="ytick_6">
     <g id="line2d_14">
      <g>
       <use style="stroke:#000000;stroke-width:0.5;" x="72.0" xlink:href="#m728421d6d4" y="179.538696425"/>
      </g>
     </g>
     <g id="text_7">
      <!-- 1.0 -->
      <defs>
       <path d="
M12.4062 8.29688
L28.5156 8.29688
L28.5156 63.9219
L10.9844 60.4062
L10.9844 69.3906
L28.4219 72.9062
L38.2812 72.9062
L38.2812 8.29688
L54.3906 8.29688
L54.3906 0
L12.4062 0
z
" id="DejaVuSans-31"/>
      </defs>
      <g transform="translate(58.17509375 181.455910175)scale(0.06948 -0.06948)">
       <use xlink:href="#DejaVuSans-31"/>
       <use x="63.623046875" xlink:href="#DejaVuSans-2e"/>
       <use x="95.41015625" xlink:href="#DejaVuSans-30"/>
      </g>
     </g>
    </g>
    <g id="ytick_7">
     <g id="line2d_15">
      <g>
       <use style="stroke:#000000;stroke-width:0.5;" x="72.0" xlink:href="#m728421d6d4" y="137.68643571"/>
      </g>
     </g>
     <g id="text_8">
      <!-- 1.2 -->
      <g transform="translate(58.40958875 139.60364946)scale(0.06948 -0.06948)">
       <use xlink:href="#DejaVuSans-31"/>
       <use x="63.623046875" xlink:href="#DejaVuSans-2e"/>
       <use x="95.41015625" xlink:href="#DejaVuSans-32"/>
      </g>
     </g>
    </g>
    <g id="ytick_8">
     <g id="line2d_16">
      <g>
       <use style="stroke:#000000;stroke-width:0.5;" x="72.0" xlink:href="#m728421d6d4" y="95.8341749947"/>
      </g>
     </g>
     <g id="text_9">
      <!-- 1.4 -->
      <g transform="translate(58.1034425 97.7513887447)scale(0.06948 -0.06948)">
       <use xlink:href="#DejaVuSans-31"/>
       <use x="63.623046875" xlink:href="#DejaVuSans-2e"/>
       <use x="95.41015625" xlink:href="#DejaVuSans-34"/>
      </g>
     </g>
    </g>
    <g id="ytick_9">
     <g id="line2d_17">
      <g>
       <use style="stroke:#000000;stroke-width:0.5;" x="72.0" xlink:href="#m728421d6d4" y="53.9819142796"/>
      </g>
     </g>
     <g id="text_10">
      <!-- 1.6 -->
      <g transform="translate(58.15121 55.8991280296)scale(0.06948 -0.06948)">
       <use xlink:href="#DejaVuSans-31"/>
       <use x="63.623046875" xlink:href="#DejaVuSans-2e"/>
       <use x="95.41015625" xlink:href="#DejaVuSans-36"/>
      </g>
     </g>
    </g>
    <g id="text_11">
     <!-- % of interactions -->
     <defs>
      <path d="
M30.6094 48.3906
Q23.3906 48.3906 19.1875 42.75
Q14.9844 37.1094 14.9844 27.2969
Q14.9844 17.4844 19.1562 11.8438
Q23.3438 6.20312 30.6094 6.20312
Q37.7969 6.20312 41.9844 11.8594
Q46.1875 17.5312 46.1875 27.2969
Q46.1875 37.0156 41.9844 42.7031
Q37.7969 48.3906 30.6094 48.3906
M30.6094 56
Q42.3281 56 49.0156 48.375
Q55.7188 40.7656 55.7188 27.2969
Q55.7188 13.875 49.0156 6.21875
Q42.3281 -1.42188 30.6094 -1.42188
Q18.8438 -1.42188 12.1719 6.21875
Q5.51562 13.875 5.51562 27.2969
Q5.51562 40.7656 12.1719 48.375
Q18.8438 56 30.6094 56" id="DejaVuSans-6f"/>
      <path d="
M54.8906 33.0156
L54.8906 0
L45.9062 0
L45.9062 32.7188
Q45.9062 40.4844 42.875 44.3281
Q39.8438 48.1875 33.7969 48.1875
Q26.5156 48.1875 22.3125 43.5469
Q18.1094 38.9219 18.1094 30.9062
L18.1094 0
L9.07812 0
L9.07812 54.6875
L18.1094 54.6875
L18.1094 46.1875
Q21.3438 51.125 25.7031 53.5625
Q30.0781 56 35.7969 56
Q45.2188 56 50.0469 50.1719
Q54.8906 44.3438 54.8906 33.0156" id="DejaVuSans-6e"/>
      <path d="
M72.7031 32.0781
Q68.4531 32.0781 66.0312 28.4688
Q63.625 24.8594 63.625 18.4062
Q63.625 12.0625 66.0312 8.42188
Q68.4531 4.78125 72.7031 4.78125
Q76.8594 4.78125 79.2656 8.42188
Q81.6875 12.0625 81.6875 18.4062
Q81.6875 24.8125 79.2656 28.4375
Q76.8594 32.0781 72.7031 32.0781
M72.7031 38.2812
Q80.4219 38.2812 84.9531 32.9062
Q89.5 27.5469 89.5 18.4062
Q89.5 9.28125 84.9375 3.92188
Q80.375 -1.42188 72.7031 -1.42188
Q64.8906 -1.42188 60.3438 3.92188
Q55.8125 9.28125 55.8125 18.4062
Q55.8125 27.5938 60.375 32.9375
Q64.9375 38.2812 72.7031 38.2812
M22.3125 68.0156
Q18.1094 68.0156 15.6875 64.375
Q13.2812 60.75 13.2812 54.3906
Q13.2812 47.9531 15.6719 44.3281
Q18.0625 40.7188 22.3125 40.7188
Q26.5625 40.7188 28.9688 44.3281
Q31.3906 47.9531 31.3906 54.3906
Q31.3906 60.6875 28.9531 64.3438
Q26.5156 68.0156 22.3125 68.0156
M66.4062 74.2188
L74.2188 74.2188
L28.6094 -1.42188
L20.7969 -1.42188
z

M22.3125 74.2188
Q30.0312 74.2188 34.6094 68.875
Q39.2031 63.5312 39.2031 54.3906
Q39.2031 45.1719 34.6406 39.8438
Q30.0781 34.5156 22.3125 34.5156
Q14.5469 34.5156 10.0312 39.8594
Q5.51562 45.2188 5.51562 54.3906
Q5.51562 63.4844 10.0469 68.8438
Q14.5938 74.2188 22.3125 74.2188" id="DejaVuSans-25"/>
      <path d="
M37.1094 75.9844
L37.1094 68.5
L28.5156 68.5
Q23.6875 68.5 21.7969 66.5469
Q19.9219 64.5938 19.9219 59.5156
L19.9219 54.6875
L34.7188 54.6875
L34.7188 47.7031
L19.9219 47.7031
L19.9219 0
L10.8906 0
L10.8906 47.7031
L2.29688 47.7031
L2.29688 54.6875
L10.8906 54.6875
L10.8906 58.5
Q10.8906 67.625 15.1406 71.7969
Q19.3906 75.9844 28.6094 75.9844
z
" id="DejaVuSans-66"/>
      <path d="
M18.3125 70.2188
L18.3125 54.6875
L36.8125 54.6875
L36.8125 47.7031
L18.3125 47.7031
L18.3125 18.0156
Q18.3125 11.3281 20.1406 9.42188
Q21.9688 7.51562 27.5938 7.51562
L36.8125 7.51562
L36.8125 0
L27.5938 0
Q17.1875 0 13.2344 3.875
Q9.28125 7.76562 9.28125 18.0156
L9.28125 47.7031
L2.6875 47.7031
L2.6875 54.6875
L9.28125 54.6875
L9.28125 70.2188
z
" id="DejaVuSans-74"/>
      <path d="
M48.7812 52.5938
L48.7812 44.1875
Q44.9688 46.2969 41.1406 47.3438
Q37.3125 48.3906 33.4062 48.3906
Q24.6562 48.3906 19.8125 42.8438
Q14.9844 37.3125 14.9844 27.2969
Q14.9844 17.2812 19.8125 11.7344
Q24.6562 6.20312 33.4062 6.20312
Q37.3125 6.20312 41.1406 7.25
Q44.9688 8.29688 48.7812 10.4062
L48.7812 2.09375
Q45.0156 0.34375 40.9844 -0.53125
Q36.9688 -1.42188 32.4219 -1.42188
Q20.0625 -1.42188 12.7812 6.34375
Q5.51562 14.1094 5.51562 27.2969
Q5.51562 40.6719 12.8594 48.3281
Q20.2188 56 33.0156 56
Q37.1562 56 41.1094 55.1406
Q45.0625 54.2969 48.7812 52.5938" id="DejaVuSans-63"/>
      <path d="
M34.2812 27.4844
Q23.3906 27.4844 19.1875 25
Q14.9844 22.5156 14.9844 16.5
Q14.9844 11.7188 18.1406 8.90625
Q21.2969 6.10938 26.7031 6.10938
Q34.1875 6.10938 38.7031 11.4062
Q43.2188 16.7031 43.2188 25.4844
L43.2188 27.4844
z

M52.2031 31.2031
L52.2031 0
L43.2188 0
L43.2188 8.29688
Q40.1406 3.32812 35.5469 0.953125
Q30.9531 -1.42188 24.3125 -1.42188
Q15.9219 -1.42188 10.9531 3.29688
Q6 8.01562 6 15.9219
Q6 25.1406 12.1719 29.8281
Q18.3594 34.5156 30.6094 34.5156
L43.2188 34.5156
L43.2188 35.4062
Q43.2188 41.6094 39.1406 45
Q35.0625 48.3906 27.6875 48.3906
Q23 48.3906 18.5469 47.2656
Q14.1094 46.1406 10.0156 43.8906
L10.0156 52.2031
Q14.9375 54.1094 19.5781 55.0469
Q24.2188 56 28.6094 56
Q40.4844 56 46.3438 49.8438
Q52.2031 43.7031 52.2031 31.2031" id="DejaVuSans-61"/>
     </defs>
     <g transform="translate(50.71952625 258.13314)rotate(-90.0)scale(0.09996 -0.09996)">
      <use xlink:href="#DejaVuSans-25"/>
      <use x="95.01953125" xlink:href="#DejaVuSans-20"/>
      <use x="126.806640625" xlink:href="#DejaVuSans-6f"/>
      <use x="187.98828125" xlink:href="#DejaVuSans-66"/>
      <use x="223.193359375" xlink:href="#DejaVuSans-20"/>
      <use x="254.98046875" xlink:href="#DejaVuSans-69"/>
      <use x="282.763671875" xlink:href="#DejaVuSans-6e"/>
      <use x="346.142578125" xlink:href="#DejaVuSans-74"/>
      <use x="385.3515625" xlink:href="#DejaVuSans-65"/>
      <use x="446.875" xlink:href="#DejaVuSans-72"/>
      <use x="487.98828125" xlink:href="#DejaVuSans-61"/>
      <use x="549.267578125" xlink:href="#DejaVuSans-63"/>
      <use x="604.248046875" xlink:href="#DejaVuSans-74"/>
      <use x="643.45703125" xlink:href="#DejaVuSans-69"/>
      <use x="671.240234375" xlink:href="#DejaVuSans-6f"/>
      <use x="732.421875" xlink:href="#DejaVuSans-6e"/>
      <use x="795.80078125" xlink:href="#DejaVuSans-73"/>
     </g>
    </g>
   </g>
   <g id="patch_402">
    <path d="
M72 388.8
L518.4 388.8" style="fill:none;stroke:#000000;"/>
   </g>
   <g id="patch_403">
    <path d="
M72 388.8
L72 43.2" style="fill:none;stroke:#000000;"/>
   </g>
  </g>
  <g id="text_12">
   <!-- % of interactions between A and A -->
   <defs>
    <path d="
M4.20312 54.6875
L13.1875 54.6875
L24.4219 12.0156
L35.5938 54.6875
L46.1875 54.6875
L57.4219 12.0156
L68.6094 54.6875
L77.5938 54.6875
L63.2812 0
L52.6875 0
L40.9219 44.8281
L29.1094 0
L18.5 0
z
" id="DejaVuSans-77"/>
    <path d="
M48.6875 27.2969
Q48.6875 37.2031 44.6094 42.8438
Q40.5312 48.4844 33.4062 48.4844
Q26.2656 48.4844 22.1875 42.8438
Q18.1094 37.2031 18.1094 27.2969
Q18.1094 17.3906 22.1875 11.75
Q26.2656 6.10938 33.4062 6.10938
Q40.5312 6.10938 44.6094 11.75
Q48.6875 17.3906 48.6875 27.2969
M18.1094 46.3906
Q20.9531 51.2656 25.2656 53.625
Q29.5938 56 35.5938 56
Q45.5625 56 51.7812 48.0938
Q58.0156 40.1875 58.0156 27.2969
Q58.0156 14.4062 51.7812 6.48438
Q45.5625 -1.42188 35.5938 -1.42188
Q29.5938 -1.42188 25.2656 0.953125
Q20.9531 3.32812 18.1094 8.20312
L18.1094 0
L9.07812 0
L9.07812 75.9844
L18.1094 75.9844
z
" id="DejaVuSans-62"/>
   </defs>
   <g transform="translate(184.10625 17.758125)scale(0.12 -0.12)">
    <use xlink:href="#DejaVuSans-25"/>
    <use x="95.01953125" xlink:href="#DejaVuSans-20"/>
    <use x="126.806640625" xlink:href="#DejaVuSans-6f"/>
    <use x="187.98828125" xlink:href="#DejaVuSans-66"/>
    <use x="223.193359375" xlink:href="#DejaVuSans-20"/>
    <use x="254.98046875" xlink:href="#DejaVuSans-69"/>
    <use x="282.763671875" xlink:href="#DejaVuSans-6e"/>
    <use x="346.142578125" xlink:href="#DejaVuSans-74"/>
    <use x="385.3515625" xlink:href="#DejaVuSans-65"/>
    <use x="446.875" xlink:href="#DejaVuSans-72"/>
    <use x="487.98828125" xlink:href="#DejaVuSans-61"/>
    <use x="549.267578125" xlink:href="#DejaVuSans-63"/>
    <use x="604.248046875" xlink:href="#DejaVuSans-74"/>
    <use x="643.45703125" xlink:href="#DejaVuSans-69"/>
    <use x="671.240234375" xlink:href="#DejaVuSans-6f"/>
    <use x="732.421875" xlink:href="#DejaVuSans-6e"/>
    <use x="795.80078125" xlink:href="#DejaVuSans-73"/>
    <use x="847.900390625" xlink:href="#DejaVuSans-20"/>
    <use x="879.6875" xlink:href="#DejaVuSans-62"/>
    <use x="943.1640625" xlink:href="#DejaVuSans-65"/>
    <use x="1004.6875" xlink:href="#DejaVuSans-74"/>
    <use x="1043.89648438" xlink:href="#DejaVuSans-77"/>
    <use x="1125.68359375" xlink:href="#DejaVuSans-65"/>
    <use x="1187.20703125" xlink:href="#DejaVuSans-65"/>
    <use x="1248.73046875" xlink:href="#DejaVuSans-6e"/>
    <use x="1312.109375" xlink:href="#DejaVuSans-20"/>
    <use x="1343.89648438" xlink:href="#DejaVuSans-41"/>
    <use x="1412.3046875" xlink:href="#DejaVuSans-20"/>
    <use x="1444.09179688" xlink:href="#DejaVuSans-61"/>
    <use x="1505.37109375" xlink:href="#DejaVuSans-6e"/>
    <use x="1568.75" xlink:href="#DejaVuSans-64"/>
    <use x="1632.2265625" xlink:href="#DejaVuSans-20"/>
    <use x="1664.01367188" xlink:href="#DejaVuSans-41"/>
   </g>
  </g>
 </g>
 <defs>
  <clipPath id="p7ff5b81e1d">
   <rect height="345.6" width="446.4" x="72.0" y="43.2"/>
  </clipPath>
 </defs>
</svg>
