<?xml version="1.0" encoding="utf-8" standalone="no"?>
<!DOCTYPE svg PUBLIC "-//W3C//DTD SVG 1.1//EN"
  "http://www.w3.org/Graphics/SVG/1.1/DTD/svg11.dtd">
<!-- Created with matplotlib (http://matplotlib.org/) -->
<svg height="446pt" version="1.1" viewBox="0 0 576 446" width="576pt" xmlns="http://www.w3.org/2000/svg" xmlns:xlink="http://www.w3.org/1999/xlink">
 <defs>
  <style type="text/css">
*{stroke-linecap:butt;stroke-linejoin:round;}
  </style>
 </defs>
 <g id="figure_1">
  <g id="patch_1">
   <path d="
M0 446.4
L576 446.4
L576 0
L0 0
z
" style="fill:#ffffff;"/>
  </g>
  <g id="axes_1">
   <g id="patch_2">
    <path d="
M51.84 200.974
L552.96 200.974
L552.96 44.64
L51.84 44.64
z
" style="fill:#ffffff;"/>
   </g>
   <g id="line2d_1">
    <path clip-path="url(#p574659481c)" d="
M51.84 44.64
L54.3582 44.64
L56.8764 44.64
L59.3946 46.8113
L61.9128 46.8113
L64.431 48.9826
L66.9491 53.3252
L69.4673 66.3531
L71.9855 71.7814
L74.5037 85.8949
L77.0219 89.1518
L79.5401 90.2375
L82.0583 96.7514
L84.5765 107.608
L87.0947 113.036
L89.6129 114.122
L92.1311 122.807
L94.6492 121.721
L97.1674 127.15
L102.204 142.349
L104.722 146.691
L107.24 146.691
L109.758 145.606
L114.795 152.12
L117.313 148.863
L119.831 154.291
L122.349 152.12
L124.868 154.291
L127.386 154.291
L129.904 159.719
L132.422 161.891
L134.94 165.148
L137.458 167.319
L139.977 167.319
L145.013 169.49
L147.531 169.49
L150.049 172.747
L152.568 172.747
L155.086 173.833
L157.604 172.747
L160.122 177.09
L162.64 180.347
L170.195 183.604
L172.713 183.604
L177.75 185.775
L180.268 185.775
L182.786 187.946
L185.304 186.861
L190.341 186.861
L192.859 187.946
L195.377 190.118
L197.895 187.946
L200.413 186.861
L202.931 190.118
L205.45 189.032
L207.968 190.118
L210.486 192.289
L213.004 191.203
L218.041 191.203
L220.559 190.118
L223.077 192.289
L225.595 191.203
L228.113 191.203
L230.632 192.289
L233.15 192.289
L235.668 191.203
L240.704 191.203
L243.223 189.032
L245.741 192.289
L248.259 192.289
L250.777 193.375
L270.923 193.375
L273.441 195.546
L278.477 195.546
L283.514 197.717
L293.586 197.717
L296.105 196.632
L298.623 197.717
L301.141 196.632
L303.659 198.803
L306.177 198.803
L311.214 196.632
L313.732 198.803
L316.25 196.632
L318.768 197.717
L321.286 197.717
L323.805 198.803
L328.841 198.803
L331.359 197.717
L333.877 197.717
L336.396 198.803
L391.796 198.803
L394.314 197.717
L396.832 198.803
L399.35 197.717
L401.869 198.803
L424.532 198.803
L427.05 197.717
L429.569 198.803
L437.123 198.803
L439.641 197.717
L442.16 198.803
L444.678 198.803
L447.196 197.717
L449.714 198.803
L452.232 198.803
L454.751 197.717
L459.787 197.717
L462.305 198.803
L464.823 197.717
L477.414 197.717
L479.932 198.803
L482.451 197.717
L484.969 198.803
L527.778 198.803
L530.296 199.889
L552.96 199.889
L552.96 199.889" style="fill:none;stroke:#000080;stroke-linecap:square;stroke-width:2.0;"/>
   </g>
   <g id="line2d_2">
    <path clip-path="url(#p574659481c)" d="
M51.84 200.974
L54.3582 200.974
L56.8764 200.974
L59.3946 198.803
L61.9128 198.803
L64.431 196.632
L66.9491 192.289
L69.4673 179.261
L71.9855 177.09
L74.5037 166.233
L77.0219 166.233
L79.5401 168.405
L82.0583 168.405
L84.5765 157.548
L87.0947 161.891
L89.6129 157.548
L94.6492 153.205
L97.1674 155.377
L99.6856 146.691
L102.204 144.52
L104.722 144.52
L107.24 146.691
L109.758 153.205
L112.277 148.863
L114.795 155.377
L117.313 151.034
L119.831 142.349
L122.349 146.691
L124.868 144.52
L127.386 146.691
L129.904 146.691
L132.422 144.52
L134.94 148.863
L137.458 146.691
L139.977 146.691
L145.013 155.377
L147.531 155.377
L150.049 159.719
L155.086 159.719
L157.604 166.233
L162.64 170.576
L167.677 170.576
L172.713 166.233
L175.231 166.233
L180.268 170.576
L182.786 166.233
L185.304 166.233
L187.822 161.891
L190.341 161.891
L192.859 172.747
L195.377 168.405
L197.895 168.405
L200.413 172.747
L202.931 179.261
L207.968 174.918
L210.486 174.918
L213.004 172.747
L215.522 172.747
L218.041 174.918
L220.559 174.918
L223.077 177.09
L228.113 177.09
L233.15 181.432
L235.668 179.261
L255.813 179.261
L258.332 181.432
L260.85 179.261
L270.923 179.261
L273.441 181.432
L275.959 181.432
L278.477 179.261
L280.995 179.261
L286.032 183.604
L291.068 183.604
L293.586 187.946
L313.732 187.946
L316.25 190.118
L343.95 190.118
L346.468 192.289
L348.987 190.118
L379.205 190.118
L381.723 192.289
L389.278 192.289
L391.796 194.46
L396.832 194.46
L399.35 192.289
L401.869 192.289
L404.387 194.46
L406.905 192.289
L409.423 194.46
L411.941 192.289
L432.087 192.289
L434.605 194.46
L542.887 194.46
L545.405 196.632
L547.924 194.46
L552.96 194.46
L552.96 194.46" style="fill:none;stroke:#00009b;stroke-linecap:square;stroke-width:2.0;"/>
   </g>
   <g id="line2d_3">
    <path clip-path="url(#p574659481c)" d="
M51.84 200.974
L69.4673 200.974
L79.5401 187.946
L82.0583 181.432
L84.5765 181.432
L87.0947 171.662
L89.6129 174.918
L92.1311 168.405
L94.6492 171.662
L99.6856 165.148
L102.204 168.405
L104.722 168.405
L107.24 171.662
L114.795 171.662
L119.831 178.175
L122.349 171.662
L124.868 171.662
L127.386 168.405
L132.422 168.405
L134.94 161.891
L139.977 161.891
L145.013 168.405
L147.531 168.405
L150.049 165.148
L152.568 165.148
L155.086 168.405
L160.122 168.405
L162.64 165.148
L165.159 168.405
L167.677 168.405
L170.195 158.634
L172.713 155.377
L175.231 161.891
L177.75 161.891
L180.268 168.405
L182.786 165.148
L187.822 165.148
L190.341 168.405
L192.859 174.918
L195.377 171.662
L197.895 165.148
L200.413 174.918
L202.931 174.918
L205.45 181.432
L210.486 181.432
L213.004 171.662
L215.522 181.432
L218.041 178.175
L220.559 181.432
L230.632 181.432
L233.15 191.203
L235.668 184.689
L238.186 181.432
L243.223 181.432
L245.741 174.918
L248.259 181.432
L250.777 184.689
L265.886 184.689
L268.404 187.946
L270.923 187.946
L273.441 191.203
L275.959 184.689
L278.477 184.689
L280.995 187.946
L283.514 194.46
L286.032 191.203
L293.586 191.203
L298.623 197.717
L301.141 197.717
L303.659 200.974
L306.177 197.717
L308.695 200.974
L311.214 200.974
L313.732 197.717
L341.432 197.717
L343.95 200.974
L346.468 197.717
L359.059 197.717
L361.577 200.974
L366.614 200.974
L369.132 197.717
L371.65 197.717
L374.168 200.974
L376.687 200.974
L379.205 197.717
L381.723 200.974
L384.241 197.717
L391.796 197.717
L394.314 200.974
L396.832 197.717
L401.869 197.717
L404.387 200.974
L406.905 197.717
L411.941 197.717
L414.459 200.974
L416.978 197.717
L419.496 200.974
L422.014 200.974
L424.532 197.717
L429.569 197.717
L432.087 200.974
L434.605 197.717
L437.123 200.974
L439.641 197.717
L454.751 197.717
L457.269 200.974
L459.787 200.974
L462.305 197.717
L464.823 200.974
L479.932 200.974
L482.451 197.717
L484.969 200.974
L552.96 200.974
L552.96 200.974" style="fill:none;stroke:#0000b6;stroke-linecap:square;stroke-width:2.0;"/>
   </g>
   <g id="line2d_4">
    <path clip-path="url(#p574659481c)" d="
M51.84 200.974
L94.6492 200.974
L97.1674 196.632
L99.6856 200.974
L102.204 192.289
L104.722 187.946
L109.758 187.946
L114.795 179.261
L117.313 183.604
L119.831 183.604
L122.349 187.946
L124.868 187.946
L127.386 183.604
L132.422 183.604
L134.94 187.946
L139.977 187.946
L145.013 170.576
L147.531 170.576
L150.049 166.233
L152.568 166.233
L157.604 157.548
L162.64 166.233
L165.159 174.918
L167.677 166.233
L172.713 166.233
L180.268 179.261
L182.786 179.261
L185.304 174.918
L187.822 179.261
L190.341 179.261
L192.859 166.233
L195.377 183.604
L197.895 179.261
L205.45 179.261
L207.968 183.604
L210.486 174.918
L215.522 183.604
L220.559 183.604
L223.077 187.946
L225.595 183.604
L230.632 183.604
L233.15 192.289
L235.668 187.946
L238.186 179.261
L240.704 183.604
L243.223 174.918
L245.741 183.604
L263.368 183.604
L268.404 192.289
L270.923 187.946
L273.441 179.261
L275.959 183.604
L278.477 183.604
L280.995 179.261
L283.514 183.604
L286.032 183.604
L288.55 192.289
L291.068 183.604
L293.586 187.946
L296.105 174.918
L301.141 166.233
L303.659 183.604
L306.177 183.604
L308.695 179.261
L311.214 179.261
L313.732 174.918
L316.25 179.261
L318.768 179.261
L321.286 183.604
L323.805 174.918
L326.323 183.604
L328.841 174.918
L331.359 170.576
L333.877 179.261
L336.396 174.918
L341.432 174.918
L346.468 192.289
L348.987 179.261
L351.505 174.918
L354.023 179.261
L356.541 179.261
L359.059 187.946
L374.168 187.946
L376.687 179.261
L379.205 179.261
L381.723 192.289
L391.796 192.289
L394.314 187.946
L399.35 187.946
L404.387 196.632
L406.905 192.289
L409.423 196.632
L411.941 192.289
L414.459 192.289
L416.978 183.604
L427.05 183.604
L429.569 192.289
L479.932 192.289
L482.451 196.632
L484.969 192.289
L552.96 192.289
L552.96 192.289" style="fill:none;stroke:#0000d6;stroke-linecap:square;stroke-width:2.0;"/>
   </g>
   <g id="line2d_5">
    <path clip-path="url(#p574659481c)" d="
M51.84 200.974
L104.722 200.974
L109.758 190.118
L112.277 195.546
L114.795 190.118
L124.868 190.118
L127.386 195.546
L129.904 190.118
L132.422 190.118
L134.94 184.689
L155.086 184.689
L157.604 190.118
L160.122 179.261
L162.64 179.261
L165.159 173.833
L167.677 173.833
L170.195 184.689
L172.713 190.118
L175.231 184.689
L177.75 184.689
L180.268 179.261
L185.304 190.118
L187.822 190.118
L190.341 195.546
L195.377 184.689
L197.895 190.118
L200.413 184.689
L202.931 184.689
L205.45 179.261
L207.968 184.689
L218.041 184.689
L220.559 190.118
L223.077 184.689
L225.595 190.118
L228.113 190.118
L230.632 184.689
L235.668 184.689
L238.186 179.261
L240.704 184.689
L243.223 195.546
L245.741 184.689
L268.404 184.689
L270.923 190.118
L273.441 184.689
L275.959 184.689
L278.477 190.118
L286.032 173.833
L288.55 173.833
L291.068 179.261
L296.105 179.261
L298.623 184.689
L301.141 184.689
L306.177 173.833
L308.695 184.689
L311.214 184.689
L313.732 173.833
L316.25 184.689
L318.768 184.689
L321.286 179.261
L326.323 179.261
L328.841 173.833
L331.359 184.689
L333.877 184.689
L336.396 173.833
L338.914 173.833
L341.432 179.261
L374.168 179.261
L376.687 184.689
L379.205 179.261
L381.723 184.689
L384.241 179.261
L386.759 179.261
L389.278 184.689
L391.796 184.689
L394.314 190.118
L396.832 184.689
L399.35 190.118
L401.869 184.689
L414.459 184.689
L416.978 179.261
L419.496 184.689
L434.605 184.689
L437.123 190.118
L439.641 190.118
L442.16 184.689
L444.678 190.118
L472.378 190.118
L474.896 195.546
L552.96 195.546
L552.96 195.546" style="fill:none;stroke:#0000f1;stroke-linecap:square;stroke-width:2.0;"/>
   </g>
   <g id="line2d_6">
    <path clip-path="url(#p574659481c)" d="
M51.84 200.974
L155.086 200.974
L157.604 194.46
L160.122 194.46
L162.64 187.946
L172.713 187.946
L175.231 181.432
L192.859 181.432
L195.377 168.405
L200.413 168.405
L202.931 174.918
L205.45 168.405
L207.968 168.405
L210.486 174.918
L213.004 174.918
L218.041 161.891
L220.559 161.891
L223.077 174.918
L228.113 174.918
L230.632 168.405
L233.15 155.377
L235.668 161.891
L243.223 161.891
L245.741 174.918
L248.259 168.405
L250.777 181.432
L255.813 181.432
L258.332 187.946
L260.85 181.432
L273.441 181.432
L275.959 187.946
L278.477 181.432
L283.514 181.432
L286.032 187.946
L288.55 187.946
L291.068 194.46
L293.586 194.46
L296.105 187.946
L298.623 194.46
L301.141 187.946
L306.177 187.946
L308.695 194.46
L311.214 194.46
L313.732 187.946
L316.25 194.46
L326.323 194.46
L328.841 187.946
L331.359 194.46
L333.877 194.46
L336.396 187.946
L338.914 187.946
L341.432 194.46
L343.95 187.946
L346.468 187.946
L348.987 194.46
L371.65 194.46
L374.168 187.946
L376.687 194.46
L379.205 187.946
L386.759 187.946
L389.278 194.46
L396.832 194.46
L399.35 200.974
L401.869 200.974
L404.387 194.46
L406.905 200.974
L409.423 194.46
L411.941 200.974
L414.459 194.46
L419.496 194.46
L422.014 200.974
L429.569 200.974
L432.087 194.46
L434.605 194.46
L437.123 200.974
L439.641 194.46
L442.16 194.46
L444.678 200.974
L447.196 194.46
L449.714 200.974
L452.232 200.974
L454.751 194.46
L459.787 194.46
L462.305 200.974
L464.823 194.46
L474.896 194.46
L477.414 187.946
L482.451 200.974
L487.487 200.974
L490.005 194.46
L492.523 200.974
L507.633 200.974
L510.151 194.46
L512.669 200.974
L517.705 200.974
L520.224 194.46
L522.742 200.974
L525.26 200.974
L527.778 194.46
L530.296 200.974
L537.851 200.974
L540.369 194.46
L542.887 200.974
L552.96 200.974
L552.96 200.974" style="fill:none;stroke:#0000ff;stroke-linecap:square;stroke-width:2.0;"/>
   </g>
   <g id="line2d_7">
    <path clip-path="url(#p574659481c)" d="
M51.84 200.974
L162.64 200.974
L165.159 193.375
L167.677 200.974
L175.231 200.974
L180.268 185.775
L192.859 185.775
L197.895 200.974
L202.931 185.775
L213.004 185.775
L215.522 178.175
L218.041 185.775
L223.077 170.576
L230.632 170.576
L233.15 162.976
L238.186 178.175
L243.223 178.175
L245.741 170.576
L248.259 170.576
L250.777 162.976
L265.886 162.976
L268.404 155.377
L270.923 162.976
L273.441 178.175
L293.586 178.175
L296.105 185.775
L343.95 185.775
L346.468 193.375
L348.987 193.375
L351.505 185.775
L354.023 193.375
L409.423 193.375
L411.941 200.974
L432.087 200.974
L434.605 193.375
L437.123 193.375
L439.641 200.974
L442.16 193.375
L444.678 193.375
L447.196 200.974
L449.714 193.375
L452.232 193.375
L454.751 200.974
L459.787 200.974
L462.305 193.375
L464.823 200.974
L477.414 200.974
L479.932 193.375
L552.96 193.375
L552.96 193.375" style="fill:none;stroke:#0018ff;stroke-linecap:square;stroke-width:2.0;"/>
   </g>
   <g id="line2d_8">
    <path clip-path="url(#p574659481c)" d="
M51.84 200.974
L187.822 200.974
L190.341 192.289
L192.859 192.289
L195.377 200.974
L200.413 200.974
L202.931 192.289
L205.45 200.974
L207.968 192.289
L210.486 192.289
L213.004 200.974
L220.559 200.974
L223.077 192.289
L228.113 192.289
L230.632 200.974
L255.813 200.974
L258.332 192.289
L260.85 200.974
L268.404 200.974
L270.923 192.289
L278.477 192.289
L280.995 200.974
L283.514 192.289
L286.032 192.289
L288.55 183.604
L291.068 192.289
L293.586 183.604
L296.105 192.289
L301.141 192.289
L303.659 174.918
L306.177 183.604
L311.214 183.604
L313.732 192.289
L321.286 192.289
L323.805 200.974
L326.323 192.289
L328.841 200.974
L331.359 200.974
L333.877 192.289
L336.396 200.974
L341.432 200.974
L343.95 183.604
L348.987 200.974
L356.541 200.974
L359.059 192.289
L371.65 192.289
L374.168 183.604
L376.687 200.974
L379.205 200.974
L381.723 192.289
L394.314 192.289
L396.832 200.974
L399.35 192.289
L411.941 192.289
L414.459 183.604
L416.978 200.974
L419.496 192.289
L422.014 200.974
L427.05 200.974
L432.087 183.604
L434.605 192.289
L474.896 192.289
L477.414 183.604
L479.932 183.604
L482.451 192.289
L487.487 192.289
L490.005 183.604
L492.523 192.289
L507.633 192.289
L510.151 183.604
L512.669 192.289
L517.705 192.289
L520.224 183.604
L522.742 192.289
L525.26 192.289
L527.778 183.604
L530.296 200.974
L537.851 200.974
L540.369 192.289
L542.887 200.974
L552.96 200.974
L552.96 200.974" style="fill:none;stroke:#0030ff;stroke-linecap:square;stroke-width:2.0;"/>
   </g>
   <g id="line2d_9">
    <path clip-path="url(#p574659481c)" d="
M51.84 200.974
L192.859 200.974
L195.377 191.203
L235.668 191.203
L238.186 200.974
L240.704 191.203
L248.259 191.203
L250.777 181.432
L263.368 181.432
L265.886 191.203
L270.923 191.203
L273.441 181.432
L308.695 181.432
L311.214 171.662
L313.732 181.432
L316.25 171.662
L318.768 181.432
L321.286 171.662
L323.805 181.432
L356.541 181.432
L359.059 200.974
L424.532 200.974
L427.05 191.203
L429.569 200.974
L527.778 200.974
L530.296 191.203
L542.887 191.203
L545.405 200.974
L547.924 191.203
L552.96 191.203
L552.96 191.203" style="fill:none;stroke:#004cff;stroke-linecap:square;stroke-width:2.0;"/>
   </g>
   <g id="line2d_10">
    <path clip-path="url(#p574659481c)" d="
M51.84 200.974
L293.586 200.974
L296.105 190.118
L308.695 190.118
L311.214 200.974
L313.732 190.118
L316.25 190.118
L318.768 179.261
L321.286 190.118
L323.805 179.261
L374.168 179.261
L376.687 190.118
L381.723 190.118
L384.241 179.261
L424.532 179.261
L427.05 190.118
L429.569 179.261
L472.378 179.261
L474.896 190.118
L552.96 190.118
L552.96 190.118" style="fill:none;stroke:#0064ff;stroke-linecap:square;stroke-width:2.0;"/>
   </g>
   <g id="line2d_11">
    <path clip-path="url(#p574659481c)" d="
M51.84 200.974
L288.55 200.974
L291.068 189.032
L293.586 189.032
L296.105 200.974
L298.623 189.032
L301.141 200.974
L313.732 200.974
L316.25 189.032
L326.323 189.032
L328.841 200.974
L331.359 189.032
L333.877 189.032
L336.396 200.974
L338.914 200.974
L341.432 189.032
L343.95 200.974
L346.468 177.09
L348.987 177.09
L351.505 189.032
L354.023 177.09
L359.059 177.09
L361.577 189.032
L366.614 189.032
L369.132 177.09
L371.65 177.09
L374.168 189.032
L381.723 189.032
L384.241 177.09
L386.759 177.09
L389.278 165.148
L394.314 189.032
L396.832 177.09
L401.869 177.09
L404.387 189.032
L406.905 177.09
L411.941 177.09
L414.459 189.032
L422.014 189.032
L424.532 177.09
L429.569 177.09
L432.087 189.032
L437.123 189.032
L439.641 177.09
L442.16 189.032
L444.678 177.09
L454.751 177.09
L457.269 189.032
L459.787 189.032
L462.305 177.09
L464.823 189.032
L542.887 189.032
L545.405 177.09
L547.924 189.032
L552.96 189.032
L552.96 189.032" style="fill:none;stroke:#0080ff;stroke-linecap:square;stroke-width:2.0;"/>
   </g>
   <g id="line2d_12">
    <path clip-path="url(#p574659481c)" d="
M51.84 200.974
L270.923 200.974
L273.441 187.946
L275.959 200.974
L552.96 200.974
L552.96 200.974" style="fill:none;stroke:#0098ff;stroke-linecap:square;stroke-width:2.0;"/>
   </g>
   <g id="line2d_13">
    <path clip-path="url(#p574659481c)" d="
M51.84 200.974
L263.368 200.974
L265.886 186.861
L270.923 186.861
L273.441 200.974
L275.959 200.974
L278.477 186.861
L280.995 200.974
L389.278 200.974
L391.796 186.861
L394.314 186.861
L396.832 200.974
L552.96 200.974
L552.96 200.974" style="fill:none;stroke:#00b0ff;stroke-linecap:square;stroke-width:2.0;"/>
   </g>
   <g id="line2d_14">
    <path clip-path="url(#p574659481c)" d="
M51.84 200.974
L306.177 200.974
L308.695 185.775
L311.214 185.775
L313.732 200.974
L359.059 200.974
L361.577 185.775
L366.614 185.775
L369.132 200.974
L374.168 200.974
L376.687 185.775
L379.205 200.974
L381.723 185.775
L384.241 200.974
L391.796 200.974
L394.314 185.775
L396.832 200.974
L401.869 200.974
L404.387 185.775
L406.905 200.974
L419.496 200.974
L422.014 185.775
L424.532 200.974
L434.605 200.974
L437.123 185.775
L439.641 200.974
L454.751 200.974
L457.269 185.775
L459.787 185.775
L462.305 200.974
L464.823 185.775
L474.896 185.775
L477.414 200.974
L479.932 200.974
L482.451 185.775
L487.487 185.775
L490.005 200.974
L492.523 185.775
L507.633 185.775
L510.151 200.974
L512.669 185.775
L517.705 185.775
L520.224 200.974
L522.742 185.775
L525.26 185.775
L527.778 200.974
L530.296 185.775
L537.851 185.775
L540.369 200.974
L542.887 185.775
L552.96 185.775
L552.96 185.775" style="fill:none;stroke:#00ccff;stroke-linecap:square;stroke-width:2.0;"/>
   </g>
   <g id="line2d_15">
    <path clip-path="url(#p574659481c)" d="
M51.84 200.974
L374.168 200.974
L376.687 184.689
L381.723 184.689
L384.241 200.974
L472.378 200.974
L474.896 184.689
L552.96 184.689
L552.96 184.689" style="fill:none;stroke:#00e4f8;stroke-linecap:square;stroke-width:2.0;"/>
   </g>
   <g id="line2d_16">
    <path clip-path="url(#p574659481c)" d="
M51.84 200.974
L273.441 200.974
L275.959 183.604
L278.477 200.974
L280.995 183.604
L381.723 183.604
L384.241 200.974
L552.96 200.974
L552.96 200.974" style="fill:none;stroke:#16ffe1;stroke-linecap:square;stroke-width:2.0;"/>
   </g>
   <g id="line2d_17">
    <path clip-path="url(#p574659481c)" d="
M51.84 200.974
L394.314 200.974
L396.832 182.518
L552.96 182.518
L552.96 182.518" style="fill:none;stroke:#29ffce;stroke-linecap:square;stroke-width:2.0;"/>
   </g>
   <g id="line2d_18">
    <path clip-path="url(#p574659481c)" d="
M51.84 200.974
L356.541 200.974
L359.059 181.432
L381.723 181.432
L384.241 200.974
L552.96 200.974
L552.96 200.974" style="fill:none;stroke:#3cffba;stroke-linecap:square;stroke-width:2.0;"/>
   </g>
   <g id="line2d_19">
    <path clip-path="url(#p574659481c)" d="
M51.84 200.974
L381.723 200.974
L384.241 164.062
L409.423 164.062
L411.941 200.974
L552.96 200.974
L552.96 200.974" style="fill:none;stroke:#ff4e00;stroke-linecap:square;stroke-width:2.0;"/>
   </g>
   <g id="line2d_20">
    <path clip-path="url(#p574659481c)" d="
M51.84 200.974
L409.423 200.974
L411.941 156.462
L552.96 156.462
L552.96 156.462" style="fill:none;stroke:#800000;stroke-linecap:square;stroke-width:2.0;"/>
   </g>
   <g id="matplotlib.axis_1">
    <g id="xtick_1">
     <g id="line2d_21">
      <defs>
       <path d="
M0 0
L0 -4" id="m93b0483c22" style="stroke:#000000;stroke-width:0.5;"/>
      </defs>
      <g>
       <use style="stroke:#000000;stroke-width:0.5;" x="51.84" xlink:href="#m93b0483c22" y="200.974177215"/>
      </g>
     </g>
     <g id="text_1">
      <!-- 0 -->
      <defs>
       <path d="
M31.7812 66.4062
Q24.1719 66.4062 20.3281 58.9062
Q16.5 51.4219 16.5 36.375
Q16.5 21.3906 20.3281 13.8906
Q24.1719 6.39062 31.7812 6.39062
Q39.4531 6.39062 43.2812 13.8906
Q47.125 21.3906 47.125 36.375
Q47.125 51.4219 43.2812 58.9062
Q39.4531 66.4062 31.7812 66.4062
M31.7812 74.2188
Q44.0469 74.2188 50.5156 64.5156
Q56.9844 54.8281 56.9844 36.375
Q56.9844 17.9688 50.5156 8.26562
Q44.0469 -1.42188 31.7812 -1.42188
Q19.5312 -1.42188 13.0625 8.26562
Q6.59375 17.9688 6.59375 36.375
Q6.59375 54.8281 13.0625 64.5156
Q19.5312 74.2188 31.7812 74.2188" id="DejaVuSans-30"/>
      </defs>
      <g transform="translate(49.3214765625 212.56957534)scale(0.09996 -0.09996)">
       <use xlink:href="#DejaVuSans-30"/>
      </g>
     </g>
    </g>
    <g id="xtick_2">
     <g id="line2d_22">
      <g>
       <use style="stroke:#000000;stroke-width:0.5;" x="152.567638191" xlink:href="#m93b0483c22" y="200.974177215"/>
      </g>
     </g>
     <g id="text_2">
      <!-- 2000 -->
      <defs>
       <path d="
M19.1875 8.29688
L53.6094 8.29688
L53.6094 0
L7.32812 0
L7.32812 8.29688
Q12.9375 14.1094 22.625 23.8906
Q32.3281 33.6875 34.8125 36.5312
Q39.5469 41.8438 41.4219 45.5312
Q43.3125 49.2188 43.3125 52.7812
Q43.3125 58.5938 39.2344 62.25
Q35.1562 65.9219 28.6094 65.9219
Q23.9688 65.9219 18.8125 64.3125
Q13.6719 62.7031 7.8125 59.4219
L7.8125 69.3906
Q13.7656 71.7812 18.9375 73
Q24.125 74.2188 28.4219 74.2188
Q39.75 74.2188 46.4844 68.5469
Q53.2188 62.8906 53.2188 53.4219
Q53.2188 48.9219 51.5312 44.8906
Q49.8594 40.875 45.4062 35.4062
Q44.1875 33.9844 37.6406 27.2188
Q31.1094 20.4531 19.1875 8.29688" id="DejaVuSans-32"/>
      </defs>
      <g transform="translate(140.545886316 212.56957534)scale(0.09996 -0.09996)">
       <use xlink:href="#DejaVuSans-32"/>
       <use x="63.623046875" xlink:href="#DejaVuSans-30"/>
       <use x="127.24609375" xlink:href="#DejaVuSans-30"/>
       <use x="190.869140625" xlink:href="#DejaVuSans-30"/>
      </g>
     </g>
    </g>
    <g id="xtick_3">
     <g id="line2d_23">
      <g>
       <use style="stroke:#000000;stroke-width:0.5;" x="253.295276382" xlink:href="#m93b0483c22" y="200.974177215"/>
      </g>
     </g>
     <g id="text_3">
      <!-- 4000 -->
      <defs>
       <path d="
M37.7969 64.3125
L12.8906 25.3906
L37.7969 25.3906
z

M35.2031 72.9062
L47.6094 72.9062
L47.6094 25.3906
L58.0156 25.3906
L58.0156 17.1875
L47.6094 17.1875
L47.6094 0
L37.7969 0
L37.7969 17.1875
L4.89062 17.1875
L4.89062 26.7031
z
" id="DejaVuSans-34"/>
      </defs>
      <g transform="translate(241.151698257 212.56957534)scale(0.09996 -0.09996)">
       <use xlink:href="#DejaVuSans-34"/>
       <use x="63.623046875" xlink:href="#DejaVuSans-30"/>
       <use x="127.24609375" xlink:href="#DejaVuSans-30"/>
       <use x="190.869140625" xlink:href="#DejaVuSans-30"/>
      </g>
     </g>
    </g>
    <g id="xtick_4">
     <g id="line2d_24">
      <g>
       <use style="stroke:#000000;stroke-width:0.5;" x="354.022914573" xlink:href="#m93b0483c22" y="200.974177215"/>
      </g>
     </g>
     <g id="text_4">
      <!-- 6000 -->
      <defs>
       <path d="
M33.0156 40.375
Q26.375 40.375 22.4844 35.8281
Q18.6094 31.2969 18.6094 23.3906
Q18.6094 15.5312 22.4844 10.9531
Q26.375 6.39062 33.0156 6.39062
Q39.6562 6.39062 43.5312 10.9531
Q47.4062 15.5312 47.4062 23.3906
Q47.4062 31.2969 43.5312 35.8281
Q39.6562 40.375 33.0156 40.375
M52.5938 71.2969
L52.5938 62.3125
Q48.875 64.0625 45.0938 64.9844
Q41.3125 65.9219 37.5938 65.9219
Q27.8281 65.9219 22.6719 59.3281
Q17.5312 52.7344 16.7969 39.4062
Q19.6719 43.6562 24.0156 45.9219
Q28.375 48.1875 33.5938 48.1875
Q44.5781 48.1875 50.9531 41.5156
Q57.3281 34.8594 57.3281 23.3906
Q57.3281 12.1562 50.6875 5.35938
Q44.0469 -1.42188 33.0156 -1.42188
Q20.3594 -1.42188 13.6719 8.26562
Q6.98438 17.9688 6.98438 36.375
Q6.98438 53.6562 15.1875 63.9375
Q23.3906 74.2188 37.2031 74.2188
Q40.9219 74.2188 44.7031 73.4844
Q48.4844 72.75 52.5938 71.2969" id="DejaVuSans-36"/>
      </defs>
      <g transform="translate(341.983982073 212.56957534)scale(0.09996 -0.09996)">
       <use xlink:href="#DejaVuSans-36"/>
       <use x="63.623046875" xlink:href="#DejaVuSans-30"/>
       <use x="127.24609375" xlink:href="#DejaVuSans-30"/>
       <use x="190.869140625" xlink:href="#DejaVuSans-30"/>
      </g>
     </g>
    </g>
    <g id="xtick_5">
     <g id="line2d_25">
      <g>
       <use style="stroke:#000000;stroke-width:0.5;" x="454.750552764" xlink:href="#m93b0483c22" y="200.974177215"/>
      </g>
     </g>
     <g id="text_5">
      <!-- 8000 -->
      <defs>
       <path d="
M31.7812 34.625
Q24.75 34.625 20.7188 30.8594
Q16.7031 27.0938 16.7031 20.5156
Q16.7031 13.9219 20.7188 10.1562
Q24.75 6.39062 31.7812 6.39062
Q38.8125 6.39062 42.8594 10.1719
Q46.9219 13.9688 46.9219 20.5156
Q46.9219 27.0938 42.8906 30.8594
Q38.875 34.625 31.7812 34.625
M21.9219 38.8125
Q15.5781 40.375 12.0312 44.7188
Q8.5 49.0781 8.5 55.3281
Q8.5 64.0625 14.7188 69.1406
Q20.9531 74.2188 31.7812 74.2188
Q42.6719 74.2188 48.875 69.1406
Q55.0781 64.0625 55.0781 55.3281
Q55.0781 49.0781 51.5312 44.7188
Q48 40.375 41.7031 38.8125
Q48.8281 37.1562 52.7969 32.3125
Q56.7812 27.4844 56.7812 20.5156
Q56.7812 9.90625 50.3125 4.23438
Q43.8438 -1.42188 31.7812 -1.42188
Q19.7344 -1.42188 13.25 4.23438
Q6.78125 9.90625 6.78125 20.5156
Q6.78125 27.4844 10.7812 32.3125
Q14.7969 37.1562 21.9219 38.8125
M18.3125 54.3906
Q18.3125 48.7344 21.8438 45.5625
Q25.3906 42.3906 31.7812 42.3906
Q38.1406 42.3906 41.7188 45.5625
Q45.3125 48.7344 45.3125 54.3906
Q45.3125 60.0625 41.7188 63.2344
Q38.1406 66.4062 31.7812 66.4062
Q25.3906 66.4062 21.8438 63.2344
Q18.3125 60.0625 18.3125 54.3906" id="DejaVuSans-38"/>
      </defs>
      <g transform="translate(442.701468076 212.56957534)scale(0.09996 -0.09996)">
       <use xlink:href="#DejaVuSans-38"/>
       <use x="63.623046875" xlink:href="#DejaVuSans-30"/>
       <use x="127.24609375" xlink:href="#DejaVuSans-30"/>
       <use x="190.869140625" xlink:href="#DejaVuSans-30"/>
      </g>
     </g>
    </g>
    <g id="text_6">
     <!-- time (ns) -->
     <defs>
      <path d="
M8.01562 75.875
L15.8281 75.875
Q23.1406 64.3594 26.7812 53.3125
Q30.4219 42.2812 30.4219 31.3906
Q30.4219 20.4531 26.7812 9.375
Q23.1406 -1.70312 15.8281 -13.1875
L8.01562 -13.1875
Q14.5 -2 17.7031 9.0625
Q20.9062 20.125 20.9062 31.3906
Q20.9062 42.6719 17.7031 53.6562
Q14.5 64.6562 8.01562 75.875" id="DejaVuSans-29"/>
      <path d="
M52 44.1875
Q55.375 50.25 60.0625 53.125
Q64.75 56 71.0938 56
Q79.6406 56 84.2812 50.0156
Q88.9219 44.0469 88.9219 33.0156
L88.9219 0
L79.8906 0
L79.8906 32.7188
Q79.8906 40.5781 77.0938 44.375
Q74.3125 48.1875 68.6094 48.1875
Q61.625 48.1875 57.5625 43.5469
Q53.5156 38.9219 53.5156 30.9062
L53.5156 0
L44.4844 0
L44.4844 32.7188
Q44.4844 40.625 41.7031 44.4062
Q38.9219 48.1875 33.1094 48.1875
Q26.2188 48.1875 22.1562 43.5312
Q18.1094 38.875 18.1094 30.9062
L18.1094 0
L9.07812 0
L9.07812 54.6875
L18.1094 54.6875
L18.1094 46.1875
Q21.1875 51.2188 25.4844 53.6094
Q29.7812 56 35.6875 56
Q41.6562 56 45.8281 52.9688
Q50 49.9531 52 44.1875" id="DejaVuSans-6d"/>
      <path d="
M54.8906 33.0156
L54.8906 0
L45.9062 0
L45.9062 32.7188
Q45.9062 40.4844 42.875 44.3281
Q39.8438 48.1875 33.7969 48.1875
Q26.5156 48.1875 22.3125 43.5469
Q18.1094 38.9219 18.1094 30.9062
L18.1094 0
L9.07812 0
L9.07812 54.6875
L18.1094 54.6875
L18.1094 46.1875
Q21.3438 51.125 25.7031 53.5625
Q30.0781 56 35.7969 56
Q45.2188 56 50.0469 50.1719
Q54.8906 44.3438 54.8906 33.0156" id="DejaVuSans-6e"/>
      <path id="DejaVuSans-20"/>
      <path d="
M9.42188 54.6875
L18.4062 54.6875
L18.4062 0
L9.42188 0
z

M9.42188 75.9844
L18.4062 75.9844
L18.4062 64.5938
L9.42188 64.5938
z
" id="DejaVuSans-69"/>
      <path d="
M18.3125 70.2188
L18.3125 54.6875
L36.8125 54.6875
L36.8125 47.7031
L18.3125 47.7031
L18.3125 18.0156
Q18.3125 11.3281 20.1406 9.42188
Q21.9688 7.51562 27.5938 7.51562
L36.8125 7.51562
L36.8125 0
L27.5938 0
Q17.1875 0 13.2344 3.875
Q9.28125 7.76562 9.28125 18.0156
L9.28125 47.7031
L2.6875 47.7031
L2.6875 54.6875
L9.28125 54.6875
L9.28125 70.2188
z
" id="DejaVuSans-74"/>
      <path d="
M31 75.875
Q24.4688 64.6562 21.2812 53.6562
Q18.1094 42.6719 18.1094 31.3906
Q18.1094 20.125 21.3125 9.0625
Q24.5156 -2 31 -13.1875
L23.1875 -13.1875
Q15.875 -1.70312 12.2344 9.375
Q8.59375 20.4531 8.59375 31.3906
Q8.59375 42.2812 12.2031 53.3125
Q15.8281 64.3594 23.1875 75.875
z
" id="DejaVuSans-28"/>
      <path d="
M56.2031 29.5938
L56.2031 25.2031
L14.8906 25.2031
Q15.4844 15.9219 20.4844 11.0625
Q25.4844 6.20312 34.4219 6.20312
Q39.5938 6.20312 44.4531 7.46875
Q49.3125 8.73438 54.1094 11.2812
L54.1094 2.78125
Q49.2656 0.734375 44.1875 -0.34375
Q39.1094 -1.42188 33.8906 -1.42188
Q20.7969 -1.42188 13.1562 6.1875
Q5.51562 13.8125 5.51562 26.8125
Q5.51562 40.2344 12.7656 48.1094
Q20.0156 56 32.3281 56
Q43.3594 56 49.7812 48.8906
Q56.2031 41.7969 56.2031 29.5938
M47.2188 32.2344
Q47.125 39.5938 43.0938 43.9844
Q39.0625 48.3906 32.4219 48.3906
Q24.9062 48.3906 20.3906 44.1406
Q15.875 39.8906 15.1875 32.1719
z
" id="DejaVuSans-65"/>
      <path d="
M44.2812 53.0781
L44.2812 44.5781
Q40.4844 46.5312 36.375 47.5
Q32.2812 48.4844 27.875 48.4844
Q21.1875 48.4844 17.8438 46.4375
Q14.5 44.3906 14.5 40.2812
Q14.5 37.1562 16.8906 35.375
Q19.2812 33.5938 26.5156 31.9844
L29.5938 31.2969
Q39.1562 29.25 43.1875 25.5156
Q47.2188 21.7812 47.2188 15.0938
Q47.2188 7.46875 41.1875 3.01562
Q35.1562 -1.42188 24.6094 -1.42188
Q20.2188 -1.42188 15.4531 -0.5625
Q10.6875 0.296875 5.42188 2
L5.42188 11.2812
Q10.4062 8.6875 15.2344 7.39062
Q20.0625 6.10938 24.8125 6.10938
Q31.1562 6.10938 34.5625 8.28125
Q37.9844 10.4531 37.9844 14.4062
Q37.9844 18.0625 35.5156 20.0156
Q33.0625 21.9688 24.7031 23.7812
L21.5781 24.5156
Q13.2344 26.2656 9.51562 29.9062
Q5.8125 33.5469 5.8125 39.8906
Q5.8125 47.6094 11.2812 51.7969
Q16.75 56 26.8125 56
Q31.7812 56 36.1719 55.2656
Q40.5781 54.5469 44.2812 53.0781" id="DejaVuSans-73"/>
     </defs>
     <g transform="translate(280.278383438 227.24382909)scale(0.09996 -0.09996)">
      <use xlink:href="#DejaVuSans-74"/>
      <use x="39.208984375" xlink:href="#DejaVuSans-69"/>
      <use x="66.9921875" xlink:href="#DejaVuSans-6d"/>
      <use x="164.404296875" xlink:href="#DejaVuSans-65"/>
      <use x="225.927734375" xlink:href="#DejaVuSans-20"/>
      <use x="257.71484375" xlink:href="#DejaVuSans-28"/>
      <use x="296.728515625" xlink:href="#DejaVuSans-6e"/>
      <use x="360.107421875" xlink:href="#DejaVuSans-73"/>
      <use x="412.20703125" xlink:href="#DejaVuSans-29"/>
     </g>
    </g>
   </g>
   <g id="matplotlib.axis_2">
    <g id="ytick_1">
     <g id="line2d_26">
      <defs>
       <path d="
M0 0
L4 0" id="m728421d6d4" style="stroke:#000000;stroke-width:0.5;"/>
      </defs>
      <g>
       <use style="stroke:#000000;stroke-width:0.5;" x="51.84" xlink:href="#m728421d6d4" y="200.974177215"/>
      </g>
     </g>
     <g id="text_7">
      <!-- 0 -->
      <g transform="translate(42.802953125 203.732448465)scale(0.09996 -0.09996)">
       <use xlink:href="#DejaVuSans-30"/>
      </g>
     </g>
    </g>
    <g id="ytick_2">
     <g id="line2d_27">
      <g>
       <use style="stroke:#000000;stroke-width:0.5;" x="51.84" xlink:href="#m728421d6d4" y="169.707341772"/>
      </g>
     </g>
     <g id="text_8">
      <!-- 20 -->
      <g transform="translate(36.51640625 172.465613022)scale(0.09996 -0.09996)">
       <use xlink:href="#DejaVuSans-32"/>
       <use x="63.623046875" xlink:href="#DejaVuSans-30"/>
      </g>
     </g>
    </g>
    <g id="ytick_3">
     <g id="line2d_28">
      <g>
       <use style="stroke:#000000;stroke-width:0.5;" x="51.84" xlink:href="#m728421d6d4" y="138.440506329"/>
      </g>
     </g>
     <g id="text_9">
      <!-- 40 -->
      <g transform="translate(36.27275375 141.198777579)scale(0.09996 -0.09996)">
       <use xlink:href="#DejaVuSans-34"/>
       <use x="63.623046875" xlink:href="#DejaVuSans-30"/>
      </g>
     </g>
    </g>
    <g id="ytick_4">
     <g id="line2d_29">
      <g>
       <use style="stroke:#000000;stroke-width:0.5;" x="51.84" xlink:href="#m728421d6d4" y="107.173670886"/>
      </g>
     </g>
     <g id="text_10">
      <!-- 60 -->
      <g transform="translate(36.482045 109.931942136)scale(0.09996 -0.09996)">
       <use xlink:href="#DejaVuSans-36"/>
       <use x="63.623046875" xlink:href="#DejaVuSans-30"/>
      </g>
     </g>
    </g>
    <g id="ytick_5">
     <g id="line2d_30">
      <g>
       <use style="stroke:#000000;stroke-width:0.5;" x="51.84" xlink:href="#m728421d6d4" y="75.906835443"/>
      </g>
     </g>
     <g id="text_11">
      <!-- 80 -->
      <g transform="translate(36.461740625 78.665106693)scale(0.09996 -0.09996)">
       <use xlink:href="#DejaVuSans-38"/>
       <use x="63.623046875" xlink:href="#DejaVuSans-30"/>
      </g>
     </g>
    </g>
    <g id="ytick_6">
     <g id="line2d_31">
      <g>
       <use style="stroke:#000000;stroke-width:0.5;" x="51.84" xlink:href="#m728421d6d4" y="44.64"/>
      </g>
     </g>
     <g id="text_12">
      <!-- 100 -->
      <defs>
       <path d="
M12.4062 8.29688
L28.5156 8.29688
L28.5156 63.9219
L10.9844 60.4062
L10.9844 69.3906
L28.4219 72.9062
L38.2812 72.9062
L38.2812 8.29688
L54.3906 8.29688
L54.3906 0
L12.4062 0
z
" id="DejaVuSans-31"/>
      </defs>
      <g transform="translate(30.52193 47.39827125)scale(0.09996 -0.09996)">
       <use xlink:href="#DejaVuSans-31"/>
       <use x="63.623046875" xlink:href="#DejaVuSans-30"/>
       <use x="127.24609375" xlink:href="#DejaVuSans-30"/>
      </g>
     </g>
    </g>
    <g id="text_13">
     <!-- % of proteins -->
     <defs>
      <path d="
M30.6094 48.3906
Q23.3906 48.3906 19.1875 42.75
Q14.9844 37.1094 14.9844 27.2969
Q14.9844 17.4844 19.1562 11.8438
Q23.3438 6.20312 30.6094 6.20312
Q37.7969 6.20312 41.9844 11.8594
Q46.1875 17.5312 46.1875 27.2969
Q46.1875 37.0156 41.9844 42.7031
Q37.7969 48.3906 30.6094 48.3906
M30.6094 56
Q42.3281 56 49.0156 48.375
Q55.7188 40.7656 55.7188 27.2969
Q55.7188 13.875 49.0156 6.21875
Q42.3281 -1.42188 30.6094 -1.42188
Q18.8438 -1.42188 12.1719 6.21875
Q5.51562 13.875 5.51562 27.2969
Q5.51562 40.7656 12.1719 48.375
Q18.8438 56 30.6094 56" id="DejaVuSans-6f"/>
      <path d="
M37.1094 75.9844
L37.1094 68.5
L28.5156 68.5
Q23.6875 68.5 21.7969 66.5469
Q19.9219 64.5938 19.9219 59.5156
L19.9219 54.6875
L34.7188 54.6875
L34.7188 47.7031
L19.9219 47.7031
L19.9219 0
L10.8906 0
L10.8906 47.7031
L2.29688 47.7031
L2.29688 54.6875
L10.8906 54.6875
L10.8906 58.5
Q10.8906 67.625 15.1406 71.7969
Q19.3906 75.9844 28.6094 75.9844
z
" id="DejaVuSans-66"/>
      <path d="
M41.1094 46.2969
Q39.5938 47.1719 37.8125 47.5781
Q36.0312 48 33.8906 48
Q26.2656 48 22.1875 43.0469
Q18.1094 38.0938 18.1094 28.8125
L18.1094 0
L9.07812 0
L9.07812 54.6875
L18.1094 54.6875
L18.1094 46.1875
Q20.9531 51.1719 25.4844 53.5781
Q30.0312 56 36.5312 56
Q37.4531 56 38.5781 55.875
Q39.7031 55.7656 41.0625 55.5156
z
" id="DejaVuSans-72"/>
      <path d="
M18.1094 8.20312
L18.1094 -20.7969
L9.07812 -20.7969
L9.07812 54.6875
L18.1094 54.6875
L18.1094 46.3906
Q20.9531 51.2656 25.2656 53.625
Q29.5938 56 35.5938 56
Q45.5625 56 51.7812 48.0938
Q58.0156 40.1875 58.0156 27.2969
Q58.0156 14.4062 51.7812 6.48438
Q45.5625 -1.42188 35.5938 -1.42188
Q29.5938 -1.42188 25.2656 0.953125
Q20.9531 3.32812 18.1094 8.20312
M48.6875 27.2969
Q48.6875 37.2031 44.6094 42.8438
Q40.5312 48.4844 33.4062 48.4844
Q26.2656 48.4844 22.1875 42.8438
Q18.1094 37.2031 18.1094 27.2969
Q18.1094 17.3906 22.1875 11.75
Q26.2656 6.10938 33.4062 6.10938
Q40.5312 6.10938 44.6094 11.75
Q48.6875 17.3906 48.6875 27.2969" id="DejaVuSans-70"/>
      <path d="
M72.7031 32.0781
Q68.4531 32.0781 66.0312 28.4688
Q63.625 24.8594 63.625 18.4062
Q63.625 12.0625 66.0312 8.42188
Q68.4531 4.78125 72.7031 4.78125
Q76.8594 4.78125 79.2656 8.42188
Q81.6875 12.0625 81.6875 18.4062
Q81.6875 24.8125 79.2656 28.4375
Q76.8594 32.0781 72.7031 32.0781
M72.7031 38.2812
Q80.4219 38.2812 84.9531 32.9062
Q89.5 27.5469 89.5 18.4062
Q89.5 9.28125 84.9375 3.92188
Q80.375 -1.42188 72.7031 -1.42188
Q64.8906 -1.42188 60.3438 3.92188
Q55.8125 9.28125 55.8125 18.4062
Q55.8125 27.5938 60.375 32.9375
Q64.9375 38.2812 72.7031 38.2812
M22.3125 68.0156
Q18.1094 68.0156 15.6875 64.375
Q13.2812 60.75 13.2812 54.3906
Q13.2812 47.9531 15.6719 44.3281
Q18.0625 40.7188 22.3125 40.7188
Q26.5625 40.7188 28.9688 44.3281
Q31.3906 47.9531 31.3906 54.3906
Q31.3906 60.6875 28.9531 64.3438
Q26.5156 68.0156 22.3125 68.0156
M66.4062 74.2188
L74.2188 74.2188
L28.6094 -1.42188
L20.7969 -1.42188
z

M22.3125 74.2188
Q30.0312 74.2188 34.6094 68.875
Q39.2031 63.5312 39.2031 54.3906
Q39.2031 45.1719 34.6406 39.8438
Q30.0781 34.5156 22.3125 34.5156
Q14.5469 34.5156 10.0312 39.8594
Q5.51562 45.2188 5.51562 54.3906
Q5.51562 63.4844 10.0469 68.8438
Q14.5938 74.2188 22.3125 74.2188" id="DejaVuSans-25"/>
     </defs>
     <g transform="translate(23.443074375 155.67440517)rotate(-90.0)scale(0.09996 -0.09996)">
      <use xlink:href="#DejaVuSans-25"/>
      <use x="95.01953125" xlink:href="#DejaVuSans-20"/>
      <use x="126.806640625" xlink:href="#DejaVuSans-6f"/>
      <use x="187.98828125" xlink:href="#DejaVuSans-66"/>
      <use x="223.193359375" xlink:href="#DejaVuSans-20"/>
      <use x="254.98046875" xlink:href="#DejaVuSans-70"/>
      <use x="318.45703125" xlink:href="#DejaVuSans-72"/>
      <use x="357.3203125" xlink:href="#DejaVuSans-6f"/>
      <use x="418.501953125" xlink:href="#DejaVuSans-74"/>
      <use x="457.7109375" xlink:href="#DejaVuSans-65"/>
      <use x="519.234375" xlink:href="#DejaVuSans-69"/>
      <use x="547.017578125" xlink:href="#DejaVuSans-6e"/>
      <use x="610.396484375" xlink:href="#DejaVuSans-73"/>
     </g>
    </g>
   </g>
   <g id="patch_3">
    <path d="
M51.84 200.974
L552.96 200.974" style="fill:none;stroke:#000000;"/>
   </g>
   <g id="patch_4">
    <path d="
M51.84 200.974
L51.84 44.64" style="fill:none;stroke:#000000;"/>
   </g>
   <g id="text_14">
    <!-- % -->
    <g transform="translate(298.202460938 39.64)scale(0.09996 -0.09996)">
     <use xlink:href="#DejaVuSans-25"/>
    </g>
   </g>
   <g id="legend_1">
    <g id="patch_5">
     <path d="
M500.579 346.082
L547.962 346.082
L547.962 49.638
L500.579 49.638
L500.579 346.082
z
" style="fill:#ffffff;stroke:#000000;"/>
    </g>
    <g id="line2d_32">
     <path d="
M507.577 57.7332
L521.571 57.7332" style="fill:none;stroke:#000080;stroke-linecap:square;stroke-width:2.0;"/>
    </g>
    <g id="line2d_33"/>
    <g id="text_15">
     <!-- 1 -->
     <g transform="translate(532.566598125 61.231798125)scale(0.09996 -0.09996)">
      <use xlink:href="#DejaVuSans-31"/>
     </g>
    </g>
    <g id="line2d_34">
     <path d="
M507.577 72.4055
L521.571 72.4055" style="fill:none;stroke:#00009b;stroke-linecap:square;stroke-width:2.0;"/>
    </g>
    <g id="line2d_35"/>
    <g id="text_16">
     <!-- 2 -->
     <g transform="translate(532.566598125 75.904051875)scale(0.09996 -0.09996)">
      <use xlink:href="#DejaVuSans-32"/>
     </g>
    </g>
    <g id="line2d_36">
     <path d="
M507.577 87.0777
L521.571 87.0777" style="fill:none;stroke:#0000b6;stroke-linecap:square;stroke-width:2.0;"/>
    </g>
    <g id="line2d_37"/>
    <g id="text_17">
     <!-- 3 -->
     <defs>
      <path d="
M40.5781 39.3125
Q47.6562 37.7969 51.625 33
Q55.6094 28.2188 55.6094 21.1875
Q55.6094 10.4062 48.1875 4.48438
Q40.7656 -1.42188 27.0938 -1.42188
Q22.5156 -1.42188 17.6562 -0.515625
Q12.7969 0.390625 7.625 2.20312
L7.625 11.7188
Q11.7188 9.32812 16.5938 8.10938
Q21.4844 6.89062 26.8125 6.89062
Q36.0781 6.89062 40.9375 10.5469
Q45.7969 14.2031 45.7969 21.1875
Q45.7969 27.6406 41.2812 31.2656
Q36.7656 34.9062 28.7188 34.9062
L20.2188 34.9062
L20.2188 43.0156
L29.1094 43.0156
Q36.375 43.0156 40.2344 45.9219
Q44.0938 48.8281 44.0938 54.2969
Q44.0938 59.9062 40.1094 62.9062
Q36.1406 65.9219 28.7188 65.9219
Q24.6562 65.9219 20.0156 65.0312
Q15.375 64.1562 9.8125 62.3125
L9.8125 71.0938
Q15.4375 72.6562 20.3438 73.4375
Q25.25 74.2188 29.5938 74.2188
Q40.8281 74.2188 47.3594 69.1094
Q53.9062 64.0156 53.9062 55.3281
Q53.9062 49.2656 50.4375 45.0938
Q46.9688 40.9219 40.5781 39.3125" id="DejaVuSans-33"/>
     </defs>
     <g transform="translate(532.566598125 90.576305625)scale(0.09996 -0.09996)">
      <use xlink:href="#DejaVuSans-33"/>
     </g>
    </g>
    <g id="line2d_38">
     <path d="
M507.577 101.75
L521.571 101.75" style="fill:none;stroke:#0000d6;stroke-linecap:square;stroke-width:2.0;"/>
    </g>
    <g id="line2d_39"/>
    <g id="text_18">
     <!-- 4 -->
     <g transform="translate(532.566598125 105.248559375)scale(0.09996 -0.09996)">
      <use xlink:href="#DejaVuSans-34"/>
     </g>
    </g>
    <g id="line2d_40">
     <path d="
M507.577 116.422
L521.571 116.422" style="fill:none;stroke:#0000f1;stroke-linecap:square;stroke-width:2.0;"/>
    </g>
    <g id="line2d_41"/>
    <g id="text_19">
     <!-- 5 -->
     <defs>
      <path d="
M10.7969 72.9062
L49.5156 72.9062
L49.5156 64.5938
L19.8281 64.5938
L19.8281 46.7344
Q21.9688 47.4688 24.1094 47.8281
Q26.2656 48.1875 28.4219 48.1875
Q40.625 48.1875 47.75 41.5
Q54.8906 34.8125 54.8906 23.3906
Q54.8906 11.625 47.5625 5.09375
Q40.2344 -1.42188 26.9062 -1.42188
Q22.3125 -1.42188 17.5469 -0.640625
Q12.7969 0.140625 7.71875 1.70312
L7.71875 11.625
Q12.1094 9.23438 16.7969 8.0625
Q21.4844 6.89062 26.7031 6.89062
Q35.1562 6.89062 40.0781 11.3281
Q45.0156 15.7656 45.0156 23.3906
Q45.0156 31 40.0781 35.4375
Q35.1562 39.8906 26.7031 39.8906
Q22.75 39.8906 18.8125 39.0156
Q14.8906 38.1406 10.7969 36.2812
z
" id="DejaVuSans-35"/>
     </defs>
     <g transform="translate(532.566598125 119.920813125)scale(0.09996 -0.09996)">
      <use xlink:href="#DejaVuSans-35"/>
     </g>
    </g>
    <g id="line2d_42">
     <path d="
M507.577 131.094
L521.571 131.094" style="fill:none;stroke:#0000ff;stroke-linecap:square;stroke-width:2.0;"/>
    </g>
    <g id="line2d_43"/>
    <g id="text_20">
     <!-- 6 -->
     <g transform="translate(532.566598125 134.593066875)scale(0.09996 -0.09996)">
      <use xlink:href="#DejaVuSans-36"/>
     </g>
    </g>
    <g id="line2d_44">
     <path d="
M507.577 145.767
L521.571 145.767" style="fill:none;stroke:#0018ff;stroke-linecap:square;stroke-width:2.0;"/>
    </g>
    <g id="line2d_45"/>
    <g id="text_21">
     <!-- 7 -->
     <defs>
      <path d="
M8.20312 72.9062
L55.0781 72.9062
L55.0781 68.7031
L28.6094 0
L18.3125 0
L43.2188 64.5938
L8.20312 64.5938
z
" id="DejaVuSans-37"/>
     </defs>
     <g transform="translate(532.566598125 149.265320625)scale(0.09996 -0.09996)">
      <use xlink:href="#DejaVuSans-37"/>
     </g>
    </g>
    <g id="line2d_46">
     <path d="
M507.577 160.439
L521.571 160.439" style="fill:none;stroke:#0030ff;stroke-linecap:square;stroke-width:2.0;"/>
    </g>
    <g id="line2d_47"/>
    <g id="text_22">
     <!-- 8 -->
     <g transform="translate(532.566598125 163.937574375)scale(0.09996 -0.09996)">
      <use xlink:href="#DejaVuSans-38"/>
     </g>
    </g>
    <g id="line2d_48">
     <path d="
M507.577 175.111
L521.571 175.111" style="fill:none;stroke:#004cff;stroke-linecap:square;stroke-width:2.0;"/>
    </g>
    <g id="line2d_49"/>
    <g id="text_23">
     <!-- 9 -->
     <defs>
      <path d="
M10.9844 1.51562
L10.9844 10.5
Q14.7031 8.73438 18.5 7.8125
Q22.3125 6.89062 25.9844 6.89062
Q35.75 6.89062 40.8906 13.4531
Q46.0469 20.0156 46.7812 33.4062
Q43.9531 29.2031 39.5938 26.9531
Q35.25 24.7031 29.9844 24.7031
Q19.0469 24.7031 12.6719 31.3125
Q6.29688 37.9375 6.29688 49.4219
Q6.29688 60.6406 12.9375 67.4219
Q19.5781 74.2188 30.6094 74.2188
Q43.2656 74.2188 49.9219 64.5156
Q56.5938 54.8281 56.5938 36.375
Q56.5938 19.1406 48.4062 8.85938
Q40.2344 -1.42188 26.4219 -1.42188
Q22.7031 -1.42188 18.8906 -0.6875
Q15.0938 0.046875 10.9844 1.51562
M30.6094 32.4219
Q37.25 32.4219 41.125 36.9531
Q45.0156 41.5 45.0156 49.4219
Q45.0156 57.2812 41.125 61.8438
Q37.25 66.4062 30.6094 66.4062
Q23.9688 66.4062 20.0938 61.8438
Q16.2188 57.2812 16.2188 49.4219
Q16.2188 41.5 20.0938 36.9531
Q23.9688 32.4219 30.6094 32.4219" id="DejaVuSans-39"/>
     </defs>
     <g transform="translate(532.566598125 178.609828125)scale(0.09996 -0.09996)">
      <use xlink:href="#DejaVuSans-39"/>
     </g>
    </g>
    <g id="line2d_50">
     <path d="
M507.577 189.783
L521.571 189.783" style="fill:none;stroke:#0064ff;stroke-linecap:square;stroke-width:2.0;"/>
    </g>
    <g id="line2d_51"/>
    <g id="text_24">
     <!-- 10 -->
     <g transform="translate(532.566598125 193.282081875)scale(0.09996 -0.09996)">
      <use xlink:href="#DejaVuSans-31"/>
      <use x="63.623046875" xlink:href="#DejaVuSans-30"/>
     </g>
    </g>
    <g id="line2d_52">
     <path d="
M507.577 204.456
L521.571 204.456" style="fill:none;stroke:#0080ff;stroke-linecap:square;stroke-width:2.0;"/>
    </g>
    <g id="line2d_53"/>
    <g id="text_25">
     <!-- 11 -->
     <g transform="translate(532.566598125 207.954335625)scale(0.09996 -0.09996)">
      <use xlink:href="#DejaVuSans-31"/>
      <use x="63.623046875" xlink:href="#DejaVuSans-31"/>
     </g>
    </g>
    <g id="line2d_54">
     <path d="
M507.577 219.128
L521.571 219.128" style="fill:none;stroke:#0098ff;stroke-linecap:square;stroke-width:2.0;"/>
    </g>
    <g id="line2d_55"/>
    <g id="text_26">
     <!-- 12 -->
     <g transform="translate(532.566598125 222.626589375)scale(0.09996 -0.09996)">
      <use xlink:href="#DejaVuSans-31"/>
      <use x="63.623046875" xlink:href="#DejaVuSans-32"/>
     </g>
    </g>
    <g id="line2d_56">
     <path d="
M507.577 233.8
L521.571 233.8" style="fill:none;stroke:#00b0ff;stroke-linecap:square;stroke-width:2.0;"/>
    </g>
    <g id="line2d_57"/>
    <g id="text_27">
     <!-- 13 -->
     <g transform="translate(532.566598125 237.298843125)scale(0.09996 -0.09996)">
      <use xlink:href="#DejaVuSans-31"/>
      <use x="63.623046875" xlink:href="#DejaVuSans-33"/>
     </g>
    </g>
    <g id="line2d_58">
     <path d="
M507.577 248.472
L521.571 248.472" style="fill:none;stroke:#00ccff;stroke-linecap:square;stroke-width:2.0;"/>
    </g>
    <g id="line2d_59"/>
    <g id="text_28">
     <!-- 14 -->
     <g transform="translate(532.566598125 251.971096875)scale(0.09996 -0.09996)">
      <use xlink:href="#DejaVuSans-31"/>
      <use x="63.623046875" xlink:href="#DejaVuSans-34"/>
     </g>
    </g>
    <g id="line2d_60">
     <path d="
M507.577 263.145
L521.571 263.145" style="fill:none;stroke:#00e4f8;stroke-linecap:square;stroke-width:2.0;"/>
    </g>
    <g id="line2d_61"/>
    <g id="text_29">
     <!-- 15 -->
     <g transform="translate(532.566598125 266.643350625)scale(0.09996 -0.09996)">
      <use xlink:href="#DejaVuSans-31"/>
      <use x="63.623046875" xlink:href="#DejaVuSans-35"/>
     </g>
    </g>
    <g id="line2d_62">
     <path d="
M507.577 277.817
L521.571 277.817" style="fill:none;stroke:#16ffe1;stroke-linecap:square;stroke-width:2.0;"/>
    </g>
    <g id="line2d_63"/>
    <g id="text_30">
     <!-- 16 -->
     <g transform="translate(532.566598125 281.315604375)scale(0.09996 -0.09996)">
      <use xlink:href="#DejaVuSans-31"/>
      <use x="63.623046875" xlink:href="#DejaVuSans-36"/>
     </g>
    </g>
    <g id="line2d_64">
     <path d="
M507.577 292.489
L521.571 292.489" style="fill:none;stroke:#29ffce;stroke-linecap:square;stroke-width:2.0;"/>
    </g>
    <g id="line2d_65"/>
    <g id="text_31">
     <!-- 17 -->
     <g transform="translate(532.566598125 295.987858125)scale(0.09996 -0.09996)">
      <use xlink:href="#DejaVuSans-31"/>
      <use x="63.623046875" xlink:href="#DejaVuSans-37"/>
     </g>
    </g>
    <g id="line2d_66">
     <path d="
M507.577 307.162
L521.571 307.162" style="fill:none;stroke:#3cffba;stroke-linecap:square;stroke-width:2.0;"/>
    </g>
    <g id="line2d_67"/>
    <g id="text_32">
     <!-- 18 -->
     <g transform="translate(532.566598125 310.660111875)scale(0.09996 -0.09996)">
      <use xlink:href="#DejaVuSans-31"/>
      <use x="63.623046875" xlink:href="#DejaVuSans-38"/>
     </g>
    </g>
    <g id="line2d_68">
     <path d="
M507.577 321.834
L521.571 321.834" style="fill:none;stroke:#ff4e00;stroke-linecap:square;stroke-width:2.0;"/>
    </g>
    <g id="line2d_69"/>
    <g id="text_33">
     <!-- 34 -->
     <g transform="translate(532.566598125 325.332365625)scale(0.09996 -0.09996)">
      <use xlink:href="#DejaVuSans-33"/>
      <use x="63.623046875" xlink:href="#DejaVuSans-34"/>
     </g>
    </g>
    <g id="line2d_70">
     <path d="
M507.577 336.506
L521.571 336.506" style="fill:none;stroke:#800000;stroke-linecap:square;stroke-width:2.0;"/>
    </g>
    <g id="line2d_71"/>
    <g id="text_34">
     <!-- 41 -->
     <g transform="translate(532.566598125 340.004619375)scale(0.09996 -0.09996)">
      <use xlink:href="#DejaVuSans-34"/>
      <use x="63.623046875" xlink:href="#DejaVuSans-31"/>
     </g>
    </g>
   </g>
  </g>
  <g id="axes_2">
   <g id="patch_6">
    <path d="
M51.84 415.152
L552.96 415.152
L552.96 258.818
L51.84 258.818
z
" style="fill:#ffffff;"/>
   </g>
   <g id="line2d_72">
    <path clip-path="url(#peb9822e37a)" d="
M51.84 259.896
L54.3582 259.896
L56.8764 259.896
L59.3946 262.052
L61.9128 262.052
L64.431 264.209
L66.9491 268.521
L69.4673 281.459
L71.9855 286.85
L74.5037 300.866
L77.0219 304.101
L79.5401 305.179
L82.0583 311.648
L84.5765 322.43
L87.0947 327.82
L89.6129 328.899
L92.1311 337.524
L94.6492 336.446
L97.1674 341.837
L102.204 356.931
L104.722 361.244
L107.24 361.244
L109.758 360.165
L114.795 366.634
L117.313 363.4
L119.831 368.791
L122.349 366.634
L124.868 368.791
L127.386 368.791
L129.904 374.182
L132.422 376.338
L134.94 379.572
L137.458 381.729
L139.977 381.729
L145.013 383.885
L147.531 383.885
L150.049 387.12
L152.568 387.12
L155.086 388.198
L157.604 387.12
L160.122 391.432
L162.64 394.667
L170.195 397.901
L172.713 397.901
L177.75 400.058
L180.268 400.058
L182.786 402.214
L185.304 401.136
L190.341 401.136
L192.859 402.214
L195.377 404.37
L197.895 402.214
L200.413 401.136
L202.931 404.37
L205.45 403.292
L207.968 404.37
L210.486 406.527
L213.004 405.448
L218.041 405.448
L220.559 404.37
L223.077 406.527
L225.595 405.448
L228.113 405.448
L230.632 406.527
L233.15 406.527
L235.668 405.448
L240.704 405.448
L243.223 403.292
L245.741 406.527
L248.259 406.527
L250.777 407.605
L270.923 407.605
L273.441 409.761
L278.477 409.761
L283.514 411.917
L293.586 411.917
L296.105 410.839
L298.623 411.917
L301.141 410.839
L303.659 412.996
L306.177 412.996
L311.214 410.839
L313.732 412.996
L316.25 410.839
L318.768 411.917
L321.286 411.917
L323.805 412.996
L328.841 412.996
L331.359 411.917
L333.877 411.917
L336.396 412.996
L391.796 412.996
L394.314 411.917
L396.832 412.996
L399.35 411.917
L401.869 412.996
L424.532 412.996
L427.05 411.917
L429.569 412.996
L437.123 412.996
L439.641 411.917
L442.16 412.996
L444.678 412.996
L447.196 411.917
L449.714 412.996
L452.232 412.996
L454.751 411.917
L459.787 411.917
L462.305 412.996
L464.823 411.917
L477.414 411.917
L479.932 412.996
L482.451 411.917
L484.969 412.996
L527.778 412.996
L530.296 414.074
L552.96 414.074
L552.96 414.074" style="fill:none;stroke:#000080;stroke-linecap:square;stroke-width:2.0;"/>
   </g>
   <g id="line2d_73">
    <path clip-path="url(#peb9822e37a)" d="
M51.84 415.152
L54.3582 415.152
L56.8764 415.152
L59.3946 414.074
L61.9128 414.074
L64.431 412.996
L66.9491 410.839
L69.4673 404.37
L71.9855 403.292
L74.5037 397.901
L77.0219 397.901
L79.5401 398.979
L82.0583 398.979
L84.5765 393.589
L87.0947 395.745
L89.6129 393.589
L94.6492 391.432
L97.1674 392.51
L99.6856 388.198
L102.204 387.12
L104.722 387.12
L107.24 388.198
L109.758 391.432
L112.277 389.276
L114.795 392.51
L117.313 390.354
L119.831 386.041
L122.349 388.198
L124.868 387.12
L127.386 388.198
L129.904 388.198
L132.422 387.12
L134.94 389.276
L137.458 388.198
L139.977 388.198
L145.013 392.51
L147.531 392.51
L150.049 394.667
L155.086 394.667
L157.604 397.901
L162.64 400.058
L167.677 400.058
L172.713 397.901
L175.231 397.901
L180.268 400.058
L182.786 397.901
L185.304 397.901
L187.822 395.745
L190.341 395.745
L192.859 401.136
L195.377 398.979
L197.895 398.979
L200.413 401.136
L202.931 404.37
L207.968 402.214
L210.486 402.214
L213.004 401.136
L215.522 401.136
L218.041 402.214
L220.559 402.214
L223.077 403.292
L228.113 403.292
L233.15 405.448
L235.668 404.37
L255.813 404.37
L258.332 405.448
L260.85 404.37
L270.923 404.37
L273.441 405.448
L275.959 405.448
L278.477 404.37
L280.995 404.37
L286.032 406.527
L291.068 406.527
L293.586 408.683
L313.732 408.683
L316.25 409.761
L343.95 409.761
L346.468 410.839
L348.987 409.761
L379.205 409.761
L381.723 410.839
L389.278 410.839
L391.796 411.917
L396.832 411.917
L399.35 410.839
L401.869 410.839
L404.387 411.917
L406.905 410.839
L409.423 411.917
L411.941 410.839
L432.087 410.839
L434.605 411.917
L542.887 411.917
L545.405 412.996
L547.924 411.917
L552.96 411.917
L552.96 411.917" style="fill:none;stroke:#00009b;stroke-linecap:square;stroke-width:2.0;"/>
   </g>
   <g id="line2d_74">
    <path clip-path="url(#peb9822e37a)" d="
M51.84 415.152
L69.4673 415.152
L79.5401 410.839
L82.0583 408.683
L84.5765 408.683
L87.0947 405.448
L89.6129 406.527
L92.1311 404.37
L94.6492 405.448
L99.6856 403.292
L102.204 404.37
L104.722 404.37
L107.24 405.448
L114.795 405.448
L119.831 407.605
L122.349 405.448
L124.868 405.448
L127.386 404.37
L132.422 404.37
L134.94 402.214
L139.977 402.214
L145.013 404.37
L147.531 404.37
L150.049 403.292
L152.568 403.292
L155.086 404.37
L160.122 404.37
L162.64 403.292
L165.159 404.37
L167.677 404.37
L170.195 401.136
L172.713 400.058
L175.231 402.214
L177.75 402.214
L180.268 404.37
L182.786 403.292
L187.822 403.292
L190.341 404.37
L192.859 406.527
L195.377 405.448
L197.895 403.292
L200.413 406.527
L202.931 406.527
L205.45 408.683
L210.486 408.683
L213.004 405.448
L215.522 408.683
L218.041 407.605
L220.559 408.683
L230.632 408.683
L233.15 411.917
L235.668 409.761
L238.186 408.683
L243.223 408.683
L245.741 406.527
L248.259 408.683
L250.777 409.761
L265.886 409.761
L268.404 410.839
L270.923 410.839
L273.441 411.917
L275.959 409.761
L278.477 409.761
L280.995 410.839
L283.514 412.996
L286.032 411.917
L293.586 411.917
L298.623 414.074
L301.141 414.074
L303.659 415.152
L306.177 414.074
L308.695 415.152
L311.214 415.152
L313.732 414.074
L341.432 414.074
L343.95 415.152
L346.468 414.074
L359.059 414.074
L361.577 415.152
L366.614 415.152
L369.132 414.074
L371.65 414.074
L374.168 415.152
L376.687 415.152
L379.205 414.074
L381.723 415.152
L384.241 414.074
L391.796 414.074
L394.314 415.152
L396.832 414.074
L401.869 414.074
L404.387 415.152
L406.905 414.074
L411.941 414.074
L414.459 415.152
L416.978 414.074
L419.496 415.152
L422.014 415.152
L424.532 414.074
L429.569 414.074
L432.087 415.152
L434.605 414.074
L437.123 415.152
L439.641 414.074
L454.751 414.074
L457.269 415.152
L459.787 415.152
L462.305 414.074
L464.823 415.152
L479.932 415.152
L482.451 414.074
L484.969 415.152
L552.96 415.152
L552.96 415.152" style="fill:none;stroke:#0000b6;stroke-linecap:square;stroke-width:2.0;"/>
   </g>
   <g id="line2d_75">
    <path clip-path="url(#peb9822e37a)" d="
M51.84 415.152
L94.6492 415.152
L97.1674 414.074
L99.6856 415.152
L102.204 412.996
L104.722 411.917
L109.758 411.917
L114.795 409.761
L117.313 410.839
L119.831 410.839
L122.349 411.917
L124.868 411.917
L127.386 410.839
L132.422 410.839
L134.94 411.917
L139.977 411.917
L145.013 407.605
L147.531 407.605
L150.049 406.527
L152.568 406.527
L157.604 404.37
L162.64 406.527
L165.159 408.683
L167.677 406.527
L172.713 406.527
L180.268 409.761
L182.786 409.761
L185.304 408.683
L187.822 409.761
L190.341 409.761
L192.859 406.527
L195.377 410.839
L197.895 409.761
L205.45 409.761
L207.968 410.839
L210.486 408.683
L215.522 410.839
L220.559 410.839
L223.077 411.917
L225.595 410.839
L230.632 410.839
L233.15 412.996
L235.668 411.917
L238.186 409.761
L240.704 410.839
L243.223 408.683
L245.741 410.839
L263.368 410.839
L268.404 412.996
L270.923 411.917
L273.441 409.761
L275.959 410.839
L278.477 410.839
L280.995 409.761
L283.514 410.839
L286.032 410.839
L288.55 412.996
L291.068 410.839
L293.586 411.917
L296.105 408.683
L301.141 406.527
L303.659 410.839
L306.177 410.839
L308.695 409.761
L311.214 409.761
L313.732 408.683
L316.25 409.761
L318.768 409.761
L321.286 410.839
L323.805 408.683
L326.323 410.839
L328.841 408.683
L331.359 407.605
L333.877 409.761
L336.396 408.683
L341.432 408.683
L346.468 412.996
L348.987 409.761
L351.505 408.683
L354.023 409.761
L356.541 409.761
L359.059 411.917
L374.168 411.917
L376.687 409.761
L379.205 409.761
L381.723 412.996
L391.796 412.996
L394.314 411.917
L399.35 411.917
L404.387 414.074
L406.905 412.996
L409.423 414.074
L411.941 412.996
L414.459 412.996
L416.978 410.839
L427.05 410.839
L429.569 412.996
L479.932 412.996
L482.451 414.074
L484.969 412.996
L552.96 412.996
L552.96 412.996" style="fill:none;stroke:#0000d6;stroke-linecap:square;stroke-width:2.0;"/>
   </g>
   <g id="line2d_76">
    <path clip-path="url(#peb9822e37a)" d="
M51.84 415.152
L104.722 415.152
L109.758 412.996
L112.277 414.074
L114.795 412.996
L124.868 412.996
L127.386 414.074
L129.904 412.996
L132.422 412.996
L134.94 411.917
L155.086 411.917
L157.604 412.996
L160.122 410.839
L162.64 410.839
L165.159 409.761
L167.677 409.761
L170.195 411.917
L172.713 412.996
L175.231 411.917
L177.75 411.917
L180.268 410.839
L185.304 412.996
L187.822 412.996
L190.341 414.074
L195.377 411.917
L197.895 412.996
L200.413 411.917
L202.931 411.917
L205.45 410.839
L207.968 411.917
L218.041 411.917
L220.559 412.996
L223.077 411.917
L225.595 412.996
L228.113 412.996
L230.632 411.917
L235.668 411.917
L238.186 410.839
L240.704 411.917
L243.223 414.074
L245.741 411.917
L268.404 411.917
L270.923 412.996
L273.441 411.917
L275.959 411.917
L278.477 412.996
L286.032 409.761
L288.55 409.761
L291.068 410.839
L296.105 410.839
L298.623 411.917
L301.141 411.917
L306.177 409.761
L308.695 411.917
L311.214 411.917
L313.732 409.761
L316.25 411.917
L318.768 411.917
L321.286 410.839
L326.323 410.839
L328.841 409.761
L331.359 411.917
L333.877 411.917
L336.396 409.761
L338.914 409.761
L341.432 410.839
L374.168 410.839
L376.687 411.917
L379.205 410.839
L381.723 411.917
L384.241 410.839
L386.759 410.839
L389.278 411.917
L391.796 411.917
L394.314 412.996
L396.832 411.917
L399.35 412.996
L401.869 411.917
L414.459 411.917
L416.978 410.839
L419.496 411.917
L434.605 411.917
L437.123 412.996
L439.641 412.996
L442.16 411.917
L444.678 412.996
L472.378 412.996
L474.896 414.074
L552.96 414.074
L552.96 414.074" style="fill:none;stroke:#0000f1;stroke-linecap:square;stroke-width:2.0;"/>
   </g>
   <g id="line2d_77">
    <path clip-path="url(#peb9822e37a)" d="
M51.84 415.152
L155.086 415.152
L157.604 414.074
L160.122 414.074
L162.64 412.996
L172.713 412.996
L175.231 411.917
L192.859 411.917
L195.377 409.761
L200.413 409.761
L202.931 410.839
L205.45 409.761
L207.968 409.761
L210.486 410.839
L213.004 410.839
L218.041 408.683
L220.559 408.683
L223.077 410.839
L228.113 410.839
L230.632 409.761
L233.15 407.605
L235.668 408.683
L243.223 408.683
L245.741 410.839
L248.259 409.761
L250.777 411.917
L255.813 411.917
L258.332 412.996
L260.85 411.917
L273.441 411.917
L275.959 412.996
L278.477 411.917
L283.514 411.917
L286.032 412.996
L288.55 412.996
L291.068 414.074
L293.586 414.074
L296.105 412.996
L298.623 414.074
L301.141 412.996
L306.177 412.996
L308.695 414.074
L311.214 414.074
L313.732 412.996
L316.25 414.074
L326.323 414.074
L328.841 412.996
L331.359 414.074
L333.877 414.074
L336.396 412.996
L338.914 412.996
L341.432 414.074
L343.95 412.996
L346.468 412.996
L348.987 414.074
L371.65 414.074
L374.168 412.996
L376.687 414.074
L379.205 412.996
L386.759 412.996
L389.278 414.074
L396.832 414.074
L399.35 415.152
L401.869 415.152
L404.387 414.074
L406.905 415.152
L409.423 414.074
L411.941 415.152
L414.459 414.074
L419.496 414.074
L422.014 415.152
L429.569 415.152
L432.087 414.074
L434.605 414.074
L437.123 415.152
L439.641 414.074
L442.16 414.074
L444.678 415.152
L447.196 414.074
L449.714 415.152
L452.232 415.152
L454.751 414.074
L459.787 414.074
L462.305 415.152
L464.823 414.074
L474.896 414.074
L477.414 412.996
L482.451 415.152
L487.487 415.152
L490.005 414.074
L492.523 415.152
L507.633 415.152
L510.151 414.074
L512.669 415.152
L517.705 415.152
L520.224 414.074
L522.742 415.152
L525.26 415.152
L527.778 414.074
L530.296 415.152
L537.851 415.152
L540.369 414.074
L542.887 415.152
L552.96 415.152
L552.96 415.152" style="fill:none;stroke:#0000ff;stroke-linecap:square;stroke-width:2.0;"/>
   </g>
   <g id="line2d_78">
    <path clip-path="url(#peb9822e37a)" d="
M51.84 415.152
L162.64 415.152
L165.159 414.074
L167.677 415.152
L175.231 415.152
L180.268 412.996
L192.859 412.996
L197.895 415.152
L202.931 412.996
L213.004 412.996
L215.522 411.917
L218.041 412.996
L223.077 410.839
L230.632 410.839
L233.15 409.761
L238.186 411.917
L243.223 411.917
L245.741 410.839
L248.259 410.839
L250.777 409.761
L265.886 409.761
L268.404 408.683
L270.923 409.761
L273.441 411.917
L293.586 411.917
L296.105 412.996
L343.95 412.996
L346.468 414.074
L348.987 414.074
L351.505 412.996
L354.023 414.074
L409.423 414.074
L411.941 415.152
L432.087 415.152
L434.605 414.074
L437.123 414.074
L439.641 415.152
L442.16 414.074
L444.678 414.074
L447.196 415.152
L449.714 414.074
L452.232 414.074
L454.751 415.152
L459.787 415.152
L462.305 414.074
L464.823 415.152
L477.414 415.152
L479.932 414.074
L552.96 414.074
L552.96 414.074" style="fill:none;stroke:#0018ff;stroke-linecap:square;stroke-width:2.0;"/>
   </g>
   <g id="line2d_79">
    <path clip-path="url(#peb9822e37a)" d="
M51.84 415.152
L187.822 415.152
L190.341 414.074
L192.859 414.074
L195.377 415.152
L200.413 415.152
L202.931 414.074
L205.45 415.152
L207.968 414.074
L210.486 414.074
L213.004 415.152
L220.559 415.152
L223.077 414.074
L228.113 414.074
L230.632 415.152
L255.813 415.152
L258.332 414.074
L260.85 415.152
L268.404 415.152
L270.923 414.074
L278.477 414.074
L280.995 415.152
L283.514 414.074
L286.032 414.074
L288.55 412.996
L291.068 414.074
L293.586 412.996
L296.105 414.074
L301.141 414.074
L303.659 411.917
L306.177 412.996
L311.214 412.996
L313.732 414.074
L321.286 414.074
L323.805 415.152
L326.323 414.074
L328.841 415.152
L331.359 415.152
L333.877 414.074
L336.396 415.152
L341.432 415.152
L343.95 412.996
L348.987 415.152
L356.541 415.152
L359.059 414.074
L371.65 414.074
L374.168 412.996
L376.687 415.152
L379.205 415.152
L381.723 414.074
L394.314 414.074
L396.832 415.152
L399.35 414.074
L411.941 414.074
L414.459 412.996
L416.978 415.152
L419.496 414.074
L422.014 415.152
L427.05 415.152
L432.087 412.996
L434.605 414.074
L474.896 414.074
L477.414 412.996
L479.932 412.996
L482.451 414.074
L487.487 414.074
L490.005 412.996
L492.523 414.074
L507.633 414.074
L510.151 412.996
L512.669 414.074
L517.705 414.074
L520.224 412.996
L522.742 414.074
L525.26 414.074
L527.778 412.996
L530.296 415.152
L537.851 415.152
L540.369 414.074
L542.887 415.152
L552.96 415.152
L552.96 415.152" style="fill:none;stroke:#0030ff;stroke-linecap:square;stroke-width:2.0;"/>
   </g>
   <g id="line2d_80">
    <path clip-path="url(#peb9822e37a)" d="
M51.84 415.152
L192.859 415.152
L195.377 414.074
L235.668 414.074
L238.186 415.152
L240.704 414.074
L248.259 414.074
L250.777 412.996
L263.368 412.996
L265.886 414.074
L270.923 414.074
L273.441 412.996
L308.695 412.996
L311.214 411.917
L313.732 412.996
L316.25 411.917
L318.768 412.996
L321.286 411.917
L323.805 412.996
L356.541 412.996
L359.059 415.152
L424.532 415.152
L427.05 414.074
L429.569 415.152
L527.778 415.152
L530.296 414.074
L542.887 414.074
L545.405 415.152
L547.924 414.074
L552.96 414.074
L552.96 414.074" style="fill:none;stroke:#004cff;stroke-linecap:square;stroke-width:2.0;"/>
   </g>
   <g id="line2d_81">
    <path clip-path="url(#peb9822e37a)" d="
M51.84 415.152
L293.586 415.152
L296.105 414.074
L308.695 414.074
L311.214 415.152
L313.732 414.074
L316.25 414.074
L318.768 412.996
L321.286 414.074
L323.805 412.996
L374.168 412.996
L376.687 414.074
L381.723 414.074
L384.241 412.996
L424.532 412.996
L427.05 414.074
L429.569 412.996
L472.378 412.996
L474.896 414.074
L552.96 414.074
L552.96 414.074" style="fill:none;stroke:#0064ff;stroke-linecap:square;stroke-width:2.0;"/>
   </g>
   <g id="line2d_82">
    <path clip-path="url(#peb9822e37a)" d="
M51.84 415.152
L288.55 415.152
L291.068 414.074
L293.586 414.074
L296.105 415.152
L298.623 414.074
L301.141 415.152
L313.732 415.152
L316.25 414.074
L326.323 414.074
L328.841 415.152
L331.359 414.074
L333.877 414.074
L336.396 415.152
L338.914 415.152
L341.432 414.074
L343.95 415.152
L346.468 412.996
L348.987 412.996
L351.505 414.074
L354.023 412.996
L359.059 412.996
L361.577 414.074
L366.614 414.074
L369.132 412.996
L371.65 412.996
L374.168 414.074
L381.723 414.074
L384.241 412.996
L386.759 412.996
L389.278 411.917
L394.314 414.074
L396.832 412.996
L401.869 412.996
L404.387 414.074
L406.905 412.996
L411.941 412.996
L414.459 414.074
L422.014 414.074
L424.532 412.996
L429.569 412.996
L432.087 414.074
L437.123 414.074
L439.641 412.996
L442.16 414.074
L444.678 412.996
L454.751 412.996
L457.269 414.074
L459.787 414.074
L462.305 412.996
L464.823 414.074
L542.887 414.074
L545.405 412.996
L547.924 414.074
L552.96 414.074
L552.96 414.074" style="fill:none;stroke:#0080ff;stroke-linecap:square;stroke-width:2.0;"/>
   </g>
   <g id="line2d_83">
    <path clip-path="url(#peb9822e37a)" d="
M51.84 415.152
L270.923 415.152
L273.441 414.074
L275.959 415.152
L552.96 415.152
L552.96 415.152" style="fill:none;stroke:#0098ff;stroke-linecap:square;stroke-width:2.0;"/>
   </g>
   <g id="line2d_84">
    <path clip-path="url(#peb9822e37a)" d="
M51.84 415.152
L263.368 415.152
L265.886 414.074
L270.923 414.074
L273.441 415.152
L275.959 415.152
L278.477 414.074
L280.995 415.152
L389.278 415.152
L391.796 414.074
L394.314 414.074
L396.832 415.152
L552.96 415.152
L552.96 415.152" style="fill:none;stroke:#00b0ff;stroke-linecap:square;stroke-width:2.0;"/>
   </g>
   <g id="line2d_85">
    <path clip-path="url(#peb9822e37a)" d="
M51.84 415.152
L306.177 415.152
L308.695 414.074
L311.214 414.074
L313.732 415.152
L359.059 415.152
L361.577 414.074
L366.614 414.074
L369.132 415.152
L374.168 415.152
L376.687 414.074
L379.205 415.152
L381.723 414.074
L384.241 415.152
L391.796 415.152
L394.314 414.074
L396.832 415.152
L401.869 415.152
L404.387 414.074
L406.905 415.152
L419.496 415.152
L422.014 414.074
L424.532 415.152
L434.605 415.152
L437.123 414.074
L439.641 415.152
L454.751 415.152
L457.269 414.074
L459.787 414.074
L462.305 415.152
L464.823 414.074
L474.896 414.074
L477.414 415.152
L479.932 415.152
L482.451 414.074
L487.487 414.074
L490.005 415.152
L492.523 414.074
L507.633 414.074
L510.151 415.152
L512.669 414.074
L517.705 414.074
L520.224 415.152
L522.742 414.074
L525.26 414.074
L527.778 415.152
L530.296 414.074
L537.851 414.074
L540.369 415.152
L542.887 414.074
L552.96 414.074
L552.96 414.074" style="fill:none;stroke:#00ccff;stroke-linecap:square;stroke-width:2.0;"/>
   </g>
   <g id="line2d_86">
    <path clip-path="url(#peb9822e37a)" d="
M51.84 415.152
L374.168 415.152
L376.687 414.074
L381.723 414.074
L384.241 415.152
L472.378 415.152
L474.896 414.074
L552.96 414.074
L552.96 414.074" style="fill:none;stroke:#00e4f8;stroke-linecap:square;stroke-width:2.0;"/>
   </g>
   <g id="line2d_87">
    <path clip-path="url(#peb9822e37a)" d="
M51.84 415.152
L273.441 415.152
L275.959 414.074
L278.477 415.152
L280.995 414.074
L381.723 414.074
L384.241 415.152
L552.96 415.152
L552.96 415.152" style="fill:none;stroke:#16ffe1;stroke-linecap:square;stroke-width:2.0;"/>
   </g>
   <g id="line2d_88">
    <path clip-path="url(#peb9822e37a)" d="
M51.84 415.152
L394.314 415.152
L396.832 414.074
L552.96 414.074
L552.96 414.074" style="fill:none;stroke:#29ffce;stroke-linecap:square;stroke-width:2.0;"/>
   </g>
   <g id="line2d_89">
    <path clip-path="url(#peb9822e37a)" d="
M51.84 415.152
L356.541 415.152
L359.059 414.074
L381.723 414.074
L384.241 415.152
L552.96 415.152
L552.96 415.152" style="fill:none;stroke:#3cffba;stroke-linecap:square;stroke-width:2.0;"/>
   </g>
   <g id="line2d_90">
    <path clip-path="url(#peb9822e37a)" d="
M51.84 415.152
L381.723 415.152
L384.241 414.074
L409.423 414.074
L411.941 415.152
L552.96 415.152
L552.96 415.152" style="fill:none;stroke:#ff4e00;stroke-linecap:square;stroke-width:2.0;"/>
   </g>
   <g id="line2d_91">
    <path clip-path="url(#peb9822e37a)" d="
M51.84 415.152
L409.423 415.152
L411.941 414.074
L552.96 414.074
L552.96 414.074" style="fill:none;stroke:#800000;stroke-linecap:square;stroke-width:2.0;"/>
   </g>
   <g id="matplotlib.axis_3">
    <g id="xtick_6">
     <g id="line2d_92">
      <g>
       <use style="stroke:#000000;stroke-width:0.5;" x="51.84" xlink:href="#m93b0483c22" y="415.152"/>
      </g>
     </g>
     <g id="text_35">
      <!-- 0 -->
      <g transform="translate(49.3214765625 426.747398125)scale(0.09996 -0.09996)">
       <use xlink:href="#DejaVuSans-30"/>
      </g>
     </g>
    </g>
    <g id="xtick_7">
     <g id="line2d_93">
      <g>
       <use style="stroke:#000000;stroke-width:0.5;" x="152.567638191" xlink:href="#m93b0483c22" y="415.152"/>
      </g>
     </g>
     <g id="text_36">
      <!-- 2000 -->
      <g transform="translate(140.545886316 426.747398125)scale(0.09996 -0.09996)">
       <use xlink:href="#DejaVuSans-32"/>
       <use x="63.623046875" xlink:href="#DejaVuSans-30"/>
       <use x="127.24609375" xlink:href="#DejaVuSans-30"/>
       <use x="190.869140625" xlink:href="#DejaVuSans-30"/>
      </g>
     </g>
    </g>
    <g id="xtick_8">
     <g id="line2d_94">
      <g>
       <use style="stroke:#000000;stroke-width:0.5;" x="253.295276382" xlink:href="#m93b0483c22" y="415.152"/>
      </g>
     </g>
     <g id="text_37">
      <!-- 4000 -->
      <g transform="translate(241.151698257 426.747398125)scale(0.09996 -0.09996)">
       <use xlink:href="#DejaVuSans-34"/>
       <use x="63.623046875" xlink:href="#DejaVuSans-30"/>
       <use x="127.24609375" xlink:href="#DejaVuSans-30"/>
       <use x="190.869140625" xlink:href="#DejaVuSans-30"/>
      </g>
     </g>
    </g>
    <g id="xtick_9">
     <g id="line2d_95">
      <g>
       <use style="stroke:#000000;stroke-width:0.5;" x="354.022914573" xlink:href="#m93b0483c22" y="415.152"/>
      </g>
     </g>
     <g id="text_38">
      <!-- 6000 -->
      <g transform="translate(341.983982073 426.747398125)scale(0.09996 -0.09996)">
       <use xlink:href="#DejaVuSans-36"/>
       <use x="63.623046875" xlink:href="#DejaVuSans-30"/>
       <use x="127.24609375" xlink:href="#DejaVuSans-30"/>
       <use x="190.869140625" xlink:href="#DejaVuSans-30"/>
      </g>
     </g>
    </g>
    <g id="xtick_10">
     <g id="line2d_96">
      <g>
       <use style="stroke:#000000;stroke-width:0.5;" x="454.750552764" xlink:href="#m93b0483c22" y="415.152"/>
      </g>
     </g>
     <g id="text_39">
      <!-- 8000 -->
      <g transform="translate(442.701468076 426.747398125)scale(0.09996 -0.09996)">
       <use xlink:href="#DejaVuSans-38"/>
       <use x="63.623046875" xlink:href="#DejaVuSans-30"/>
       <use x="127.24609375" xlink:href="#DejaVuSans-30"/>
       <use x="190.869140625" xlink:href="#DejaVuSans-30"/>
      </g>
     </g>
    </g>
    <g id="text_40">
     <!-- time (ns) -->
     <g transform="translate(280.278383438 441.421651875)scale(0.09996 -0.09996)">
      <use xlink:href="#DejaVuSans-74"/>
      <use x="39.208984375" xlink:href="#DejaVuSans-69"/>
      <use x="66.9921875" xlink:href="#DejaVuSans-6d"/>
      <use x="164.404296875" xlink:href="#DejaVuSans-65"/>
      <use x="225.927734375" xlink:href="#DejaVuSans-20"/>
      <use x="257.71484375" xlink:href="#DejaVuSans-28"/>
      <use x="296.728515625" xlink:href="#DejaVuSans-6e"/>
      <use x="360.107421875" xlink:href="#DejaVuSans-73"/>
      <use x="412.20703125" xlink:href="#DejaVuSans-29"/>
     </g>
    </g>
   </g>
   <g id="matplotlib.axis_4">
    <g id="ytick_7">
     <g id="line2d_97">
      <g>
       <use style="stroke:#000000;stroke-width:0.5;" x="51.84" xlink:href="#m728421d6d4" y="415.152"/>
      </g>
     </g>
     <g id="text_41">
      <!-- 0 -->
      <g transform="translate(42.802953125 417.91027125)scale(0.09996 -0.09996)">
       <use xlink:href="#DejaVuSans-30"/>
      </g>
     </g>
    </g>
    <g id="ytick_8">
     <g id="line2d_98">
      <g>
       <use style="stroke:#000000;stroke-width:0.5;" x="51.84" xlink:href="#m728421d6d4" y="382.806997818"/>
      </g>
     </g>
     <g id="text_42">
      <!-- 30 -->
      <g transform="translate(36.546081875 385.565269068)scale(0.09996 -0.09996)">
       <use xlink:href="#DejaVuSans-33"/>
       <use x="63.623046875" xlink:href="#DejaVuSans-30"/>
      </g>
     </g>
    </g>
    <g id="ytick_9">
     <g id="line2d_99">
      <g>
       <use style="stroke:#000000;stroke-width:0.5;" x="51.84" xlink:href="#m728421d6d4" y="350.461995635"/>
      </g>
     </g>
     <g id="text_43">
      <!-- 60 -->
      <g transform="translate(36.482045 353.220266885)scale(0.09996 -0.09996)">
       <use xlink:href="#DejaVuSans-36"/>
       <use x="63.623046875" xlink:href="#DejaVuSans-30"/>
      </g>
     </g>
    </g>
    <g id="ytick_10">
     <g id="line2d_100">
      <g>
       <use style="stroke:#000000;stroke-width:0.5;" x="51.84" xlink:href="#m728421d6d4" y="318.116993453"/>
      </g>
     </g>
     <g id="text_44">
      <!-- 90 -->
      <g transform="translate(36.4133225 320.875264703)scale(0.09996 -0.09996)">
       <use xlink:href="#DejaVuSans-39"/>
       <use x="63.623046875" xlink:href="#DejaVuSans-30"/>
      </g>
     </g>
    </g>
    <g id="ytick_11">
     <g id="line2d_101">
      <g>
       <use style="stroke:#000000;stroke-width:0.5;" x="51.84" xlink:href="#m728421d6d4" y="285.77199127"/>
      </g>
     </g>
     <g id="text_45">
      <!-- 120 -->
      <g transform="translate(30.52193 288.53026252)scale(0.09996 -0.09996)">
       <use xlink:href="#DejaVuSans-31"/>
       <use x="63.623046875" xlink:href="#DejaVuSans-32"/>
       <use x="127.24609375" xlink:href="#DejaVuSans-30"/>
      </g>
     </g>
    </g>
    <g id="text_46">
     <!-- nb of clusters -->
     <defs>
      <path d="
M8.5 21.5781
L8.5 54.6875
L17.4844 54.6875
L17.4844 21.9219
Q17.4844 14.1562 20.5 10.2656
Q23.5312 6.39062 29.5938 6.39062
Q36.8594 6.39062 41.0781 11.0312
Q45.3125 15.6719 45.3125 23.6875
L45.3125 54.6875
L54.2969 54.6875
L54.2969 0
L45.3125 0
L45.3125 8.40625
Q42.0469 3.42188 37.7188 1
Q33.4062 -1.42188 27.6875 -1.42188
Q18.2656 -1.42188 13.375 4.4375
Q8.5 10.2969 8.5 21.5781
M31.1094 56
z
" id="DejaVuSans-75"/>
      <path d="
M48.6875 27.2969
Q48.6875 37.2031 44.6094 42.8438
Q40.5312 48.4844 33.4062 48.4844
Q26.2656 48.4844 22.1875 42.8438
Q18.1094 37.2031 18.1094 27.2969
Q18.1094 17.3906 22.1875 11.75
Q26.2656 6.10938 33.4062 6.10938
Q40.5312 6.10938 44.6094 11.75
Q48.6875 17.3906 48.6875 27.2969
M18.1094 46.3906
Q20.9531 51.2656 25.2656 53.625
Q29.5938 56 35.5938 56
Q45.5625 56 51.7812 48.0938
Q58.0156 40.1875 58.0156 27.2969
Q58.0156 14.4062 51.7812 6.48438
Q45.5625 -1.42188 35.5938 -1.42188
Q29.5938 -1.42188 25.2656 0.953125
Q20.9531 3.32812 18.1094 8.20312
L18.1094 0
L9.07812 0
L9.07812 75.9844
L18.1094 75.9844
z
" id="DejaVuSans-62"/>
      <path d="
M48.7812 52.5938
L48.7812 44.1875
Q44.9688 46.2969 41.1406 47.3438
Q37.3125 48.3906 33.4062 48.3906
Q24.6562 48.3906 19.8125 42.8438
Q14.9844 37.3125 14.9844 27.2969
Q14.9844 17.2812 19.8125 11.7344
Q24.6562 6.20312 33.4062 6.20312
Q37.3125 6.20312 41.1406 7.25
Q44.9688 8.29688 48.7812 10.4062
L48.7812 2.09375
Q45.0156 0.34375 40.9844 -0.53125
Q36.9688 -1.42188 32.4219 -1.42188
Q20.0625 -1.42188 12.7812 6.34375
Q5.51562 14.1094 5.51562 27.2969
Q5.51562 40.6719 12.8594 48.3281
Q20.2188 56 33.0156 56
Q37.1562 56 41.1094 55.1406
Q45.0625 54.2969 48.7812 52.5938" id="DejaVuSans-63"/>
      <path d="
M9.42188 75.9844
L18.4062 75.9844
L18.4062 0
L9.42188 0
z
" id="DejaVuSans-6c"/>
     </defs>
     <g transform="translate(23.443074375 370.676897955)rotate(-90.0)scale(0.09996 -0.09996)">
      <use xlink:href="#DejaVuSans-6e"/>
      <use x="63.37890625" xlink:href="#DejaVuSans-62"/>
      <use x="126.85546875" xlink:href="#DejaVuSans-20"/>
      <use x="158.642578125" xlink:href="#DejaVuSans-6f"/>
      <use x="219.82421875" xlink:href="#DejaVuSans-66"/>
      <use x="255.029296875" xlink:href="#DejaVuSans-20"/>
      <use x="286.81640625" xlink:href="#DejaVuSans-63"/>
      <use x="341.796875" xlink:href="#DejaVuSans-6c"/>
      <use x="369.580078125" xlink:href="#DejaVuSans-75"/>
      <use x="432.958984375" xlink:href="#DejaVuSans-73"/>
      <use x="485.05859375" xlink:href="#DejaVuSans-74"/>
      <use x="524.267578125" xlink:href="#DejaVuSans-65"/>
      <use x="585.791015625" xlink:href="#DejaVuSans-72"/>
      <use x="626.904296875" xlink:href="#DejaVuSans-73"/>
     </g>
    </g>
   </g>
   <g id="patch_7">
    <path d="
M51.84 415.152
L552.96 415.152" style="fill:none;stroke:#000000;"/>
   </g>
   <g id="patch_8">
    <path d="
M51.84 415.152
L51.84 258.818" style="fill:none;stroke:#000000;"/>
   </g>
   <g id="text_47">
    <!-- nb -->
    <g transform="translate(296.78662125 253.817822785)scale(0.09996 -0.09996)">
     <use xlink:href="#DejaVuSans-6e"/>
     <use x="63.37890625" xlink:href="#DejaVuSans-62"/>
    </g>
   </g>
   <g id="legend_2">
    <g id="patch_9">
     <path d="
M500.579 560.26
L547.962 560.26
L547.962 263.816
L500.579 263.816
L500.579 560.26
z
" style="fill:#ffffff;stroke:#000000;"/>
    </g>
    <g id="line2d_102">
     <path d="
M507.577 271.911
L521.571 271.911" style="fill:none;stroke:#000080;stroke-linecap:square;stroke-width:2.0;"/>
    </g>
    <g id="line2d_103"/>
    <g id="text_48">
     <!-- 1 -->
     <g transform="translate(532.566598125 275.40962091)scale(0.09996 -0.09996)">
      <use xlink:href="#DejaVuSans-31"/>
     </g>
    </g>
    <g id="line2d_104">
     <path d="
M507.577 286.583
L521.571 286.583" style="fill:none;stroke:#00009b;stroke-linecap:square;stroke-width:2.0;"/>
    </g>
    <g id="line2d_105"/>
    <g id="text_49">
     <!-- 2 -->
     <g transform="translate(532.566598125 290.08187466)scale(0.09996 -0.09996)">
      <use xlink:href="#DejaVuSans-32"/>
     </g>
    </g>
    <g id="line2d_106">
     <path d="
M507.577 301.256
L521.571 301.256" style="fill:none;stroke:#0000b6;stroke-linecap:square;stroke-width:2.0;"/>
    </g>
    <g id="line2d_107"/>
    <g id="text_50">
     <!-- 3 -->
     <g transform="translate(532.566598125 304.75412841)scale(0.09996 -0.09996)">
      <use xlink:href="#DejaVuSans-33"/>
     </g>
    </g>
    <g id="line2d_108">
     <path d="
M507.577 315.928
L521.571 315.928" style="fill:none;stroke:#0000d6;stroke-linecap:square;stroke-width:2.0;"/>
    </g>
    <g id="line2d_109"/>
    <g id="text_51">
     <!-- 4 -->
     <g transform="translate(532.566598125 319.42638216)scale(0.09996 -0.09996)">
      <use xlink:href="#DejaVuSans-34"/>
     </g>
    </g>
    <g id="line2d_110">
     <path d="
M507.577 330.6
L521.571 330.6" style="fill:none;stroke:#0000f1;stroke-linecap:square;stroke-width:2.0;"/>
    </g>
    <g id="line2d_111"/>
    <g id="text_52">
     <!-- 5 -->
     <g transform="translate(532.566598125 334.09863591)scale(0.09996 -0.09996)">
      <use xlink:href="#DejaVuSans-35"/>
     </g>
    </g>
    <g id="line2d_112">
     <path d="
M507.577 345.272
L521.571 345.272" style="fill:none;stroke:#0000ff;stroke-linecap:square;stroke-width:2.0;"/>
    </g>
    <g id="line2d_113"/>
    <g id="text_53">
     <!-- 6 -->
     <g transform="translate(532.566598125 348.77088966)scale(0.09996 -0.09996)">
      <use xlink:href="#DejaVuSans-36"/>
     </g>
    </g>
    <g id="line2d_114">
     <path d="
M507.577 359.945
L521.571 359.945" style="fill:none;stroke:#0018ff;stroke-linecap:square;stroke-width:2.0;"/>
    </g>
    <g id="line2d_115"/>
    <g id="text_54">
     <!-- 7 -->
     <g transform="translate(532.566598125 363.44314341)scale(0.09996 -0.09996)">
      <use xlink:href="#DejaVuSans-37"/>
     </g>
    </g>
    <g id="line2d_116">
     <path d="
M507.577 374.617
L521.571 374.617" style="fill:none;stroke:#0030ff;stroke-linecap:square;stroke-width:2.0;"/>
    </g>
    <g id="line2d_117"/>
    <g id="text_55">
     <!-- 8 -->
     <g transform="translate(532.566598125 378.11539716)scale(0.09996 -0.09996)">
      <use xlink:href="#DejaVuSans-38"/>
     </g>
    </g>
    <g id="line2d_118">
     <path d="
M507.577 389.289
L521.571 389.289" style="fill:none;stroke:#004cff;stroke-linecap:square;stroke-width:2.0;"/>
    </g>
    <g id="line2d_119"/>
    <g id="text_56">
     <!-- 9 -->
     <g transform="translate(532.566598125 392.78765091)scale(0.09996 -0.09996)">
      <use xlink:href="#DejaVuSans-39"/>
     </g>
    </g>
    <g id="line2d_120">
     <path d="
M507.577 403.961
L521.571 403.961" style="fill:none;stroke:#0064ff;stroke-linecap:square;stroke-width:2.0;"/>
    </g>
    <g id="line2d_121"/>
    <g id="text_57">
     <!-- 10 -->
     <g transform="translate(532.566598125 407.45990466)scale(0.09996 -0.09996)">
      <use xlink:href="#DejaVuSans-31"/>
      <use x="63.623046875" xlink:href="#DejaVuSans-30"/>
     </g>
    </g>
    <g id="line2d_122">
     <path d="
M507.577 418.634
L521.571 418.634" style="fill:none;stroke:#0080ff;stroke-linecap:square;stroke-width:2.0;"/>
    </g>
    <g id="line2d_123"/>
    <g id="text_58">
     <!-- 11 -->
     <g transform="translate(532.566598125 422.13215841)scale(0.09996 -0.09996)">
      <use xlink:href="#DejaVuSans-31"/>
      <use x="63.623046875" xlink:href="#DejaVuSans-31"/>
     </g>
    </g>
    <g id="line2d_124">
     <path d="
M507.577 433.306
L521.571 433.306" style="fill:none;stroke:#0098ff;stroke-linecap:square;stroke-width:2.0;"/>
    </g>
    <g id="line2d_125"/>
    <g id="text_59">
     <!-- 12 -->
     <g transform="translate(532.566598125 436.80441216)scale(0.09996 -0.09996)">
      <use xlink:href="#DejaVuSans-31"/>
      <use x="63.623046875" xlink:href="#DejaVuSans-32"/>
     </g>
    </g>
    <g id="line2d_126">
     <path d="
M507.577 447.978" style="fill:none;stroke:#00b0ff;stroke-linecap:square;stroke-width:2.0;"/>
    </g>
    <g id="line2d_127"/>
    <g id="text_60">
     <!-- 13 -->
     <g transform="translate(532.566598125 451.47666591)scale(0.09996 -0.09996)">
      <use xlink:href="#DejaVuSans-31"/>
      <use x="63.623046875" xlink:href="#DejaVuSans-33"/>
     </g>
    </g>
    <g id="line2d_128">
     <path d="
M507.577 462.65" style="fill:none;stroke:#00ccff;stroke-linecap:square;stroke-width:2.0;"/>
    </g>
    <g id="line2d_129"/>
    <g id="text_61">
     <!-- 14 -->
     <g transform="translate(532.566598125 466.14891966)scale(0.09996 -0.09996)">
      <use xlink:href="#DejaVuSans-31"/>
      <use x="63.623046875" xlink:href="#DejaVuSans-34"/>
     </g>
    </g>
    <g id="line2d_130">
     <path d="
M507.577 477.323" style="fill:none;stroke:#00e4f8;stroke-linecap:square;stroke-width:2.0;"/>
    </g>
    <g id="line2d_131"/>
    <g id="text_62">
     <!-- 15 -->
     <g transform="translate(532.566598125 480.82117341)scale(0.09996 -0.09996)">
      <use xlink:href="#DejaVuSans-31"/>
      <use x="63.623046875" xlink:href="#DejaVuSans-35"/>
     </g>
    </g>
    <g id="line2d_132">
     <path d="
M507.577 491.995" style="fill:none;stroke:#16ffe1;stroke-linecap:square;stroke-width:2.0;"/>
    </g>
    <g id="line2d_133"/>
    <g id="text_63">
     <!-- 16 -->
     <g transform="translate(532.566598125 495.49342716)scale(0.09996 -0.09996)">
      <use xlink:href="#DejaVuSans-31"/>
      <use x="63.623046875" xlink:href="#DejaVuSans-36"/>
     </g>
    </g>
    <g id="line2d_134">
     <path d="
M507.577 506.667" style="fill:none;stroke:#29ffce;stroke-linecap:square;stroke-width:2.0;"/>
    </g>
    <g id="line2d_135"/>
    <g id="text_64">
     <!-- 17 -->
     <g transform="translate(532.566598125 510.16568091)scale(0.09996 -0.09996)">
      <use xlink:href="#DejaVuSans-31"/>
      <use x="63.623046875" xlink:href="#DejaVuSans-37"/>
     </g>
    </g>
    <g id="line2d_136">
     <path d="
M507.577 521.339" style="fill:none;stroke:#3cffba;stroke-linecap:square;stroke-width:2.0;"/>
    </g>
    <g id="line2d_137"/>
    <g id="text_65">
     <!-- 18 -->
     <g transform="translate(532.566598125 524.83793466)scale(0.09996 -0.09996)">
      <use xlink:href="#DejaVuSans-31"/>
      <use x="63.623046875" xlink:href="#DejaVuSans-38"/>
     </g>
    </g>
    <g id="line2d_138">
     <path d="
M507.577 536.012" style="fill:none;stroke:#ff4e00;stroke-linecap:square;stroke-width:2.0;"/>
    </g>
    <g id="line2d_139"/>
    <g id="text_66">
     <!-- 34 -->
     <g transform="translate(532.566598125 539.51018841)scale(0.09996 -0.09996)">
      <use xlink:href="#DejaVuSans-33"/>
      <use x="63.623046875" xlink:href="#DejaVuSans-34"/>
     </g>
    </g>
    <g id="line2d_140">
     <path d="
M507.577 550.684" style="fill:none;stroke:#800000;stroke-linecap:square;stroke-width:2.0;"/>
    </g>
    <g id="line2d_141"/>
    <g id="text_67">
     <!-- 41 -->
     <g transform="translate(532.566598125 554.18244216)scale(0.09996 -0.09996)">
      <use xlink:href="#DejaVuSans-34"/>
      <use x="63.623046875" xlink:href="#DejaVuSans-31"/>
     </g>
    </g>
   </g>
  </g>
  <g id="text_68">
   <!-- Evolution of proteins distribution -->
   <defs>
    <path d="
M9.8125 72.9062
L55.9062 72.9062
L55.9062 64.5938
L19.6719 64.5938
L19.6719 43.0156
L54.3906 43.0156
L54.3906 34.7188
L19.6719 34.7188
L19.6719 8.29688
L56.7812 8.29688
L56.7812 0
L9.8125 0
z
" id="DejaVuSans-45"/>
    <path d="
M45.4062 46.3906
L45.4062 75.9844
L54.3906 75.9844
L54.3906 0
L45.4062 0
L45.4062 8.20312
Q42.5781 3.32812 38.25 0.953125
Q33.9375 -1.42188 27.875 -1.42188
Q17.9688 -1.42188 11.7344 6.48438
Q5.51562 14.4062 5.51562 27.2969
Q5.51562 40.1875 11.7344 48.0938
Q17.9688 56 27.875 56
Q33.9375 56 38.25 53.625
Q42.5781 51.2656 45.4062 46.3906
M14.7969 27.2969
Q14.7969 17.3906 18.875 11.75
Q22.9531 6.10938 30.0781 6.10938
Q37.2031 6.10938 41.2969 11.75
Q45.4062 17.3906 45.4062 27.2969
Q45.4062 37.2031 41.2969 42.8438
Q37.2031 48.4844 30.0781 48.4844
Q22.9531 48.4844 18.875 42.8438
Q14.7969 37.2031 14.7969 27.2969" id="DejaVuSans-64"/>
    <path d="
M2.98438 54.6875
L12.5 54.6875
L29.5938 8.79688
L46.6875 54.6875
L56.2031 54.6875
L35.6875 0
L23.4844 0
z
" id="DejaVuSans-76"/>
   </defs>
   <g transform="translate(190.3865625 18.046125)scale(0.12 -0.12)">
    <use xlink:href="#DejaVuSans-45"/>
    <use x="63.18359375" xlink:href="#DejaVuSans-76"/>
    <use x="122.36328125" xlink:href="#DejaVuSans-6f"/>
    <use x="183.544921875" xlink:href="#DejaVuSans-6c"/>
    <use x="211.328125" xlink:href="#DejaVuSans-75"/>
    <use x="274.70703125" xlink:href="#DejaVuSans-74"/>
    <use x="313.916015625" xlink:href="#DejaVuSans-69"/>
    <use x="341.69921875" xlink:href="#DejaVuSans-6f"/>
    <use x="402.880859375" xlink:href="#DejaVuSans-6e"/>
    <use x="466.259765625" xlink:href="#DejaVuSans-20"/>
    <use x="498.046875" xlink:href="#DejaVuSans-6f"/>
    <use x="559.228515625" xlink:href="#DejaVuSans-66"/>
    <use x="594.43359375" xlink:href="#DejaVuSans-20"/>
    <use x="626.220703125" xlink:href="#DejaVuSans-70"/>
    <use x="689.697265625" xlink:href="#DejaVuSans-72"/>
    <use x="728.560546875" xlink:href="#DejaVuSans-6f"/>
    <use x="789.7421875" xlink:href="#DejaVuSans-74"/>
    <use x="828.951171875" xlink:href="#DejaVuSans-65"/>
    <use x="890.474609375" xlink:href="#DejaVuSans-69"/>
    <use x="918.2578125" xlink:href="#DejaVuSans-6e"/>
    <use x="981.63671875" xlink:href="#DejaVuSans-73"/>
    <use x="1033.73632812" xlink:href="#DejaVuSans-20"/>
    <use x="1065.5234375" xlink:href="#DejaVuSans-64"/>
    <use x="1129.0" xlink:href="#DejaVuSans-69"/>
    <use x="1156.78320312" xlink:href="#DejaVuSans-73"/>
    <use x="1208.8828125" xlink:href="#DejaVuSans-74"/>
    <use x="1248.09179688" xlink:href="#DejaVuSans-72"/>
    <use x="1289.20507812" xlink:href="#DejaVuSans-69"/>
    <use x="1316.98828125" xlink:href="#DejaVuSans-62"/>
    <use x="1380.46484375" xlink:href="#DejaVuSans-75"/>
    <use x="1443.84375" xlink:href="#DejaVuSans-74"/>
    <use x="1483.05273438" xlink:href="#DejaVuSans-69"/>
    <use x="1510.8359375" xlink:href="#DejaVuSans-6f"/>
    <use x="1572.01757812" xlink:href="#DejaVuSans-6e"/>
   </g>
  </g>
 </g>
 <defs>
  <clipPath id="peb9822e37a">
   <rect height="156.334177215" width="501.12" x="51.84" y="258.817822785"/>
  </clipPath>
  <clipPath id="p574659481c">
   <rect height="156.334177215" width="501.12" x="51.84" y="44.64"/>
  </clipPath>
 </defs>
</svg>
